SplineFontDB: 3.2
FontName: FontAwesome
FullName: FontAwesome
FamilyName: FontAwesome
Weight: Book
Copyright: Copyright Dave Gandy 2016. All rights reserved.
Version: 4.7.0 2016
ItalicAngle: 0
UnderlinePosition: 0
UnderlineWidth: 0
Ascent: 1536
Descent: 256
InvalidEm: 0
sfntRevision: 0x000401cb
LayerCount: 2
Layer: 0 1 "Back" 1
Layer: 1 1 "Fore" 0
XUID: [1021 1009 -319669066 1488339]
StyleMap: 0x0040
FSType: 0
OS2Version: 3
OS2_WeightWidthSlopeOnly: 0
OS2_UseTypoMetrics: 0
CreationTime: 1328122800
ModificationTime: 1703564711
PfmFamily: 81
TTFWeight: 400
TTFWidth: 5
LineGap: 0
VLineGap: 0
Panose: 0 0 0 0 0 0 0 0 0 0
OS2TypoAscent: 1536
OS2TypoAOffset: 0
OS2TypoDescent: -256
OS2TypoDOffset: 0
OS2TypoLinegap: 0
OS2WinAscent: 1536
OS2WinAOffset: 0
OS2WinDescent: 256
OS2WinDOffset: 0
HheadAscent: 1536
HheadAOffset: 0
HheadDescent: -256
HheadDOffset: 0
OS2SubXSize: 1164
OS2SubYSize: 1075
OS2SubXOff: 0
OS2SubYOff: 134
OS2SupXSize: 1164
OS2SupYSize: 1075
OS2SupXOff: 0
OS2SupYOff: 627
OS2StrikeYSize: 0
OS2StrikeYPos: 394
OS2CapHeight: 1244
OS2XHeight: 873
OS2Vendor: 'pyrs'
OS2CodePages: 00000001.00000000
OS2UnicodeRanges: 00000000.00000000.00000000.00000000
Lookup: 1 0 0 "'aalt' Access All Alternates lookup 0" { "'aalt' Access All Alternates lookup 0 subtable"  } ['aalt' ('DFLT' <'dflt' > ) ]
Lookup: 3 0 0 "'aalt' Access All Alternates lookup 1" { "'aalt' Access All Alternates lookup 1 subtable"  } ['aalt' ('DFLT' <'dflt' > ) ]
Lookup: 4 0 0 "'frac' Diagonal Fractions lookup 2" { "'frac' Diagonal Fractions lookup 2 subtable"  } ['frac' ('DFLT' <'dflt' > ) ]
Lookup: 6 0 0 "'ordn' Ordinals lookup 3" { "'ordn' Ordinals lookup 3 contextual 0"  "'ordn' Ordinals lookup 3 contextual 1"  } ['ordn' ('DFLT' <'dflt' > ) ]
Lookup: 1 0 0 "'lnum' Lining Figures lookup 4" { "'lnum' Lining Figures lookup 4 subtable"  } ['lnum' ('DFLT' <'dflt' > ) ]
Lookup: 1 0 0 "'onum' Oldstyle Figures lookup 5" { "'onum' Oldstyle Figures lookup 5 subtable" ("oldstyle") } ['onum' ('DFLT' <'dflt' > ) ]

StartChar: .notdef
Encoding: 65536 -1 0
Width: 896
GlyphClass: 1
Flags: W
LayerCount: 2
Fore
SplineSet
224 112 m 1,0,-1
 672 112 l 1,1,-1
 672 1424 l 1,2,-1
 224 1424 l 1,3,-1
 224 112 l 1,0,-1
112 0 m 1,4,-1
 112 1536 l 1,5,-1
 784 1536 l 1,6,-1
 784 0 l 1,7,-1
 112 0 l 1,4,-1
EndSplineSet
EndChar

StartChar: exclam
Encoding: 33 33 5
Width: 412
GlyphClass: 1
Flags: W
LayerCount: 2
Fore
SplineSet
249 357 m 1,0,1
 275 701 275 701 289.5 921.5 c 128,-1,2
 304 1142 304 1142 304 1253 c 0,3,4
 304 1274 304 1274 284.5 1283 c 128,-1,5
 265 1292 265 1292 240 1292 c 0,6,7
 195 1292 195 1292 152 1281 c 128,-1,8
 109 1270 109 1270 109 1245 c 0,9,10
 109 1177 109 1177 115.5 1066.5 c 128,-1,11
 122 956 122 956 136 772 c 0,12,13
 155 512 155 512 162 376 c 1,14,-1
 249 357 l 1,0,1
294.5 0.5 m 128,-1,16
 331 37 331 37 331 90 c 0,17,18
 331 123 331 123 314 150.5 c 128,-1,19
 297 178 297 178 268 194 c 128,-1,20
 239 210 239 210 206 210 c 0,21,22
 156 210 156 210 119.5 176 c 128,-1,23
 83 142 83 142 83 92 c 0,24,25
 83 39 83 39 118.5 1.5 c 128,-1,26
 154 -36 154 -36 206 -36 c 256,27,15
 258 -36 258 -36 294.5 0.5 c 128,-1,16
EndSplineSet
EndChar

StartChar: quotedbl
Encoding: 34 34 6
Width: 497
GlyphClass: 1
Flags: W
LayerCount: 2
Fore
SplineSet
104 892 m 1,0,-1
 197 903 l 1,1,-1
 233 1286 l 1,2,-1
 50 1302 l 1,3,-1
 104 892 l 1,0,-1
311 892 m 1,4,-1
 406 903 l 1,5,-1
 442 1286 l 1,6,-1
 258 1302 l 1,7,-1
 311 892 l 1,4,-1
EndSplineSet
EndChar

StartChar: numbersign
Encoding: 35 35 7
Width: 913
GlyphClass: 1
Flags: W
LayerCount: 2
Fore
SplineSet
961 711 m 1,0,-1
 714 711 l 1,1,-1
 675 451 l 1,2,-1
 917 451 l 1,3,-1
 886 326 l 1,4,-1
 656 326 l 1,5,-1
 604 -19 l 1,6,-1
 497 -26 l 1,7,-1
 550 326 l 1,8,-1
 341 326 l 1,9,-1
 289 -19 l 1,10,-1
 182 -26 l 1,11,-1
 235 326 l 1,12,-1
 -22 326 l 1,13,-1
 11 451 l 1,14,-1
 254 451 l 1,15,-1
 293 711 l 1,16,-1
 49 711 l 1,17,-1
 83 836 l 1,18,-1
 312 836 l 1,19,-1
 359 1149 l 1,20,-1
 465 1159 l 1,21,-1
 417 836 l 1,22,-1
 626 836 l 1,23,-1
 673 1149 l 1,24,-1
 781 1158 l 1,25,-1
 733 836 l 1,26,-1
 992 836 l 1,27,-1
 961 711 l 1,0,-1
568 451 m 1,28,-1
 607 711 l 1,29,-1
 398 711 l 1,30,-1
 359 451 l 1,31,-1
 568 451 l 1,28,-1
EndSplineSet
Substitution2: "'onum' Oldstyle Figures lookup 5 subtable" numbersign.osf
Substitution2: "'aalt' Access All Alternates lookup 0 subtable" numbersign.osf
EndChar

StartChar: dollar
Encoding: 36 36 8
Width: 859
GlyphClass: 1
Flags: W
LayerCount: 2
Fore
SplineSet
805 189.5 m 128,-1,1
 763 115 763 115 690.5 64 c 128,-1,2
 618 13 618 13 529 -9 c 1,3,-1
 540 -164 l 1,4,-1
 367 -179 l 1,5,-1
 377 -23 l 1,6,7
 280 -18 280 -18 196.5 23 c 128,-1,8
 113 64 113 64 66 122 c 1,9,-1
 79 389 l 1,10,-1
 181 375 l 1,11,-1
 220 187 l 1,12,13
 248 143 248 143 300.5 111.5 c 128,-1,14
 353 80 353 80 416 77 c 1,15,-1
 416 538 l 1,16,17
 310 596 310 596 245.5 640.5 c 128,-1,18
 181 685 181 685 135.5 753.5 c 128,-1,19
 90 822 90 822 90 916 c 0,20,21
 90 1008 90 1008 129 1079.5 c 128,-1,22
 168 1151 168 1151 234.5 1196 c 128,-1,23
 301 1241 301 1241 383 1259 c 1,24,-1
 370 1394 l 1,25,-1
 535 1409 l 1,26,-1
 521 1267 l 1,27,28
 655 1257 655 1257 761 1169 c 1,29,30
 758 1122 758 1122 750 1026 c 128,-1,31
 742 930 742 930 739 887 c 1,32,-1
 640 899 l 1,33,-1
 615 1090 l 1,34,35
 602 1115 602 1115 564.5 1143 c 128,-1,36
 527 1171 527 1171 483 1181 c 1,37,-1
 483 746 l 1,38,-1
 525 724 l 2,39,40
 630 669 630 669 694 625.5 c 128,-1,41
 758 582 758 582 802.5 515 c 128,-1,42
 847 448 847 448 847 354 c 0,43,0
 847 264 847 264 805 189.5 c 128,-1,1
304 877 m 128,-1,45
 345 827 345 827 421 781 c 1,46,-1
 421 1184 l 1,47,48
 350 1177 350 1177 306.5 1129 c 128,-1,49
 263 1081 263 1081 263 995 c 0,50,44
 263 927 263 927 304 877 c 128,-1,45
612 151.5 m 128,-1,52
 663 203 663 203 663 287 c 0,53,54
 663 353 663 353 617.5 401.5 c 128,-1,55
 572 450 572 450 486 500 c 1,56,-1
 486 84 l 1,57,51
 561 100 561 100 612 151.5 c 128,-1,52
EndSplineSet
Substitution2: "'onum' Oldstyle Figures lookup 5 subtable" dollar.osf
Substitution2: "'aalt' Access All Alternates lookup 0 subtable" dollar.osf
EndChar

StartChar: percent
Encoding: 37 37 9
Width: 1197
GlyphClass: 1
Flags: W
LayerCount: 2
Fore
SplineSet
684 591 m 1,0,-1
 313 -32 l 1,1,-1
 123 -10 l 1,2,-1
 530 588 l 1,3,-1
 867 1123 l 1,4,-1
 491 1137 l 1,5,6
 514 1113 514 1113 531 1067 c 128,-1,7
 548 1021 548 1021 557 973.5 c 128,-1,8
 566 926 566 926 566 898 c 0,9,10
 566 816 566 816 524 743 c 128,-1,11
 482 670 482 670 419 626.5 c 128,-1,12
 356 583 356 583 297 583 c 0,13,14
 232 583 232 583 170 622.5 c 128,-1,15
 108 662 108 662 68.5 734 c 128,-1,16
 29 806 29 806 29 898 c 0,17,18
 29 979 29 979 70.5 1051.5 c 128,-1,19
 112 1124 112 1124 175.5 1167.5 c 128,-1,20
 239 1211 239 1211 301 1211 c 0,21,22
 321 1211 321 1211 330 1208 c 1,23,-1
 340 1142 l 1,24,25
 337 1143 337 1143 324 1148.5 c 128,-1,26
 311 1154 311 1154 295 1154 c 0,27,28
 241 1154 241 1154 217.5 1077.5 c 128,-1,29
 194 1001 194 1001 194 898 c 0,30,31
 194 798 194 798 220 723.5 c 128,-1,32
 246 649 246 649 297 649 c 0,33,34
 355 649 355 649 378.5 720.5 c 128,-1,35
 402 792 402 792 402 898 c 0,36,37
 402 1082 402 1082 364 1198 c 1,38,-1
 921 1210 l 1,39,-1
 1087 1207 l 1,40,-1
 1085 1178 l 1,41,-1
 684 591 l 1,0,-1
1048 548 m 128,-1,43
 1109 506 1109 506 1145 433.5 c 128,-1,44
 1181 361 1181 361 1181 274 c 0,45,46
 1181 193 1181 193 1141 121.5 c 128,-1,47
 1101 50 1101 50 1040 7 c 128,-1,48
 979 -36 979 -36 920 -36 c 0,49,50
 855 -36 855 -36 791.5 3.5 c 128,-1,51
 728 43 728 43 687.5 114.5 c 128,-1,52
 647 186 647 186 647 277 c 0,53,54
 647 358 647 358 688 430.5 c 128,-1,55
 729 503 729 503 792.5 546.5 c 128,-1,56
 856 590 856 590 917 590 c 0,57,42
 987 590 987 590 1048 548 c 128,-1,43
1021 279 m 0,59,60
 1021 382 1021 382 995.5 458 c 128,-1,61
 970 534 970 534 917 534 c 0,62,63
 859 534 859 534 835.5 458 c 128,-1,64
 812 382 812 382 812 277 c 0,65,66
 812 180 812 180 840 106 c 128,-1,67
 868 32 868 32 920 32 c 0,68,58
 1021 32 1021 32 1021 279 c 0,59,60
EndSplineSet
Substitution2: "'onum' Oldstyle Figures lookup 5 subtable" percent.osf
Substitution2: "'aalt' Access All Alternates lookup 0 subtable" percent.osf
EndChar

StartChar: ampersand
Encoding: 38 38 10
Width: 1281
GlyphClass: 1
Flags: W
LayerCount: 2
Fore
SplineSet
1235 70 m 1,0,-1
 1220 0 l 1,1,2
 1166 -19 1166 -19 1100 -19 c 0,3,4
 1029 -19 1029 -19 944.5 34.5 c 128,-1,5
 860 88 860 88 802 150 c 1,6,7
 718 66 718 66 611 22 c 128,-1,8
 504 -22 504 -22 376 -22 c 0,9,10
 269 -22 269 -22 189 17.5 c 128,-1,11
 109 57 109 57 66 130 c 128,-1,12
 23 203 23 203 23 300 c 0,13,14
 23 416 23 416 95 514.5 c 128,-1,15
 167 613 167 613 309 681 c 1,16,17
 266 733 266 733 239.5 773 c 128,-1,18
 213 813 213 813 196.5 861.5 c 128,-1,19
 180 910 180 910 180 967 c 0,20,21
 180 1043 180 1043 225 1113.5 c 128,-1,22
 270 1184 270 1184 343 1227.5 c 128,-1,23
 416 1271 416 1271 494 1271 c 0,24,25
 583 1271 583 1271 648 1241 c 128,-1,26
 713 1211 713 1211 748 1156 c 128,-1,27
 783 1101 783 1101 783 1026 c 0,28,29
 783 923 783 923 717 843 c 128,-1,30
 651 763 651 763 546 706 c 1,31,-1
 546 695 l 1,32,33
 708 506 708 506 838 373 c 1,34,35
 902 500 902 500 929 685 c 1,36,-1
 777 711 l 1,37,-1
 784 787 l 1,38,-1
 1225 787 l 1,39,-1
 1218 711 l 1,40,-1
 1046 667 l 1,41,42
 1005 450 1005 450 914 297 c 1,43,44
 1107 111 1107 111 1202 79 c 1,45,-1
 1235 70 l 1,0,-1
379 1141 m 128,-1,47
 345 1094 345 1094 345 1024 c 0,48,49
 345 956 345 956 388 885.5 c 128,-1,50
 431 815 431 815 488 763 c 1,51,52
 536 794 536 794 564.5 822 c 128,-1,53
 593 850 593 850 609.5 890 c 128,-1,54
 626 930 626 930 626 988 c 0,55,56
 626 1078 626 1078 589.5 1133 c 128,-1,57
 553 1188 553 1188 474 1188 c 0,58,46
 413 1188 413 1188 379 1141 c 128,-1,47
251.5 240 m 128,-1,60
 283 185 283 185 338.5 153 c 128,-1,61
 394 121 394 121 462 121 c 0,62,63
 621 121 621 121 732 225 c 1,64,-1
 372 619 l 1,65,-1
 355 622 l 1,66,67
 281 570 281 570 250.5 510.5 c 128,-1,68
 220 451 220 451 220 361 c 0,69,59
 220 295 220 295 251.5 240 c 128,-1,60
EndSplineSet
Substitution2: "'smcp' Lowercase to Small Capitals lookup 7 subtable" ampersand.sc
Substitution2: "'c2sc' Capitals to Small Capitals lookup 6 subtable" ampersand.sc
Substitution2: "'aalt' Access All Alternates lookup 0 subtable" ampersand.sc
EndChar

StartChar: quotesingle
Encoding: 39 39 11
Width: 289
GlyphClass: 1
Flags: W
LayerCount: 2
Fore
SplineSet
104 892 m 1,0,-1
 197 903 l 1,1,-1
 233 1286 l 1,2,-1
 50 1302 l 1,3,-1
 104 892 l 1,0,-1
EndSplineSet
EndChar

StartChar: parenleft
Encoding: 40 40 12
Width: 477
GlyphClass: 1
Flags: W
LayerCount: 2
Fore
SplineSet
449 -317 m 1,0,1
 402 -239 402 -239 356.5 -144.5 c 128,-1,2
 311 -50 311 -50 269 109 c 128,-1,3
 227 268 227 268 227 455 c 0,4,5
 227 651 227 651 259 794.5 c 128,-1,6
 291 938 291 938 335.5 1027 c 128,-1,7
 380 1116 380 1116 436 1189 c 1,8,-1
 386 1255 l 1,9,10
 319 1198 319 1198 247.5 1110 c 128,-1,11
 176 1022 176 1022 112.5 852 c 128,-1,12
 49 682 49 682 49 445 c 0,13,14
 49 118 49 118 160 -76.5 c 128,-1,15
 271 -271 271 -271 381 -375 c 1,16,-1
 449 -317 l 1,0,1
EndSplineSet
EndChar

StartChar: parenright
Encoding: 41 41 13
Width: 477
GlyphClass: 1
Flags: W
LayerCount: 2
Fore
SplineSet
211 109.5 m 128,-1,1
 169 -49 169 -49 123.5 -143.5 c 128,-1,2
 78 -238 78 -238 30 -317 c 1,3,-1
 99 -375 l 1,4,5
 209 -271 209 -271 320 -76.5 c 128,-1,6
 431 118 431 118 431 445 c 0,7,8
 431 682 431 682 367 852 c 128,-1,9
 303 1022 303 1022 231.5 1110 c 128,-1,10
 160 1198 160 1198 93 1255 c 1,11,-1
 44 1189 l 1,12,13
 100 1116 100 1116 144.5 1027 c 128,-1,14
 189 938 189 938 221 794.5 c 128,-1,15
 253 651 253 651 253 455 c 0,16,0
 253 268 253 268 211 109.5 c 128,-1,1
EndSplineSet
EndChar

StartChar: comma
Encoding: 44 44 14
Width: 434
GlyphClass: 1
Flags: W
LayerCount: 2
Fore
SplineSet
311.5 -177.5 m 128,-1,1
 372 -88 372 -88 372 10 c 0,2,3
 372 80 372 80 344.5 127 c 128,-1,4
 317 174 317 174 277 196 c 128,-1,5
 237 218 237 218 198 218 c 0,6,7
 171 218 171 218 142.5 204 c 128,-1,8
 114 190 114 190 95 162.5 c 128,-1,9
 76 135 76 135 76 97 c 0,10,11
 76 71 76 71 90 34 c 1,12,13
 110 36 110 36 120 36 c 0,14,15
 171 36 171 36 203.5 4.5 c 128,-1,16
 236 -27 236 -27 236 -70 c 0,17,18
 236 -123 236 -123 191 -171.5 c 128,-1,19
 146 -220 146 -220 54 -244 c 1,20,-1
 77 -313 l 1,21,0
 251 -267 251 -267 311.5 -177.5 c 128,-1,1
EndSplineSet
EndChar

StartChar: hyphen
Encoding: 45 45 15
Width: 581
GlyphClass: 1
Flags: W
LayerCount: 2
Fore
SplineSet
489 415 m 1,0,-1
 500 517 l 1,1,-1
 92 498 l 1,2,-1
 81 398 l 1,3,-1
 489 415 l 1,0,-1
EndSplineSet
EndChar

StartChar: period
Encoding: 46 46 16
Width: 383
GlyphClass: 1
Flags: W
LayerCount: 2
Fore
SplineSet
252 -14.5 m 128,-1,1
 280 2 280 2 296.5 29.5 c 128,-1,2
 313 57 313 57 313 90 c 0,3,4
 313 138 313 138 277 171.5 c 128,-1,5
 241 205 241 205 191 205 c 0,6,7
 143 205 143 205 108 172.5 c 128,-1,8
 73 140 73 140 73 92 c 0,9,10
 73 41 73 41 107.5 5 c 128,-1,11
 142 -31 142 -31 191 -31 c 0,12,0
 224 -31 224 -31 252 -14.5 c 128,-1,1
EndSplineSet
EndChar

StartChar: slash
Encoding: 47 47 17
Width: 676
GlyphClass: 1
Flags: W
LayerCount: 2
Fore
SplineSet
172 -355 m 1,0,-1
 638 1244 l 1,1,-1
 506 1235 l 1,2,-1
 44 -363 l 1,3,-1
 172 -355 l 1,0,-1
EndSplineSet
EndChar

StartChar: zero
Encoding: 48 48 18
Width: 982
GlyphClass: 1
Flags: W
LayerCount: 2
Fore
SplineSet
696 30.5 m 128,-1,1
 789 88 789 88 848.5 225 c 128,-1,2
 908 362 908 362 908 586 c 0,3,4
 908 797 908 797 857 935 c 128,-1,5
 806 1073 806 1073 715 1138 c 128,-1,6
 624 1203 624 1203 500 1203 c 0,7,8
 384 1203 384 1203 287.5 1136.5 c 128,-1,9
 191 1070 191 1070 132.5 931 c 128,-1,10
 74 792 74 792 74 586 c 0,11,12
 74 245 74 245 188 109 c 128,-1,13
 302 -27 302 -27 494 -27 c 0,14,0
 603 -27 603 -27 696 30.5 c 128,-1,1
613 1042.5 m 128,-1,16
 656 987 656 987 673 877 c 128,-1,17
 690 767 690 767 690 586 c 0,18,19
 690 404 690 404 672.5 292 c 128,-1,20
 655 180 655 180 614 125 c 128,-1,21
 573 70 573 70 500 70 c 0,22,23
 416 70 416 70 370.5 125 c 128,-1,24
 325 180 325 180 307.5 289.5 c 128,-1,25
 290 399 290 399 290 583 c 0,26,27
 290 764 290 764 307.5 875 c 128,-1,28
 325 986 325 986 369 1042 c 128,-1,29
 413 1098 413 1098 492 1098 c 0,30,15
 570 1098 570 1098 613 1042.5 c 128,-1,16
EndSplineSet
Substitution2: "'onum' Oldstyle Figures lookup 5 subtable" zero.osf
Substitution2: "'aalt' Access All Alternates lookup 0 subtable" zero.osf
EndChar

StartChar: one
Encoding: 49 49 19
Width: 982
GlyphClass: 1
Flags: W
LayerCount: 2
Fore
SplineSet
850 0 m 1,0,-1
 860 83 l 1,1,-1
 598 114 l 1,2,-1
 598 1185 l 1,3,-1
 570 1185 l 1,4,-1
 150 1108 l 1,5,-1
 144 1031 l 1,6,-1
 394 1031 l 1,7,-1
 394 121 l 1,8,-1
 130 74 l 1,9,-1
 122 0 l 1,10,-1
 850 0 l 1,0,-1
EndSplineSet
Substitution2: "'onum' Oldstyle Figures lookup 5 subtable" one.osf
Substitution2: "'aalt' Access All Alternates lookup 0 subtable" one.osf
EndChar

StartChar: two
Encoding: 50 50 20
Width: 982
GlyphClass: 1
Flags: W
LayerCount: 2
Fore
SplineSet
860 0 m 1,0,-1
 908 358 l 1,1,-1
 838 368 l 1,2,-1
 744 161 l 1,3,-1
 290 161 l 1,4,-1
 335 195 l 1,5,-1
 379 228 l 2,6,7
 551 358 551 358 647 443 c 128,-1,8
 743 528 743 528 806.5 631.5 c 128,-1,9
 870 735 870 735 870 856 c 0,10,11
 870 1024 870 1024 777.5 1116.5 c 128,-1,12
 685 1209 685 1209 517 1209 c 0,13,14
 447 1209 447 1209 367 1188 c 128,-1,15
 287 1167 287 1167 221.5 1133 c 128,-1,16
 156 1099 156 1099 128 1060 c 1,17,-1
 155 766 l 1,18,-1
 232 756 l 1,19,-1
 269 1027 l 1,20,21
 295 1062 295 1062 341.5 1083.5 c 128,-1,22
 388 1105 388 1105 449 1105 c 0,23,24
 567 1105 567 1105 609 1023.5 c 128,-1,25
 651 942 651 942 651 810 c 0,26,27
 651 707 651 707 615.5 623.5 c 128,-1,28
 580 540 580 540 503 458 c 128,-1,29
 426 376 426 376 289 269 c 2,30,-1
 74 102 l 1,31,-1
 80 0 l 1,32,-1
 860 0 l 1,0,-1
EndSplineSet
Substitution2: "'onum' Oldstyle Figures lookup 5 subtable" two.osf
Substitution2: "'aalt' Access All Alternates lookup 0 subtable" two.osf
EndChar

StartChar: three
Encoding: 51 51 21
Width: 982
GlyphClass: 1
Flags: W
LayerCount: 2
Fore
SplineSet
636 18.5 m 128,-1,1
 747 67 747 67 813 150.5 c 128,-1,2
 879 234 879 234 879 335 c 0,3,4
 879 429 879 429 833.5 494.5 c 128,-1,5
 788 560 788 560 713 595 c 128,-1,6
 638 630 638 630 549 637 c 1,7,-1
 549 649 l 1,8,9
 618 674 618 674 682.5 717 c 128,-1,10
 747 760 747 760 790.5 822 c 128,-1,11
 834 884 834 884 834 960 c 0,12,13
 834 1040 834 1040 789.5 1097 c 128,-1,14
 745 1154 745 1154 668 1183.5 c 128,-1,15
 591 1213 591 1213 495 1213 c 0,16,17
 427 1213 427 1213 354 1193 c 128,-1,18
 281 1173 281 1173 224 1144 c 128,-1,19
 167 1115 167 1115 144 1090 c 1,20,-1
 162 823 l 1,21,-1
 247 812 l 1,22,-1
 293 1068 l 1,23,24
 320 1097 320 1097 357 1110.5 c 128,-1,25
 394 1124 394 1124 437 1124 c 0,26,27
 496 1124 496 1124 538 1094.5 c 128,-1,28
 580 1065 580 1065 601 1017.5 c 128,-1,29
 622 970 622 970 622 918 c 0,30,31
 622 838 622 838 568.5 773.5 c 128,-1,32
 515 709 515 709 446 668.5 c 128,-1,33
 377 628 377 628 322 611 c 1,34,-1
 332 545 l 1,35,36
 415 545 415 545 491.5 512 c 128,-1,37
 568 479 568 479 615.5 418 c 128,-1,38
 663 357 663 357 663 277 c 0,39,40
 663 176 663 176 598.5 124 c 128,-1,41
 534 72 534 72 415 72 c 0,42,43
 365 72 365 72 317.5 98 c 128,-1,44
 270 124 270 124 252 157 c 1,45,-1
 239 360 l 1,46,-1
 154 373 l 1,47,-1
 103 74 l 1,48,49
 117 51 117 51 162 26.5 c 128,-1,50
 207 2 207 2 268.5 -14 c 128,-1,51
 330 -30 330 -30 394 -30 c 0,52,0
 525 -30 525 -30 636 18.5 c 128,-1,1
EndSplineSet
Substitution2: "'onum' Oldstyle Figures lookup 5 subtable" three.osf
Substitution2: "'aalt' Access All Alternates lookup 0 subtable" three.osf
EndChar

StartChar: four
Encoding: 52 52 22
Width: 982
GlyphClass: 1
Flags: W
LayerCount: 2
Fore
SplineSet
532 319 m 1,0,-1
 532 -16 l 1,1,-1
 712 15 l 1,2,-1
 712 316 l 1,3,-1
 951 316 l 1,4,-1
 967 449 l 1,5,-1
 712 449 l 1,6,-1
 712 683 l 2,7,8
 712 978 712 978 722 1176 c 1,9,-1
 657 1194 l 1,10,-1
 15 401 l 1,11,-1
 38 319 l 1,12,-1
 532 319 l 1,0,-1
529 912 m 1,13,-1
 529 449 l 1,14,-1
 200 449 l 1,15,-1
 529 912 l 1,13,-1
EndSplineSet
Substitution2: "'onum' Oldstyle Figures lookup 5 subtable" four.osf
Substitution2: "'aalt' Access All Alternates lookup 0 subtable" four.osf
EndChar

StartChar: five
Encoding: 53 53 23
Width: 982
GlyphClass: 1
Flags: W
LayerCount: 2
Fore
SplineSet
633.5 27 m 128,-1,1
 732 79 732 79 788.5 165.5 c 128,-1,2
 845 252 845 252 845 349 c 0,3,4
 845 457 845 457 790.5 545 c 128,-1,5
 736 633 736 633 625 690 c 128,-1,6
 514 747 514 747 352 762 c 1,7,-1
 388 1000 l 1,8,-1
 775 1016 l 1,9,-1
 801 1198 l 1,10,-1
 332 1169 l 1,11,-1
 213 602 l 1,12,13
 360 592 360 592 462.5 549.5 c 128,-1,14
 565 507 565 507 617 439 c 128,-1,15
 669 371 669 371 669 285 c 0,16,17
 669 220 669 220 643 170.5 c 128,-1,18
 617 121 617 121 570 94 c 128,-1,19
 523 67 523 67 460 67 c 0,20,21
 393 67 393 67 341 88.5 c 128,-1,22
 289 110 289 110 259 155 c 1,23,-1
 248 368 l 1,24,-1
 163 387 l 1,25,-1
 127 74 l 1,26,27
 182 19 182 19 253 -3 c 128,-1,28
 324 -25 324 -25 416 -25 c 0,29,0
 535 -25 535 -25 633.5 27 c 128,-1,1
EndSplineSet
Substitution2: "'onum' Oldstyle Figures lookup 5 subtable" five.osf
Substitution2: "'aalt' Access All Alternates lookup 0 subtable" five.osf
EndChar

StartChar: six
Encoding: 54 54 24
Width: 982
GlyphClass: 1
Flags: W
LayerCount: 2
Fore
SplineSet
681.5 28 m 128,-1,1
 775 77 775 77 830.5 166 c 128,-1,2
 886 255 886 255 886 370 c 0,3,4
 886 477 886 477 844 553.5 c 128,-1,5
 802 630 802 630 727.5 669.5 c 128,-1,6
 653 709 653 709 555 709 c 0,7,8
 480 709 480 709 418.5 680 c 128,-1,9
 357 651 357 651 320 609 c 1,10,-1
 309 609 l 1,11,12
 342 775 342 775 450 923.5 c 128,-1,13
 558 1072 558 1072 740 1155 c 1,14,-1
 703 1214 l 1,15,16
 547 1163 547 1163 407 1038 c 128,-1,17
 267 913 267 913 181.5 748.5 c 128,-1,18
 96 584 96 584 96 421 c 0,19,20
 96 298 96 298 136.5 198.5 c 128,-1,21
 177 99 177 99 263 39 c 128,-1,22
 349 -21 349 -21 479 -21 c 0,23,0
 588 -21 588 -21 681.5 28 c 128,-1,1
377 581 m 128,-1,25
 429 606 429 606 482 606 c 0,26,27
 549 606 549 606 594 566 c 128,-1,28
 639 526 639 526 660 463 c 128,-1,29
 681 400 681 400 681 328 c 0,30,31
 681 243 681 243 665 185.5 c 128,-1,32
 649 128 649 128 606.5 94.5 c 128,-1,33
 564 61 564 61 486 61 c 0,34,35
 428 61 428 61 385.5 110 c 128,-1,36
 343 159 343 159 321 238.5 c 128,-1,37
 299 318 299 318 299 406 c 0,38,39
 299 450 299 450 306 527 c 1,40,24
 325 556 325 556 377 581 c 128,-1,25
EndSplineSet
Substitution2: "'onum' Oldstyle Figures lookup 5 subtable" six.osf
Substitution2: "'aalt' Access All Alternates lookup 0 subtable" six.osf
EndChar

StartChar: seven
Encoding: 55 55 25
Width: 982
GlyphClass: 1
Flags: W
LayerCount: 2
Fore
SplineSet
154 796 m 1,0,-1
 229 1015 l 1,1,-1
 742 1015 l 1,2,-1
 253 -11 l 1,3,-1
 460 -33 l 1,4,-1
 897 1130 l 1,5,-1
 897 1182 l 1,6,-1
 109 1182 l 1,7,-1
 85 809 l 1,8,-1
 154 796 l 1,0,-1
EndSplineSet
Substitution2: "'onum' Oldstyle Figures lookup 5 subtable" seven.osf
Substitution2: "'aalt' Access All Alternates lookup 0 subtable" seven.osf
EndChar

StartChar: eight
Encoding: 56 56 26
Width: 982
GlyphClass: 1
Flags: W
LayerCount: 2
Fore
SplineSet
690.5 16 m 128,-1,1
 785 59 785 59 833 133.5 c 128,-1,2
 881 208 881 208 881 302 c 0,3,4
 881 373 881 373 848.5 429.5 c 128,-1,5
 816 486 816 486 766.5 529.5 c 128,-1,6
 717 573 717 573 629 637 c 1,7,-1
 632 647 l 1,8,9
 726 688 726 688 778.5 765.5 c 128,-1,10
 831 843 831 843 831 926 c 0,11,12
 831 1003 831 1003 794.5 1065.5 c 128,-1,13
 758 1128 758 1128 687 1164.5 c 128,-1,14
 616 1201 616 1201 516 1201 c 0,15,16
 423 1201 423 1201 343.5 1156 c 128,-1,17
 264 1111 264 1111 217 1036.5 c 128,-1,18
 170 962 170 962 170 879 c 0,19,20
 170 782 170 782 219 715 c 128,-1,21
 268 648 268 648 352 592 c 1,22,-1
 352 583 l 1,23,24
 244 532 244 532 177 450 c 128,-1,25
 110 368 110 368 110 283 c 0,26,27
 110 189 110 189 157.5 119 c 128,-1,28
 205 49 205 49 285.5 11 c 128,-1,29
 366 -27 366 -27 461 -27 c 0,30,0
 596 -27 596 -27 690.5 16 c 128,-1,1
580 1095 m 128,-1,32
 620 1066 620 1066 642.5 1012.5 c 128,-1,33
 665 959 665 959 665 890 c 0,34,35
 665 744 665 744 562 686 c 1,36,37
 455 747 455 747 395.5 817.5 c 128,-1,38
 336 888 336 888 336 955 c 0,39,40
 336 998 336 998 352.5 1036.5 c 128,-1,41
 369 1075 369 1075 404 1099.5 c 128,-1,42
 439 1124 439 1124 491 1124 c 0,43,31
 540 1124 540 1124 580 1095 c 128,-1,32
452 519 m 2,44,45
 523 473 523 473 574 433.5 c 128,-1,46
 625 394 625 394 664 339.5 c 128,-1,47
 703 285 703 285 703 223 c 0,48,49
 703 178 703 178 679 140.5 c 128,-1,50
 655 103 655 103 614 82 c 128,-1,51
 573 61 573 61 526 61 c 0,52,53
 467 61 467 61 415 89 c 128,-1,54
 363 117 363 117 331 173 c 128,-1,55
 299 229 299 229 299 307 c 0,56,57
 299 372 299 372 320.5 423 c 128,-1,58
 342 474 342 474 370.5 505 c 128,-1,59
 399 536 399 536 419 541 c 1,60,-1
 452 519 l 2,44,45
EndSplineSet
Substitution2: "'onum' Oldstyle Figures lookup 5 subtable" eight.osf
Substitution2: "'aalt' Access All Alternates lookup 0 subtable" eight.osf
EndChar

StartChar: nine
Encoding: 57 57 27
Width: 982
GlyphClass: 1
Flags: W
LayerCount: 2
Fore
SplineSet
536.5 493.5 m 128,-1,1
 599 521 599 521 648 575 c 1,2,-1
 662 575 l 1,3,4
 652 440 652 440 614 342.5 c 128,-1,5
 576 245 576 245 486.5 169.5 c 128,-1,6
 397 94 397 94 240 47 c 1,7,-1
 262 -27 l 1,8,9
 447 5 447 5 586.5 116.5 c 128,-1,10
 726 228 726 228 802 396.5 c 128,-1,11
 878 565 878 565 878 764 c 0,12,13
 878 886 878 886 836 987.5 c 128,-1,14
 794 1089 794 1089 708 1150 c 128,-1,15
 622 1211 622 1211 496 1211 c 0,16,17
 399 1211 399 1211 308.5 1158.5 c 128,-1,18
 218 1106 218 1106 161 1012.5 c 128,-1,19
 104 919 104 919 104 802 c 0,20,21
 104 640 104 640 182 553 c 128,-1,22
 260 466 260 466 404 466 c 0,23,0
 474 466 474 466 536.5 493.5 c 128,-1,1
587.5 1084.5 m 128,-1,25
 629 1039 629 1039 651.5 964.5 c 128,-1,26
 674 890 674 890 674 806 c 0,27,28
 674 720 674 720 664 662 c 1,29,30
 640 624 640 624 593 599.5 c 128,-1,31
 546 575 546 575 494 575 c 0,32,33
 395 575 395 575 349.5 652.5 c 128,-1,34
 304 730 304 730 304 845 c 0,35,36
 304 989 304 989 344.5 1059.5 c 128,-1,37
 385 1130 385 1130 490 1130 c 0,38,24
 546 1130 546 1130 587.5 1084.5 c 128,-1,25
EndSplineSet
Substitution2: "'onum' Oldstyle Figures lookup 5 subtable" nine.osf
Substitution2: "'aalt' Access All Alternates lookup 0 subtable" nine.osf
EndChar

StartChar: colon
Encoding: 58 58 28
Width: 422
GlyphClass: 1
Flags: W
LayerCount: 2
Fore
SplineSet
291.5 662.5 m 128,-1,1
 325 696 325 696 325 744 c 0,2,3
 325 789 325 789 291.5 821 c 128,-1,4
 258 853 258 853 212 853 c 256,5,6
 166 853 166 853 132.5 822.5 c 128,-1,7
 99 792 99 792 99 747 c 0,8,9
 99 699 99 699 132.5 664 c 128,-1,10
 166 629 166 629 212 629 c 256,11,0
 258 629 258 629 291.5 662.5 c 128,-1,1
291.5 35 m 128,-1,13
 325 69 325 69 325 117 c 0,14,15
 325 161 325 161 291.5 192.5 c 128,-1,16
 258 224 258 224 212 224 c 256,17,18
 166 224 166 224 132.5 193.5 c 128,-1,19
 99 163 99 163 99 119 c 0,20,21
 99 71 99 71 132.5 36 c 128,-1,22
 166 1 166 1 212 1 c 256,23,12
 258 1 258 1 291.5 35 c 128,-1,13
EndSplineSet
EndChar

StartChar: semicolon
Encoding: 59 59 29
Width: 462
GlyphClass: 1
Flags: W
LayerCount: 2
Fore
SplineSet
322 660 m 128,-1,1
 356 694 356 694 356 743 c 0,2,3
 356 789 356 789 322 821 c 128,-1,4
 288 853 288 853 240 853 c 0,5,6
 193 853 193 853 159.5 821.5 c 128,-1,7
 126 790 126 790 126 744 c 0,8,9
 126 695 126 695 159 660.5 c 128,-1,10
 192 626 192 626 240 626 c 256,11,0
 288 626 288 626 322 660 c 128,-1,1
315.5 -169.5 m 128,-1,13
 372 -86 372 -86 372 6 c 0,14,15
 372 71 372 71 346.5 114.5 c 128,-1,16
 321 158 321 158 283 178.5 c 128,-1,17
 245 199 245 199 210 199 c 0,18,19
 185 199 185 199 158.5 186 c 128,-1,20
 132 173 132 173 114 147.5 c 128,-1,21
 96 122 96 122 96 87 c 0,22,23
 96 61 96 61 110 28 c 1,24,25
 114 29 114 29 121 30 c 128,-1,26
 128 31 128 31 138 31 c 0,27,28
 186 31 186 31 216 1 c 128,-1,29
 246 -29 246 -29 246 -70 c 0,30,31
 246 -120 246 -120 204.5 -163.5 c 128,-1,32
 163 -207 163 -207 77 -230 c 1,33,-1
 98 -295 l 1,34,12
 259 -253 259 -253 315.5 -169.5 c 128,-1,13
EndSplineSet
EndChar

StartChar: less
Encoding: 60 60 30
Width: 713
GlyphClass: 1
Flags: W
LayerCount: 2
Fore
SplineSet
693 -83 m 1,0,-1
 756 -13 l 1,1,-1
 296 434 l 1,2,-1
 736 900 l 1,3,-1
 680 973 l 1,4,-1
 60 472 l 1,5,-1
 59 415 l 1,6,-1
 693 -83 l 1,0,-1
EndSplineSet
EndChar

StartChar: equal
Encoding: 61 61 31
Width: 809
GlyphClass: 1
Flags: W
LayerCount: 2
Fore
SplineSet
709 559 m 1,0,-1
 721 663 l 1,1,-1
 105 663 l 1,2,-1
 95 559 l 1,3,-1
 709 559 l 1,0,-1
706 319 m 1,4,-1
 717 424 l 1,5,-1
 102 424 l 1,6,-1
 92 319 l 1,7,-1
 706 319 l 1,4,-1
EndSplineSet
EndChar

StartChar: greater
Encoding: 62 62 32
Width: 727
GlyphClass: 1
Flags: W
LayerCount: 2
Fore
SplineSet
122 -83 m 1,0,-1
 756 415 l 1,1,-1
 755 472 l 1,2,-1
 135 973 l 1,3,-1
 79 900 l 1,4,-1
 519 434 l 1,5,-1
 59 -13 l 1,6,-1
 122 -83 l 1,0,-1
EndSplineSet
EndChar

StartChar: at
Encoding: 64 64 33
Width: 1367
GlyphClass: 1
Flags: W
LayerCount: 2
Fore
SplineSet
850.5 -209.5 m 128,-1,1
 922 -191 922 -191 972 -166 c 128,-1,2
 1022 -141 1022 -141 1083 -103 c 2,3,-1
 1115 -83 l 1,4,-1
 1079 -19 l 1,5,6
 1053 -41 1053 -41 996.5 -68.5 c 128,-1,7
 940 -96 940 -96 868 -115.5 c 128,-1,8
 796 -135 796 -135 727 -135 c 0,9,10
 565 -135 565 -135 448.5 -75.5 c 128,-1,11
 332 -16 332 -16 270.5 94 c 128,-1,12
 209 204 209 204 209 351 c 0,13,14
 209 509 209 509 277 648 c 128,-1,15
 345 787 345 787 468.5 871 c 128,-1,16
 592 955 592 955 751 955 c 0,17,18
 870 955 870 955 966 907 c 128,-1,19
 1062 859 1062 859 1117.5 767.5 c 128,-1,20
 1173 676 1173 676 1173 549 c 0,21,22
 1173 448 1173 448 1139.5 360.5 c 128,-1,23
 1106 273 1106 273 1046.5 220.5 c 128,-1,24
 987 168 987 168 914 168 c 0,25,26
 886 168 886 168 886 230 c 0,27,28
 886 264 886 264 896 338 c 2,29,-1
 902 385 l 1,30,-1
 943 751 l 1,31,-1
 924 773 l 1,32,33
 854 789 854 789 758 789 c 0,34,35
 671 789 671 789 577.5 730.5 c 128,-1,36
 484 672 484 672 422 566.5 c 128,-1,37
 360 461 360 461 360 326 c 0,38,39
 360 242 360 242 383 182 c 128,-1,40
 406 122 406 122 447 90.5 c 128,-1,41
 488 59 488 59 541 59 c 0,42,43
 593 59 593 59 643 97 c 128,-1,44
 693 135 693 135 728 187 c 1,45,-1
 738 187 l 1,46,47
 736 133 736 133 759.5 101.5 c 128,-1,48
 783 70 783 70 832 70 c 0,49,50
 965 70 965 70 1073.5 142.5 c 128,-1,51
 1182 215 1182 215 1244 334.5 c 128,-1,52
 1306 454 1306 454 1306 589 c 0,53,54
 1306 722 1306 722 1235.5 826 c 128,-1,55
 1165 930 1165 930 1046 987 c 128,-1,56
 927 1044 927 1044 787 1044 c 0,57,58
 576 1044 576 1044 409 948 c 128,-1,59
 242 852 242 852 148 687.5 c 128,-1,60
 54 523 54 523 54 325 c 0,61,62
 54 135 54 135 146 10.5 c 128,-1,63
 238 -114 238 -114 383 -171 c 128,-1,64
 528 -228 528 -228 691 -228 c 0,65,0
 779 -228 779 -228 850.5 -209.5 c 128,-1,1
792 692 m 1,67,-1
 739 254 l 1,68,69
 712 222 712 222 675.5 201.5 c 128,-1,70
 639 181 639 181 601 181 c 0,71,72
 560 181 560 181 538 221.5 c 128,-1,73
 516 262 516 262 516 368 c 0,74,75
 516 447 516 447 539.5 525 c 128,-1,76
 563 603 563 603 606 653 c 128,-1,77
 649 703 649 703 704 703 c 0,78,66
 740 703 740 703 792 692 c 1,67,-1
EndSplineSet
EndChar

StartChar: A
Encoding: 65 65 34
Width: 1278
GlyphClass: 1
Flags: W
LayerCount: 2
Fore
SplineSet
442 0 m 1,0,-1
 453 80 l 1,1,-1
 267 124 l 1,2,-1
 368 432 l 1,3,-1
 787 432 l 1,4,-1
 896 129 l 1,5,-1
 725 74 l 1,6,-1
 713 0 l 1,7,-1
 1228 0 l 1,8,-1
 1237 80 l 1,9,-1
 1100 124 l 1,10,-1
 710 1268 l 1,11,-1
 559 1237 l 1,12,-1
 132 129 l 1,13,-1
 -17 74 l 1,14,-1
 -26 0 l 1,15,-1
 442 0 l 1,0,-1
592 1034 m 1,16,-1
 758 534 l 1,17,-1
 406 534 l 1,18,-1
 592 1034 l 1,16,-1
EndSplineSet
Substitution2: "Single Substitution lookup 8 subtable" ordfeminine
Substitution2: "'c2sc' Capitals to Small Capitals lookup 6 subtable" a.sc
AlternateSubs2: "'aalt' Access All Alternates lookup 1 subtable" ordfeminine a.sc
EndChar

StartChar: B
Encoding: 66 66 35
Width: 1127
GlyphClass: 1
Flags: W
LayerCount: 2
Fore
SplineSet
877 53.5 m 128,-1,1
 996 107 996 107 1048 192.5 c 128,-1,2
 1100 278 1100 278 1100 380 c 0,3,4
 1100 449 1100 449 1064 514 c 128,-1,5
 1028 579 1028 579 958 623 c 128,-1,6
 888 667 888 667 790 672 c 1,7,-1
 790 679 l 1,8,9
 898 718 898 718 947 797.5 c 128,-1,10
 996 877 996 877 996 967 c 0,11,12
 996 1046 996 1046 949.5 1112 c 128,-1,13
 903 1178 903 1178 805 1217.5 c 128,-1,14
 707 1257 707 1257 559 1257 c 0,15,16
 442 1257 442 1257 331.5 1245 c 128,-1,17
 221 1233 221 1233 67 1211 c 1,18,-1
 57 1134 l 1,19,-1
 228 1104 l 1,20,-1
 228 121 l 1,21,-1
 61 74 l 1,22,-1
 50 0 l 1,23,-1
 568 0 l 2,24,0
 758 0 758 0 877 53.5 c 128,-1,1
500 1171 m 0,26,27
 666 1171 666 1171 737 1095 c 128,-1,28
 808 1019 808 1019 808 909 c 0,29,30
 808 824 808 824 775.5 769.5 c 128,-1,31
 743 715 743 715 678 688 c 1,32,-1
 420 688 l 1,33,-1
 420 1164 l 1,34,25
 467 1171 467 1171 500 1171 c 0,26,27
643 605 m 2,35,36
 726 605 726 605 785 567.5 c 128,-1,37
 844 530 844 530 874 471 c 128,-1,38
 904 412 904 412 904 347 c 0,39,40
 904 281 904 281 873.5 223.5 c 128,-1,41
 843 166 843 166 783 131 c 128,-1,42
 723 96 723 96 640 96 c 2,43,-1
 420 96 l 1,44,-1
 420 605 l 1,45,-1
 643 605 l 2,35,36
EndSplineSet
Substitution2: "'c2sc' Capitals to Small Capitals lookup 6 subtable" b.sc
Substitution2: "'aalt' Access All Alternates lookup 0 subtable" b.sc
EndChar

StartChar: C
Encoding: 67 67 36
Width: 1111
GlyphClass: 1
Flags: W
LayerCount: 2
Fore
SplineSet
839.5 7 m 128,-1,1
 930 38 930 38 1000 85.5 c 128,-1,2
 1070 133 1070 133 1113 185 c 1,3,-1
 1078 261 l 1,4,5
 1007 196 1007 196 914.5 153.5 c 128,-1,6
 822 111 822 111 728 111 c 0,7,8
 606 111 606 111 503 174.5 c 128,-1,9
 400 238 400 238 337.5 361.5 c 128,-1,10
 275 485 275 485 275 658 c 0,11,12
 275 815 275 815 324 932 c 128,-1,13
 373 1049 373 1049 457.5 1111.5 c 128,-1,14
 542 1174 542 1174 647 1174 c 0,15,16
 739 1174 739 1174 803.5 1146 c 128,-1,17
 868 1118 868 1118 905 1070 c 1,18,-1
 947 850 l 1,19,-1
 1035 837 l 1,20,-1
 1066 1169 l 1,21,22
 998 1221 998 1221 904 1245 c 128,-1,23
 810 1269 810 1269 704 1269 c 0,24,25
 489 1269 489 1269 344 1165.5 c 128,-1,26
 199 1062 199 1062 130 905.5 c 128,-1,27
 61 749 61 749 61 589 c 0,28,29
 61 397 61 397 142.5 258 c 128,-1,30
 224 119 224 119 359 47.5 c 128,-1,31
 494 -24 494 -24 651 -24 c 0,32,0
 749 -24 749 -24 839.5 7 c 128,-1,1
EndSplineSet
Substitution2: "'c2sc' Capitals to Small Capitals lookup 6 subtable" c.sc
Substitution2: "'aalt' Access All Alternates lookup 0 subtable" c.sc
EndChar

StartChar: D
Encoding: 68 68 37
Width: 1327
GlyphClass: 1
Flags: W
LayerCount: 2
Fore
SplineSet
959 89.5 m 128,-1,1
 1131 179 1131 179 1217.5 327.5 c 128,-1,2
 1304 476 1304 476 1304 653 c 0,3,4
 1304 821 1304 821 1237 956 c 128,-1,5
 1170 1091 1170 1091 1009.5 1174.5 c 128,-1,6
 849 1258 849 1258 583 1258 c 0,7,8
 381 1258 381 1258 70 1209 c 1,9,-1
 61 1133 l 1,10,-1
 233 1103 l 1,11,-1
 233 129 l 1,12,-1
 61 74 l 1,13,-1
 47 0 l 1,14,-1
 541 0 l 2,15,0
 787 0 787 0 959 89.5 c 128,-1,1
546 1155 m 0,17,18
 724 1155 724 1155 847 1081.5 c 128,-1,19
 970 1008 970 1008 1031.5 881.5 c 128,-1,20
 1093 755 1093 755 1093 598 c 0,21,22
 1093 460 1093 460 1034.5 348 c 128,-1,23
 976 236 976 236 858 170 c 128,-1,24
 740 104 740 104 569 104 c 2,25,-1
 424 104 l 1,26,-1
 424 1151 l 1,27,16
 464 1155 464 1155 546 1155 c 0,17,18
EndSplineSet
Substitution2: "'c2sc' Capitals to Small Capitals lookup 6 subtable" d.sc
Substitution2: "'aalt' Access All Alternates lookup 0 subtable" d.sc
EndChar

StartChar: E
Encoding: 69 69 38
Width: 1075
GlyphClass: 1
Flags: W
LayerCount: 2
Fore
SplineSet
232 1126 m 1,0,-1
 232 121 l 1,1,-1
 65 74 l 1,2,-1
 57 0 l 1,3,-1
 1072 0 l 1,4,-1
 1102 313 l 1,5,-1
 1019 326 l 1,6,-1
 921 96 l 1,7,-1
 426 96 l 1,8,-1
 426 583 l 1,9,-1
 700 583 l 1,10,-1
 734 408 l 1,11,-1
 819 421 l 1,12,-1
 853 810 l 1,13,-1
 758 796 l 1,14,-1
 716 676 l 1,15,-1
 426 676 l 1,16,-1
 426 1152 l 1,17,-1
 897 1152 l 1,18,-1
 938 937 l 1,19,-1
 1025 924 l 1,20,-1
 1056 1244 l 1,21,-1
 61 1244 l 1,22,-1
 50 1168 l 1,23,-1
 232 1126 l 1,0,-1
EndSplineSet
Substitution2: "'c2sc' Capitals to Small Capitals lookup 6 subtable" e.sc
Substitution2: "'aalt' Access All Alternates lookup 0 subtable" e.sc
EndChar

StartChar: F
Encoding: 70 70 39
Width: 1028
GlyphClass: 1
Flags: W
LayerCount: 2
Fore
SplineSet
232 1126 m 1,0,-1
 232 121 l 1,1,-1
 65 74 l 1,2,-1
 57 0 l 1,3,-1
 648 0 l 1,4,-1
 661 83 l 1,5,-1
 426 122 l 1,6,-1
 426 578 l 1,7,-1
 700 578 l 1,8,-1
 730 398 l 1,9,-1
 818 412 l 1,10,-1
 845 804 l 1,11,-1
 755 790 l 1,12,-1
 713 670 l 1,13,-1
 426 670 l 1,14,-1
 426 1152 l 1,15,-1
 891 1152 l 1,16,-1
 925 936 l 1,17,-1
 1013 922 l 1,18,-1
 1054 1244 l 1,19,-1
 61 1244 l 1,20,-1
 50 1168 l 1,21,-1
 232 1126 l 1,0,-1
EndSplineSet
Substitution2: "'c2sc' Capitals to Small Capitals lookup 6 subtable" f.sc
Substitution2: "'aalt' Access All Alternates lookup 0 subtable" f.sc
EndChar

StartChar: G
Encoding: 71 71 40
Width: 1276
GlyphClass: 1
Flags: W
LayerCount: 2
Fore
SplineSet
926.5 -5 m 128,-1,1
 1042 21 1042 21 1139 79 c 1,2,-1
 1139 439 l 1,3,-1
 1263 480 l 1,4,-1
 1275 555 l 1,5,-1
 719 555 l 1,6,-1
 707 472 l 1,7,-1
 943 434 l 1,8,-1
 943 119 l 1,9,10
 915 103 915 103 869.5 90 c 128,-1,11
 824 77 824 77 771 77 c 0,12,13
 618 77 618 77 506 156 c 128,-1,14
 394 235 394 235 335 365 c 128,-1,15
 276 495 276 495 276 647 c 0,16,17
 276 823 276 823 329.5 938 c 128,-1,18
 383 1053 383 1053 473.5 1107 c 128,-1,19
 564 1161 564 1161 677 1161 c 0,20,21
 789 1161 789 1161 868.5 1126.5 c 128,-1,22
 948 1092 948 1092 992 1047 c 1,23,-1
 1028 856 l 1,24,-1
 1115 841 l 1,25,-1
 1139 1163 l 1,26,27
 1066 1209 1066 1209 963 1234.5 c 128,-1,28
 860 1260 860 1260 737 1260 c 0,29,30
 563 1260 563 1260 407.5 1177 c 128,-1,31
 252 1094 252 1094 156.5 939 c 128,-1,32
 61 784 61 784 61 578 c 0,33,34
 61 403 61 403 128 265.5 c 128,-1,35
 195 128 195 128 329 48.5 c 128,-1,36
 463 -31 463 -31 658 -31 c 0,37,0
 811 -31 811 -31 926.5 -5 c 128,-1,1
EndSplineSet
Substitution2: "'c2sc' Capitals to Small Capitals lookup 6 subtable" g.sc
Substitution2: "'aalt' Access All Alternates lookup 0 subtable" g.sc
EndChar

StartChar: H
Encoding: 72 72 41
Width: 1416
GlyphClass: 1
Flags: W
LayerCount: 2
Fore
SplineSet
232 1126 m 1,0,-1
 232 121 l 1,1,-1
 65 74 l 1,2,-1
 57 0 l 1,3,-1
 598 0 l 1,4,-1
 611 80 l 1,5,-1
 427 114 l 1,6,-1
 427 589 l 1,7,-1
 1054 589 l 1,8,-1
 1054 121 l 1,9,-1
 888 74 l 1,10,-1
 878 0 l 1,11,-1
 1421 0 l 1,12,-1
 1431 80 l 1,13,-1
 1249 114 l 1,14,-1
 1249 1130 l 1,15,-1
 1416 1168 l 1,16,-1
 1428 1244 l 1,17,-1
 882 1244 l 1,18,-1
 871 1168 l 1,19,-1
 1054 1126 l 1,20,-1
 1054 692 l 1,21,-1
 427 692 l 1,22,-1
 427 1130 l 1,23,-1
 595 1168 l 1,24,-1
 605 1244 l 1,25,-1
 61 1244 l 1,26,-1
 50 1168 l 1,27,-1
 232 1126 l 1,0,-1
EndSplineSet
Substitution2: "'c2sc' Capitals to Small Capitals lookup 6 subtable" h.sc
Substitution2: "'aalt' Access All Alternates lookup 0 subtable" h.sc
EndChar

StartChar: I
Encoding: 73 73 42
Width: 601
GlyphClass: 1
Flags: W
LayerCount: 2
Fore
SplineSet
232 1126 m 1,0,-1
 232 121 l 1,1,-1
 65 74 l 1,2,-1
 57 0 l 1,3,-1
 597 0 l 1,4,-1
 607 80 l 1,5,-1
 426 114 l 1,6,-1
 426 1130 l 1,7,-1
 595 1168 l 1,8,-1
 605 1244 l 1,9,-1
 61 1244 l 1,10,-1
 50 1168 l 1,11,-1
 232 1126 l 1,0,-1
EndSplineSet
Substitution2: "'c2sc' Capitals to Small Capitals lookup 6 subtable" i.sc
Substitution2: "'aalt' Access All Alternates lookup 0 subtable" i.sc
EndChar

StartChar: J
Encoding: 74 74 43
Width: 592
GlyphClass: 1
Flags: W
LayerCount: 2
Fore
SplineSet
282 -142 m 128,-1,1
 359 -59 359 -59 392.5 60.5 c 128,-1,2
 426 180 426 180 427 385 c 2,3,-1
 427 1130 l 1,4,-1
 597 1168 l 1,5,-1
 607 1244 l 1,6,-1
 62 1244 l 1,7,-1
 52 1168 l 1,8,-1
 233 1126 l 1,9,-1
 233 197 l 2,10,11
 233 81 233 81 175.5 -20.5 c 128,-1,12
 118 -122 118 -122 -4 -237 c 1,13,-1
 50 -326 l 1,14,0
 205 -225 205 -225 282 -142 c 128,-1,1
EndSplineSet
Substitution2: "'c2sc' Capitals to Small Capitals lookup 6 subtable" j.sc
Substitution2: "'aalt' Access All Alternates lookup 0 subtable" j.sc
EndChar

StartChar: K
Encoding: 75 75 44
Width: 1228
GlyphClass: 1
Flags: W
LayerCount: 2
Fore
SplineSet
236 1117 m 1,0,-1
 236 129 l 1,1,-1
 64 74 l 1,2,-1
 54 0 l 1,3,-1
 607 0 l 1,4,-1
 618 80 l 1,5,-1
 429 124 l 1,6,-1
 429 1121 l 1,7,-1
 601 1168 l 1,8,-1
 611 1244 l 1,9,-1
 61 1244 l 1,10,-1
 47 1168 l 1,11,-1
 236 1117 l 1,0,-1
706 261 m 2,12,13
 804 126 804 126 899 52.5 c 128,-1,14
 994 -21 994 -21 1109 -21 c 0,15,16
 1177 -21 1177 -21 1240 1 c 1,17,-1
 1250 70 l 1,18,-1
 1213 83 l 2,19,20
 1151 102 1151 102 1101 137.5 c 128,-1,21
 1051 173 1051 173 1001.5 226 c 128,-1,22
 952 279 952 279 862 385 c 2,23,-1
 635 653 l 1,24,-1
 1008 1121 l 1,25,-1
 1185 1168 l 1,26,-1
 1197 1244 l 1,27,-1
 704 1244 l 1,28,-1
 696 1168 l 1,29,-1
 851 1121 l 1,30,-1
 605 798 l 2,31,32
 583 770 583 770 529.5 709.5 c 128,-1,33
 476 649 476 649 453 626 c 1,34,-1
 454 605 l 1,35,-1
 706 261 l 2,12,13
EndSplineSet
Substitution2: "'c2sc' Capitals to Small Capitals lookup 6 subtable" k.sc
Substitution2: "'aalt' Access All Alternates lookup 0 subtable" k.sc
EndChar

StartChar: L
Encoding: 76 76 45
Width: 1065
GlyphClass: 1
Flags: W
LayerCount: 2
Fore
SplineSet
1048 0 m 1,0,-1
 1085 331 l 1,1,-1
 1000 344 l 1,2,-1
 869 96 l 1,3,-1
 427 96 l 1,4,-1
 427 1121 l 1,5,-1
 598 1168 l 1,6,-1
 608 1244 l 1,7,-1
 58 1244 l 1,8,-1
 45 1168 l 1,9,-1
 233 1117 l 1,10,-1
 233 121 l 1,11,-1
 67 74 l 1,12,-1
 58 0 l 1,13,-1
 1048 0 l 1,0,-1
EndSplineSet
Substitution2: "'c2sc' Capitals to Small Capitals lookup 6 subtable" l.sc
Substitution2: "'aalt' Access All Alternates lookup 0 subtable" l.sc
EndChar

StartChar: M
Encoding: 77 77 46
Width: 1664
GlyphClass: 1
Flags: W
LayerCount: 2
Fore
SplineSet
504 0 m 1,0,-1
 517 80 l 1,1,-1
 334 114 l 1,2,-1
 397 967 l 1,3,-1
 740 31 l 1,4,-1
 868 50 l 1,5,-1
 1249 1004 l 1,6,-1
 1305 121 l 1,7,-1
 1139 74 l 1,8,-1
 1128 0 l 1,9,-1
 1664 0 l 1,10,-1
 1674 80 l 1,11,-1
 1492 114 l 1,12,-1
 1440 1130 l 1,13,-1
 1608 1168 l 1,14,-1
 1618 1244 l 1,15,-1
 1223 1244 l 1,16,-1
 1152 1083 l 1,17,-1
 845 313 l 1,18,-1
 583 1050 l 1,19,-1
 505 1244 l 1,20,-1
 102 1244 l 1,21,-1
 92 1168 l 1,22,-1
 275 1126 l 1,23,-1
 202 121 l 1,24,-1
 35 74 l 1,25,-1
 24 0 l 1,26,-1
 504 0 l 1,0,-1
EndSplineSet
Substitution2: "'c2sc' Capitals to Small Capitals lookup 6 subtable" m.sc
Substitution2: "'aalt' Access All Alternates lookup 0 subtable" m.sc
EndChar

StartChar: N
Encoding: 78 78 47
Width: 1337
GlyphClass: 1
Flags: W
LayerCount: 2
Fore
SplineSet
232 1117 m 1,0,-1
 232 121 l 1,1,-1
 65 74 l 1,2,-1
 57 0 l 1,3,-1
 532 0 l 1,4,-1
 543 80 l 1,5,-1
 360 114 l 1,6,-1
 360 961 l 1,7,-1
 1023 -30 l 1,8,-1
 1176 1 l 1,9,-1
 1176 1130 l 1,10,-1
 1343 1168 l 1,11,-1
 1356 1244 l 1,12,-1
 881 1244 l 1,13,-1
 869 1168 l 1,14,-1
 1054 1126 l 1,15,-1
 1054 274 l 1,16,-1
 411 1244 l 1,17,-1
 61 1244 l 1,18,-1
 50 1168 l 1,19,-1
 232 1117 l 1,0,-1
EndSplineSet
Substitution2: "'c2sc' Capitals to Small Capitals lookup 6 subtable" n.sc
Substitution2: "'aalt' Access All Alternates lookup 0 subtable" n.sc
EndChar

StartChar: O
Encoding: 79 79 48
Width: 1322
GlyphClass: 1
Flags: W
LayerCount: 2
Fore
SplineSet
983 61 m 128,-1,1
 1130 149 1130 149 1207 296.5 c 128,-1,2
 1284 444 1284 444 1284 619 c 0,3,4
 1284 796 1284 796 1214 945.5 c 128,-1,5
 1144 1095 1144 1095 1012.5 1183.5 c 128,-1,6
 881 1272 881 1272 706 1272 c 0,7,8
 510 1272 510 1272 364 1189.5 c 128,-1,9
 218 1107 218 1107 139.5 959 c 128,-1,10
 61 811 61 811 61 619 c 0,11,12
 61 439 61 439 133 291.5 c 128,-1,13
 205 144 205 144 336 58.5 c 128,-1,14
 467 -27 467 -27 636 -27 c 0,15,0
 836 -27 836 -27 983 61 c 128,-1,1
885 1088 m 128,-1,17
 976 1000 976 1000 1019 862 c 128,-1,18
 1062 724 1062 724 1062 573 c 0,19,20
 1062 358 1062 358 978 218.5 c 128,-1,21
 894 79 894 79 686 79 c 0,22,23
 549 79 549 79 458.5 163.5 c 128,-1,24
 368 248 368 248 325.5 384 c 128,-1,25
 283 520 283 520 283 676 c 0,26,27
 283 1176 283 1176 658 1176 c 0,28,16
 794 1176 794 1176 885 1088 c 128,-1,17
EndSplineSet
Substitution2: "Single Substitution lookup 8 subtable" ordmasculine
Substitution2: "'c2sc' Capitals to Small Capitals lookup 6 subtable" o.sc
AlternateSubs2: "'aalt' Access All Alternates lookup 1 subtable" ordmasculine o.sc
EndChar

StartChar: P
Encoding: 80 80 49
Width: 1009
GlyphClass: 1
Flags: W
LayerCount: 2
Fore
SplineSet
657 83 m 1,0,-1
 420 122 l 1,1,-1
 420 1166 l 1,2,3
 430 1167 430 1167 463.5 1169.5 c 128,-1,4
 497 1172 497 1172 522 1172 c 0,5,6
 683 1172 683 1172 760.5 1083.5 c 128,-1,7
 838 995 838 995 838 856 c 0,8,9
 838 722 838 722 759 653.5 c 128,-1,10
 680 585 680 585 519 581 c 2,11,-1
 466 580 l 1,12,-1
 484 497 l 1,13,-1
 513 496 l 2,14,15
 557 494 557 494 584 494 c 0,16,17
 706 494 706 494 812 544.5 c 128,-1,18
 918 595 918 595 981.5 686 c 128,-1,19
 1045 777 1045 777 1045 892 c 0,20,21
 1045 1094 1045 1094 907 1174.5 c 128,-1,22
 769 1255 769 1255 543 1255 c 0,23,24
 430 1255 430 1255 316 1243 c 128,-1,25
 202 1231 202 1231 67 1211 c 1,26,-1
 57 1134 l 1,27,-1
 228 1104 l 1,28,-1
 228 121 l 1,29,-1
 61 74 l 1,30,-1
 50 0 l 1,31,-1
 643 0 l 1,32,-1
 657 83 l 1,0,-1
EndSplineSet
Substitution2: "'c2sc' Capitals to Small Capitals lookup 6 subtable" p.sc
Substitution2: "'aalt' Access All Alternates lookup 0 subtable" p.sc
EndChar

StartChar: Q
Encoding: 81 81 50
Width: 1334
GlyphClass: 1
Flags: W
LayerCount: 2
Fore
SplineSet
674.5 -25 m 128,-1,1
 696 -23 696 -23 703 -21 c 1,2,3
 712 -132 712 -132 763 -214.5 c 128,-1,4
 814 -297 814 -297 894 -341 c 128,-1,5
 974 -385 974 -385 1065 -385 c 0,6,7
 1115 -385 1115 -385 1157 -378 c 128,-1,8
 1199 -371 1199 -371 1241 -351 c 1,9,10
 1245 -338 1245 -338 1247.5 -316.5 c 128,-1,11
 1250 -295 1250 -295 1250 -275 c 1,12,13
 1111 -252 1111 -252 1027 -215.5 c 128,-1,14
 943 -179 943 -179 896.5 -129.5 c 128,-1,15
 850 -80 850 -80 818 -6 c 1,16,17
 966 30 966 30 1075 124 c 128,-1,18
 1184 218 1184 218 1241.5 349.5 c 128,-1,19
 1299 481 1299 481 1299 629 c 0,20,21
 1299 806 1299 806 1228 952.5 c 128,-1,22
 1157 1099 1157 1099 1026 1185.5 c 128,-1,23
 895 1272 895 1272 721 1272 c 0,24,25
 526 1272 526 1272 376 1187 c 128,-1,26
 226 1102 226 1102 143.5 951 c 128,-1,27
 61 800 61 800 61 608 c 0,28,29
 61 428 61 428 133.5 283 c 128,-1,30
 206 138 206 138 337.5 55.5 c 128,-1,31
 469 -27 469 -27 638 -27 c 0,32,0
 653 -27 653 -27 674.5 -25 c 128,-1,1
888 1080.5 m 128,-1,34
 986 993 986 993 1039 853 c 128,-1,35
 1092 713 1092 713 1092 563 c 0,36,37
 1092 373 1092 373 1015 243.5 c 128,-1,38
 938 114 938 114 749 67 c 1,39,40
 572 77 572 77 463 173.5 c 128,-1,41
 354 270 354 270 308.5 406 c 128,-1,42
 263 542 263 542 263 679 c 0,43,44
 263 833 263 833 311 943 c 128,-1,45
 359 1053 359 1053 449 1110.5 c 128,-1,46
 539 1168 539 1168 664 1168 c 0,47,33
 790 1168 790 1168 888 1080.5 c 128,-1,34
EndSplineSet
Substitution2: "'c2sc' Capitals to Small Capitals lookup 6 subtable" q.sc
Substitution2: "'aalt' Access All Alternates lookup 0 subtable" q.sc
EndChar

StartChar: R
Encoding: 82 82 51
Width: 1213
GlyphClass: 1
Flags: W
LayerCount: 2
Fore
SplineSet
608 83 m 1,0,-1
 420 126 l 1,1,-1
 420 537 l 1,2,-1
 594 537 l 1,3,-1
 753 253 l 2,4,5
 825 124 825 124 911.5 51.5 c 128,-1,6
 998 -21 998 -21 1109 -21 c 0,7,8
 1172 -21 1172 -21 1229 -1 c 1,9,-1
 1244 67 l 1,10,-1
 1211 77 l 2,11,12
 1151 95 1151 95 1108 126.5 c 128,-1,13
 1065 158 1065 158 1027 204 c 128,-1,14
 989 250 989 250 918 349 c 2,15,-1
 738 598 l 1,16,-1
 738 599 l 1,17,18
 829 631 829 631 893.5 687 c 128,-1,19
 958 743 958 743 991.5 810 c 128,-1,20
 1025 877 1025 877 1025 943 c 0,21,22
 1025 1109 1025 1109 893.5 1181 c 128,-1,23
 762 1253 762 1253 523 1253 c 0,24,25
 423 1253 423 1253 314 1241 c 128,-1,26
 205 1229 205 1229 67 1207 c 1,27,-1
 57 1130 l 1,28,-1
 228 1100 l 1,29,-1
 228 121 l 1,30,-1
 61 74 l 1,31,-1
 50 0 l 1,32,-1
 598 0 l 1,33,-1
 608 83 l 1,0,-1
462.5 1167 m 128,-1,35
 496 1169 496 1169 540 1169 c 0,36,37
 627 1169 627 1169 689.5 1133 c 128,-1,38
 752 1097 752 1097 785 1033 c 128,-1,39
 818 969 818 969 818 887 c 0,40,41
 818 788 818 788 760 722 c 128,-1,42
 702 656 702 656 618 628 c 1,43,-1
 420 628 l 1,44,-1
 420 1164 l 1,45,34
 429 1165 429 1165 462.5 1167 c 128,-1,35
EndSplineSet
Substitution2: "'c2sc' Capitals to Small Capitals lookup 6 subtable" r.sc
Substitution2: "'aalt' Access All Alternates lookup 0 subtable" r.sc
EndChar

StartChar: S
Encoding: 83 83 52
Width: 863
GlyphClass: 1
Flags: W
LayerCount: 2
Fore
SplineSet
619.5 23.5 m 128,-1,1
 722 71 722 71 784.5 158 c 128,-1,2
 847 245 847 245 847 357 c 0,3,4
 847 437 847 437 806 496 c 128,-1,5
 765 555 765 555 706 595.5 c 128,-1,6
 647 636 647 636 547 689 c 0,7,8
 451 741 451 741 395.5 778 c 128,-1,9
 340 815 340 815 301.5 869 c 128,-1,10
 263 923 263 923 263 995 c 0,11,12
 263 1089 263 1089 314 1137 c 128,-1,13
 365 1185 365 1185 445 1185 c 0,14,15
 482 1185 482 1185 518 1169.5 c 128,-1,16
 554 1154 554 1154 579.5 1131.5 c 128,-1,17
 605 1109 605 1109 615 1090 c 1,18,-1
 640 899 l 1,19,-1
 739 887 l 1,20,21
 742 930 742 930 750 1026 c 128,-1,22
 758 1122 758 1122 761 1169 c 1,23,24
 641 1269 641 1269 479 1269 c 0,25,26
 378 1269 378 1269 289 1227 c 128,-1,27
 200 1185 200 1185 145 1105 c 128,-1,28
 90 1025 90 1025 90 916 c 0,29,30
 90 822 90 822 135.5 753 c 128,-1,31
 181 684 181 684 245.5 639.5 c 128,-1,32
 310 595 310 595 415 539 c 0,33,34
 500 493 500 493 548.5 461 c 128,-1,35
 597 429 597 429 630 385.5 c 128,-1,36
 663 342 663 342 663 287 c 0,37,38
 663 217 663 217 627.5 170 c 128,-1,39
 592 123 592 123 537.5 100 c 128,-1,40
 483 77 483 77 426 77 c 0,41,42
 360 77 360 77 304.5 106 c 128,-1,43
 249 135 249 135 220 177 c 1,44,-1
 181 365 l 1,45,-1
 79 379 l 1,46,-1
 66 92 l 1,47,48
 117 42 117 42 207.5 9 c 128,-1,49
 298 -24 298 -24 402 -24 c 0,50,0
 517 -24 517 -24 619.5 23.5 c 128,-1,1
EndSplineSet
Substitution2: "'c2sc' Capitals to Small Capitals lookup 6 subtable" s.sc
Substitution2: "'aalt' Access All Alternates lookup 0 subtable" s.sc
EndChar

StartChar: T
Encoding: 84 84 53
Width: 1119
GlyphClass: 1
Flags: W
LayerCount: 2
Fore
SplineSet
31 922 m 1,0,-1
 122 909 l 1,1,-1
 175 1152 l 1,2,-1
 470 1152 l 1,3,-1
 470 121 l 1,4,-1
 301 74 l 1,5,-1
 294 0 l 1,6,-1
 833 0 l 1,7,-1
 847 80 l 1,8,-1
 662 114 l 1,9,-1
 662 1152 l 1,10,-1
 967 1152 l 1,11,-1
 1005 921 l 1,12,-1
 1100 906 l 1,13,-1
 1134 1244 l 1,14,-1
 23 1244 l 1,15,-1
 31 922 l 1,0,-1
EndSplineSet
Substitution2: "'c2sc' Capitals to Small Capitals lookup 6 subtable" t.sc
Substitution2: "'aalt' Access All Alternates lookup 0 subtable" t.sc
EndChar

StartChar: U
Encoding: 85 85 54
Width: 1369
GlyphClass: 1
Flags: W
LayerCount: 2
Fore
SplineSet
206 469 m 2,0,1
 206 184 206 184 344.5 78.5 c 128,-1,2
 483 -27 483 -27 697 -27 c 0,3,4
 954 -27 954 -27 1075 107 c 128,-1,5
 1196 241 1196 241 1198 515 c 2,6,-1
 1203 1130 l 1,7,-1
 1369 1168 l 1,8,-1
 1380 1244 l 1,9,-1
 902 1244 l 1,10,-1
 892 1168 l 1,11,-1
 1075 1126 l 1,12,-1
 1072 482 l 2,13,14
 1071 291 1071 291 987 198 c 128,-1,15
 903 105 903 105 747 105 c 0,16,17
 586 105 586 105 492.5 204.5 c 128,-1,18
 399 304 399 304 399 510 c 2,19,-1
 399 1130 l 1,20,-1
 568 1168 l 1,21,-1
 577 1244 l 1,22,-1
 35 1244 l 1,23,-1
 22 1168 l 1,24,-1
 206 1126 l 1,25,-1
 206 469 l 2,0,1
EndSplineSet
Substitution2: "'c2sc' Capitals to Small Capitals lookup 6 subtable" u.sc
Substitution2: "'aalt' Access All Alternates lookup 0 subtable" u.sc
EndChar

StartChar: V
Encoding: 86 86 55
Width: 1284
GlyphClass: 1
Flags: W
LayerCount: 2
Fore
SplineSet
126 1126 m 1,0,-1
 544 -24 l 1,1,-1
 696 4 l 1,2,-1
 1121 1130 l 1,3,-1
 1253 1168 l 1,4,-1
 1260 1244 l 1,5,-1
 805 1244 l 1,6,-1
 798 1168 l 1,7,-1
 980 1126 l 1,8,-1
 660 251 l 1,9,-1
 347 1130 l 1,10,-1
 517 1168 l 1,11,-1
 527 1244 l 1,12,-1
 -11 1244 l 1,13,-1
 -21 1168 l 1,14,-1
 126 1126 l 1,0,-1
EndSplineSet
Substitution2: "'c2sc' Capitals to Small Capitals lookup 6 subtable" v.sc
Substitution2: "'aalt' Access All Alternates lookup 0 subtable" v.sc
EndChar

StartChar: W
Encoding: 87 87 56
Width: 1844
GlyphClass: 1
Flags: W
LayerCount: 2
Fore
SplineSet
129 1126 m 1,0,-1
 454 -24 l 1,1,-1
 617 4 l 1,2,-1
 902 951 l 1,3,-1
 1164 -24 l 1,4,-1
 1318 4 l 1,5,-1
 1683 1130 l 1,6,-1
 1806 1168 l 1,7,-1
 1817 1244 l 1,8,-1
 1368 1244 l 1,9,-1
 1357 1168 l 1,10,-1
 1538 1126 l 1,11,-1
 1277 287 l 1,12,-1
 1029 1219 l 1,13,-1
 853 1194 l 1,14,-1
 572 271 l 1,15,-1
 330 1130 l 1,16,-1
 497 1168 l 1,17,-1
 512 1244 l 1,18,-1
 -2 1244 l 1,19,-1
 -11 1168 l 1,20,-1
 129 1126 l 1,0,-1
EndSplineSet
Substitution2: "'c2sc' Capitals to Small Capitals lookup 6 subtable" w.sc
Substitution2: "'aalt' Access All Alternates lookup 0 subtable" w.sc
EndChar

StartChar: X
Encoding: 88 88 57
Width: 1202
GlyphClass: 1
Flags: W
LayerCount: 2
Fore
SplineSet
439 0 m 1,0,-1
 454 83 l 1,1,-1
 288 117 l 1,2,-1
 580 529 l 1,3,-1
 842 121 l 1,4,-1
 682 74 l 1,5,-1
 669 0 l 1,6,-1
 1172 0 l 1,7,-1
 1185 80 l 1,8,-1
 1050 114 l 1,9,-1
 709 657 l 1,10,-1
 1047 1130 l 1,11,-1
 1174 1168 l 1,12,-1
 1182 1244 l 1,13,-1
 747 1244 l 1,14,-1
 734 1166 l 1,15,-1
 904 1126 l 1,16,-1
 633 750 l 1,17,-1
 386 1121 l 1,18,-1
 543 1166 l 1,19,-1
 553 1244 l 1,20,-1
 40 1244 l 1,21,-1
 28 1166 l 1,22,-1
 165 1123 l 1,23,-1
 504 615 l 1,24,-1
 138 121 l 1,25,-1
 11 76 l 1,26,-1
 -1 0 l 1,27,-1
 439 0 l 1,0,-1
EndSplineSet
Substitution2: "'c2sc' Capitals to Small Capitals lookup 6 subtable" x.sc
Substitution2: "'aalt' Access All Alternates lookup 0 subtable" x.sc
EndChar

StartChar: Y
Encoding: 89 89 58
Width: 1210
GlyphClass: 1
Flags: W
LayerCount: 2
Fore
SplineSet
117 1126 m 1,0,-1
 470 504 l 1,1,-1
 470 121 l 1,2,-1
 320 74 l 1,3,-1
 310 0 l 1,4,-1
 816 0 l 1,5,-1
 826 80 l 1,6,-1
 663 114 l 1,7,-1
 663 529 l 1,8,-1
 1008 1130 l 1,9,-1
 1133 1168 l 1,10,-1
 1143 1244 l 1,11,-1
 698 1244 l 1,12,-1
 688 1168 l 1,13,-1
 871 1126 l 1,14,-1
 607 640 l 1,15,-1
 330 1130 l 1,16,-1
 488 1168 l 1,17,-1
 500 1244 l 1,18,-1
 -8 1244 l 1,19,-1
 -21 1168 l 1,20,-1
 117 1126 l 1,0,-1
EndSplineSet
Substitution2: "'c2sc' Capitals to Small Capitals lookup 6 subtable" y.sc
Substitution2: "'aalt' Access All Alternates lookup 0 subtable" y.sc
EndChar

StartChar: Z
Encoding: 90 90 59
Width: 1009
GlyphClass: 1
Flags: W
LayerCount: 2
Fore
SplineSet
55 0 m 1,0,-1
 991 0 l 1,1,-1
 1048 335 l 1,2,-1
 955 351 l 1,3,-1
 832 100 l 1,4,-1
 262 100 l 1,5,-1
 1026 1168 l 1,6,-1
 1026 1244 l 1,7,-1
 98 1244 l 1,8,-1
 88 921 l 1,9,-1
 178 903 l 1,10,-1
 255 1149 l 1,11,-1
 792 1149 l 1,12,-1
 47 104 l 1,13,-1
 55 0 l 1,0,-1
EndSplineSet
Substitution2: "'c2sc' Capitals to Small Capitals lookup 6 subtable" z.sc
Substitution2: "'aalt' Access All Alternates lookup 0 subtable" z.sc
EndChar

StartChar: bracketleft
Encoding: 91 91 60
Width: 474
GlyphClass: 1
Flags: W
LayerCount: 2
Fore
SplineSet
466 -375 m 1,0,-1
 476 -279 l 1,1,-1
 260 -260 l 1,2,-1
 260 1146 l 1,3,-1
 474 1166 l 1,4,-1
 463 1255 l 1,5,-1
 109 1255 l 1,6,-1
 109 -376 l 1,7,-1
 466 -375 l 1,0,-1
EndSplineSet
EndChar

StartChar: backslash
Encoding: 92 92 61
Width: 677
GlyphClass: 1
Flags: W
LayerCount: 2
Fore
SplineSet
504 -368 m 1,0,-1
 632 -376 l 1,1,-1
 171 1266 l 1,2,-1
 37 1274 l 1,3,-1
 504 -368 l 1,0,-1
EndSplineSet
EndChar

StartChar: bracketright
Encoding: 93 93 62
Width: 474
GlyphClass: 1
Flags: W
LayerCount: 2
Fore
SplineSet
10 -375 m 1,0,-1
 368 -376 l 1,1,-1
 366 1255 l 1,2,-1
 13 1255 l 1,3,-1
 1 1166 l 1,4,-1
 217 1146 l 1,5,-1
 217 -260 l 1,6,-1
 0 -279 l 1,7,-1
 10 -375 l 1,0,-1
EndSplineSet
EndChar

StartChar: asciicircum
Encoding: 94 94 63
Width: 720
GlyphClass: 1
Flags: W
LayerCount: 2
Fore
SplineSet
92 793 m 1,0,-1
 343 1073 l 1,1,-1
 353 1073 l 1,2,-1
 624 787 l 1,3,-1
 681 824 l 1,4,-1
 386 1250 l 1,5,-1
 331 1237 l 1,6,-1
 42 826 l 1,7,-1
 92 793 l 1,0,-1
EndSplineSet
EndChar

StartChar: underscore
Encoding: 95 95 64
Width: 838
GlyphClass: 1
Flags: W
LayerCount: 2
Fore
SplineSet
828 -132 m 1,0,-1
 839 -27 l 1,1,-1
 11 -27 l 1,2,-1
 -1 -132 l 1,3,-1
 828 -132 l 1,0,-1
EndSplineSet
EndChar

StartChar: grave
Encoding: 96 96 65
Width: 535
GlyphClass: 1
Flags: W
LayerCount: 2
Fore
SplineSet
313 1329 m 1,0,-1
 369 1364 l 1,1,-1
 237 1697 l 1,2,-1
 122 1659 l 1,3,-1
 313 1329 l 1,0,-1
EndSplineSet
EndChar

StartChar: a
Encoding: 97 97 66
Width: 830
GlyphClass: 1
Flags: W
LayerCount: 2
Fore
SplineSet
419.5 25.5 m 128,-1,1
 488 75 488 75 517 131 c 1,2,-1
 528 131 l 1,3,-1
 528 116 l 2,4,5
 528 83 528 83 543.5 52.5 c 128,-1,6
 559 22 559 22 594 2 c 128,-1,7
 629 -18 629 -18 683 -18 c 0,8,9
 725 -18 725 -18 773 -7 c 0,10,11
 804 -1 804 -1 819 1 c 1,12,-1
 832 87 l 1,13,-1
 782 96 l 2,14,15
 735 104 735 104 711.5 117.5 c 128,-1,16
 688 131 688 131 679 156.5 c 128,-1,17
 670 182 670 182 670 230 c 2,18,-1
 670 593 l 2,19,20
 670 753 670 753 612.5 826.5 c 128,-1,21
 555 900 555 900 423 900 c 0,22,23
 353 900 353 900 272 871 c 128,-1,24
 191 842 191 842 136 794.5 c 128,-1,25
 81 747 81 747 81 695 c 0,26,27
 81 630 81 630 121 611 c 128,-1,28
 161 592 161 592 220 592 c 1,29,30
 229 693 229 693 235.5 731 c 128,-1,31
 242 769 242 769 263 788 c 128,-1,32
 284 807 284 807 331 807 c 0,33,34
 426 807 426 807 467 731.5 c 128,-1,35
 508 656 508 656 508 540 c 2,36,-1
 508 485 l 1,37,38
 352 474 352 474 248.5 427.5 c 128,-1,39
 145 381 145 381 96 313 c 128,-1,40
 47 245 47 245 47 168 c 0,41,42
 47 109 47 109 73.5 65.5 c 128,-1,43
 100 22 100 22 145 -1 c 128,-1,44
 190 -24 190 -24 243 -24 c 0,45,0
 351 -24 351 -24 419.5 25.5 c 128,-1,1
508 188 m 1,46,47
 478 155 478 155 430 127 c 128,-1,48
 382 99 382 99 334 99 c 0,49,50
 299 99 299 99 273.5 117 c 128,-1,51
 248 135 248 135 235 162 c 128,-1,52
 222 189 222 189 222 215 c 0,53,54
 222 292 222 292 287 344.5 c 128,-1,55
 352 397 352 397 508 428 c 1,56,-1
 508 188 l 1,46,47
EndSplineSet
Substitution2: "Single Substitution lookup 8 subtable" ordfeminine
Substitution2: "'smcp' Lowercase to Small Capitals lookup 7 subtable" a.sc
AlternateSubs2: "'aalt' Access All Alternates lookup 1 subtable" ordfeminine a.sc
EndChar

StartChar: b
Encoding: 98 98 67
Width: 955
GlyphClass: 1
Flags: W
LayerCount: 2
Fore
SplineSet
136 49 m 1,0,1
 193 13 193 13 266 -5 c 128,-1,2
 339 -23 339 -23 411 -23 c 0,3,4
 543 -23 543 -23 656 36 c 128,-1,5
 769 95 769 95 836.5 207 c 128,-1,6
 904 319 904 319 904 472 c 0,7,8
 904 597 904 597 863.5 694 c 128,-1,9
 823 791 823 791 750 845 c 128,-1,10
 677 899 677 899 581 899 c 0,11,12
 501 899 501 899 431 858 c 128,-1,13
 361 817 361 817 296 744 c 1,14,-1
 285 744 l 1,15,-1
 299 849 l 1,16,-1
 299 1265 l 1,17,-1
 275 1288 l 1,18,-1
 -2 1267 l 1,19,-1
 -15 1191 l 1,20,-1
 136 1138 l 1,21,-1
 136 49 l 1,0,1
513 768 m 0,23,24
 593 768 593 768 640 712.5 c 128,-1,25
 687 657 687 657 706 575.5 c 128,-1,26
 725 494 725 494 725 408 c 0,27,28
 725 301 725 301 696 229 c 128,-1,29
 667 157 667 157 618 122 c 128,-1,30
 569 87 569 87 510 87 c 0,31,32
 445 87 445 87 387 106 c 128,-1,33
 329 125 329 125 299 155 c 1,34,-1
 299 672 l 1,35,22
 390 768 390 768 513 768 c 0,23,24
EndSplineSet
Substitution2: "'smcp' Lowercase to Small Capitals lookup 7 subtable" b.sc
Substitution2: "'aalt' Access All Alternates lookup 0 subtable" b.sc
EndChar

StartChar: c
Encoding: 99 99 68
Width: 778
GlyphClass: 1
Flags: W
LayerCount: 2
Fore
SplineSet
625.5 6.5 m 128,-1,1
 713 43 713 43 755 93 c 1,2,-1
 730 151 l 1,3,4
 685 122 685 122 640 106 c 128,-1,5
 595 90 595 90 528 90 c 0,6,7
 431 90 431 90 364 156 c 128,-1,8
 297 222 297 222 264 319 c 128,-1,9
 231 416 231 416 231 507 c 0,10,11
 231 597 231 597 255.5 664.5 c 128,-1,12
 280 732 280 732 324.5 769 c 128,-1,13
 369 806 369 806 428 806 c 0,14,15
 486 806 486 806 522.5 759.5 c 128,-1,16
 559 713 559 713 589 642 c 1,17,18
 650 646 650 646 683 674 c 128,-1,19
 716 702 716 702 716 747 c 0,20,21
 716 788 716 788 689.5 823 c 128,-1,22
 663 858 663 858 609 879 c 128,-1,23
 555 900 555 900 475 900 c 0,24,25
 365 900 365 900 267.5 839.5 c 128,-1,26
 170 779 170 779 110 668.5 c 128,-1,27
 50 558 50 558 50 415 c 0,28,29
 50 295 50 295 99 193 c 128,-1,30
 148 91 148 91 238 30.5 c 128,-1,31
 328 -30 328 -30 445 -30 c 0,32,0
 538 -30 538 -30 625.5 6.5 c 128,-1,1
EndSplineSet
Substitution2: "'smcp' Lowercase to Small Capitals lookup 7 subtable" c.sc
Substitution2: "'aalt' Access All Alternates lookup 0 subtable" c.sc
EndChar

StartChar: d
Encoding: 100 100 69
Width: 987
GlyphClass: 1
Flags: W
LayerCount: 2
Fore
SplineSet
541 21 m 128,-1,1
 607 63 607 63 657 131 c 1,2,-1
 666 131 l 1,3,-1
 666 124 l 2,4,5
 666 59 666 59 704.5 18 c 128,-1,6
 743 -23 743 -23 815 -23 c 0,7,8
 860 -23 860 -23 888.5 -19.5 c 128,-1,9
 917 -16 917 -16 962 -4 c 1,10,-1
 973 79 l 1,11,-1
 928 89 l 2,12,13
 885 99 885 99 864.5 107.5 c 128,-1,14
 844 116 844 116 831.5 140.5 c 128,-1,15
 819 165 819 165 819 215 c 2,16,-1
 819 1271 l 1,17,-1
 798 1295 l 1,18,-1
 520 1271 l 1,19,-1
 506 1196 l 1,20,-1
 658 1141 l 1,21,-1
 658 984 l 1,22,-1
 670 856 l 1,23,-1
 663 856 l 1,24,25
 638 874 638 874 589 887 c 128,-1,26
 540 900 540 900 491 900 c 0,27,28
 387 900 387 900 285.5 834 c 128,-1,29
 184 768 184 768 119 653 c 128,-1,30
 54 538 54 538 54 399 c 0,31,32
 54 266 54 266 97.5 171 c 128,-1,33
 141 76 141 76 215.5 27.5 c 128,-1,34
 290 -21 290 -21 380 -21 c 0,35,0
 475 -21 475 -21 541 21 c 128,-1,1
557.5 765 m 128,-1,37
 619 728 619 728 657 666 c 1,38,-1
 657 197 l 1,39,40
 628 163 628 163 568.5 134 c 128,-1,41
 509 105 509 105 451 105 c 0,42,43
 387 105 387 105 337 145.5 c 128,-1,44
 287 186 287 186 258.5 266.5 c 128,-1,45
 230 347 230 347 230 462 c 0,46,47
 230 617 230 617 281 709.5 c 128,-1,48
 332 802 332 802 443 802 c 0,49,36
 496 802 496 802 557.5 765 c 128,-1,37
EndSplineSet
Substitution2: "'smcp' Lowercase to Small Capitals lookup 7 subtable" d.sc
Substitution2: "'aalt' Access All Alternates lookup 0 subtable" d.sc
EndChar

StartChar: e
Encoding: 101 101 70
Width: 802
GlyphClass: 1
Flags: W
LayerCount: 2
Fore
SplineSet
612.5 5.5 m 128,-1,1
 698 41 698 41 758 104 c 1,2,-1
 737 157 l 1,3,4
 688 131 688 131 651 119 c 128,-1,5
 614 107 614 107 586 104.5 c 128,-1,6
 558 102 558 102 510 102 c 0,7,8
 422 102 422 102 360.5 152.5 c 128,-1,9
 299 203 299 203 267 282 c 128,-1,10
 235 361 235 361 231 445 c 1,11,-1
 715 451 l 1,12,13
 721 477 721 477 726 517.5 c 128,-1,14
 731 558 731 558 731 581 c 0,15,16
 731 683 731 683 695.5 754.5 c 128,-1,17
 660 826 660 826 599 862.5 c 128,-1,18
 538 899 538 899 464 899 c 0,19,20
 364 899 364 899 269 842 c 128,-1,21
 174 785 174 785 113.5 678 c 128,-1,22
 53 571 53 571 53 428 c 0,23,24
 53 283 53 283 106 179 c 128,-1,25
 159 75 159 75 245.5 22.5 c 128,-1,26
 332 -30 332 -30 429 -30 c 0,27,0
 527 -30 527 -30 612.5 5.5 c 128,-1,1
553 615 m 0,29,30
 553 600 553 600 551.5 578.5 c 128,-1,31
 550 557 550 557 547 546 c 1,32,-1
 233 523 l 1,33,34
 238 615 238 615 265.5 677.5 c 128,-1,35
 293 740 293 740 333 770.5 c 128,-1,36
 373 801 373 801 415 801 c 0,37,28
 553 801 553 801 553 615 c 0,29,30
EndSplineSet
Substitution2: "'smcp' Lowercase to Small Capitals lookup 7 subtable" e.sc
Substitution2: "'aalt' Access All Alternates lookup 0 subtable" e.sc
EndChar

StartChar: f
Encoding: 102 102 71
Width: 694
GlyphClass: 1
Flags: W
LayerCount: 2
Fore
SplineSet
611 83 m 1,0,-1
 366 121 l 1,1,-1
 366 784 l 1,2,-1
 611 784 l 1,3,-1
 623 873 l 1,4,-1
 366 873 l 1,5,-1
 368 981 l 2,6,7
 371 1119 371 1119 403.5 1173.5 c 128,-1,8
 436 1228 436 1228 497 1228 c 0,9,10
 539 1228 539 1228 587 1191 c 128,-1,11
 635 1154 635 1154 673 1107 c 1,12,13
 702 1118 702 1118 732 1151.5 c 128,-1,14
 762 1185 762 1185 762 1219 c 0,15,16
 762 1276 762 1276 710.5 1305 c 128,-1,17
 659 1334 659 1334 575 1334 c 0,18,19
 499 1334 499 1334 418 1282 c 128,-1,20
 337 1230 337 1230 276.5 1127 c 128,-1,21
 216 1024 216 1024 200 879 c 1,22,-1
 62 857 l 1,23,-1
 50 784 l 1,24,-1
 199 784 l 1,25,-1
 199 116 l 1,26,-1
 47 73 l 1,27,-1
 35 0 l 1,28,-1
 604 0 l 1,29,-1
 611 83 l 1,0,-1
EndSplineSet
Substitution2: "'smcp' Lowercase to Small Capitals lookup 7 subtable" f.sc
Substitution2: "'aalt' Access All Alternates lookup 0 subtable" f.sc
EndChar

StartChar: g
Encoding: 103 103 72
Width: 890
GlyphClass: 1
Flags: W
LayerCount: 2
Fore
SplineSet
605 -338 m 128,-1,1
 712 -290 712 -290 778.5 -212.5 c 128,-1,2
 845 -135 845 -135 845 -50 c 0,3,4
 845 55 845 55 767.5 103 c 128,-1,5
 690 151 690 151 568 151 c 2,6,-1
 432 151 l 2,7,8
 324 151 324 151 286.5 169.5 c 128,-1,9
 249 188 249 188 249 223 c 0,10,11
 249 259 249 259 299 311 c 1,12,13
 311 308 311 308 337 304.5 c 128,-1,14
 363 301 363 301 389 301 c 0,15,16
 467 301 467 301 545.5 338.5 c 128,-1,17
 624 376 624 376 675.5 444 c 128,-1,18
 727 512 727 512 727 599 c 0,19,20
 727 633 727 633 716 672 c 128,-1,21
 705 711 705 711 693 738 c 1,22,-1
 693 755 l 1,23,-1
 816 715 l 1,24,-1
 832 715 l 1,25,-1
 871 826 l 1,26,-1
 851 849 l 1,27,28
 820 846 820 846 748 840.5 c 128,-1,29
 676 835 676 835 636 833 c 1,30,31
 549 896 549 896 426 896 c 0,32,33
 343 896 343 896 265.5 853.5 c 128,-1,34
 188 811 188 811 140 740 c 128,-1,35
 92 669 92 669 92 589 c 0,36,37
 92 527 92 527 120.5 471 c 128,-1,38
 149 415 149 415 188 378.5 c 128,-1,39
 227 342 227 342 255 335 c 1,40,-1
 255 328 l 1,41,42
 218 313 218 313 178.5 284 c 128,-1,43
 139 255 139 255 113.5 222.5 c 128,-1,44
 88 190 88 190 88 164 c 0,45,46
 88 121 88 121 113 85 c 128,-1,47
 138 49 138 49 184 27 c 1,48,-1
 184 18 l 1,49,50
 24 -73 24 -73 24 -162 c 0,51,52
 24 -281 24 -281 126.5 -333.5 c 128,-1,53
 229 -386 229 -386 386 -386 c 0,54,0
 498 -386 498 -386 605 -338 c 128,-1,1
488.5 786 m 128,-1,56
 525 749 525 749 544.5 693 c 128,-1,57
 564 637 564 637 564 580 c 0,58,59
 564 478 564 478 525.5 429 c 128,-1,60
 487 380 487 380 417 380 c 0,61,62
 379 380 379 380 340.5 409 c 128,-1,63
 302 438 302 438 277 490 c 128,-1,64
 252 542 252 542 252 608 c 0,65,66
 252 709 252 709 289.5 766 c 128,-1,67
 327 823 327 823 402 823 c 0,68,55
 452 823 452 823 488.5 786 c 128,-1,56
426 3 m 2,69,70
 523 3 523 3 575 -4.5 c 128,-1,71
 627 -12 627 -12 651.5 -34 c 128,-1,72
 676 -56 676 -56 676 -100 c 0,73,74
 676 -193 676 -193 611.5 -236 c 128,-1,75
 547 -279 547 -279 440 -279 c 0,76,77
 200 -279 200 -279 200 -108 c 0,78,79
 200 -67 200 -67 211.5 -42.5 c 128,-1,80
 223 -18 223 -18 237.5 -6 c 128,-1,81
 252 6 252 6 252 3 c 1,82,-1
 426 3 l 2,69,70
EndSplineSet
Substitution2: "'smcp' Lowercase to Small Capitals lookup 7 subtable" g.sc
Substitution2: "'aalt' Access All Alternates lookup 0 subtable" g.sc
EndChar

StartChar: h
Encoding: 104 104 73
Width: 1029
GlyphClass: 1
Flags: W
LayerCount: 2
Fore
SplineSet
487 80 m 1,0,-1
 341 116 l 1,1,-1
 341 675 l 1,2,3
 389 725 389 725 437 744.5 c 128,-1,4
 485 764 485 764 534 764 c 0,5,6
 604 764 604 764 655 720.5 c 128,-1,7
 706 677 706 677 706 580 c 2,8,-1
 706 114 l 1,9,-1
 568 74 l 1,10,-1
 556 0 l 1,11,-1
 1005 0 l 1,12,-1
 1017 79 l 1,13,-1
 872 114 l 1,14,-1
 872 599 l 2,15,16
 872 769 872 769 808.5 834.5 c 128,-1,17
 745 900 745 900 629 900 c 0,18,19
 476 900 476 900 335 744 c 1,20,-1
 325 744 l 1,21,-1
 341 850 l 1,22,-1
 341 1275 l 1,23,-1
 316 1299 l 1,24,-1
 27 1277 l 1,25,-1
 15 1201 l 1,26,-1
 175 1147 l 1,27,-1
 175 116 l 1,28,-1
 21 79 l 1,29,-1
 10 0 l 1,30,-1
 475 0 l 1,31,-1
 487 80 l 1,0,-1
EndSplineSet
Substitution2: "'smcp' Lowercase to Small Capitals lookup 7 subtable" h.sc
Substitution2: "'aalt' Access All Alternates lookup 0 subtable" h.sc
EndChar

StartChar: i
Encoding: 105 105 74
Width: 539
GlyphClass: 1
Flags: W
LayerCount: 2
Fore
SplineSet
335.5 1086.5 m 128,-1,1
 364 1103 364 1103 380.5 1131 c 128,-1,2
 397 1159 397 1159 397 1192 c 0,3,4
 397 1240 397 1240 361 1273 c 128,-1,5
 325 1306 325 1306 275 1306 c 0,6,7
 227 1306 227 1306 191.5 1273.5 c 128,-1,8
 156 1241 156 1241 156 1194 c 0,9,10
 156 1161 156 1161 172 1132.5 c 128,-1,11
 188 1104 188 1104 215.5 1087 c 128,-1,12
 243 1070 243 1070 275 1070 c 256,13,0
 307 1070 307 1070 335.5 1086.5 c 128,-1,1
517 0 m 1,14,-1
 528 80 l 1,15,-1
 368 116 l 1,16,-1
 368 860 l 1,17,-1
 343 885 l 1,18,-1
 62 862 l 1,19,-1
 49 786 l 1,20,-1
 200 731 l 1,21,-1
 200 116 l 1,22,-1
 49 79 l 1,23,-1
 37 0 l 1,24,-1
 517 0 l 1,14,-1
EndSplineSet
Substitution2: "'smcp' Lowercase to Small Capitals lookup 7 subtable" i.sc
Substitution2: "'aalt' Access All Alternates lookup 0 subtable" i.sc
EndChar

StartChar: j
Encoding: 106 106 75
Width: 463
GlyphClass: 1
Flags: W
LayerCount: 2
Fore
SplineSet
323 1080 m 128,-1,1
 351 1097 351 1097 367.5 1126 c 128,-1,2
 384 1155 384 1155 384 1188 c 0,3,4
 384 1237 384 1237 348.5 1272.5 c 128,-1,5
 313 1308 313 1308 263 1308 c 0,6,7
 212 1308 212 1308 175.5 1273.5 c 128,-1,8
 139 1239 139 1239 139 1189 c 0,9,10
 139 1156 139 1156 156 1127 c 128,-1,11
 173 1098 173 1098 201 1080.5 c 128,-1,12
 229 1063 229 1063 262 1063 c 256,13,0
 295 1063 295 1063 323 1080 c 128,-1,1
61 -359 m 1,14,15
 194 -284 194 -284 275 -163.5 c 128,-1,16
 356 -43 356 -43 356 151 c 2,17,-1
 356 862 l 1,18,-1
 331 887 l 1,19,-1
 52 866 l 1,20,-1
 37 786 l 1,21,-1
 187 731 l 1,22,-1
 187 172 l 2,23,24
 187 46 187 46 156 -44 c 128,-1,25
 125 -134 125 -134 77.5 -190.5 c 128,-1,26
 30 -247 30 -247 -34 -295 c 1,27,-1
 15 -383 l 1,28,-1
 61 -359 l 1,14,15
EndSplineSet
Substitution2: "'smcp' Lowercase to Small Capitals lookup 7 subtable" j.sc
Substitution2: "'aalt' Access All Alternates lookup 0 subtable" j.sc
EndChar

StartChar: k
Encoding: 107 107 76
Width: 972
GlyphClass: 1
Flags: W
LayerCount: 2
Fore
SplineSet
488 0 m 1,0,-1
 500 80 l 1,1,-1
 341 116 l 1,2,-1
 341 1265 l 1,3,-1
 316 1290 l 1,4,-1
 28 1267 l 1,5,-1
 16 1191 l 1,6,-1
 174 1138 l 1,7,-1
 174 116 l 1,8,-1
 21 79 l 1,9,-1
 10 0 l 1,10,-1
 488 0 l 1,0,-1
616 102 m 128,-1,12
 671 40 671 40 723.5 10.5 c 128,-1,13
 776 -19 776 -19 841 -19 c 0,14,15
 889 -19 889 -19 960 0 c 1,16,-1
 971 77 l 1,17,-1
 931 83 l 2,18,19
 881 89 881 89 842.5 114 c 128,-1,20
 804 139 804 139 769.5 178 c 128,-1,21
 735 217 735 217 675 296 c 0,22,23
 626 362 626 362 606 386 c 2,24,-1
 527 487 l 1,25,-1
 764 777 l 1,26,-1
 913 819 l 1,27,-1
 927 893 l 1,28,-1
 501 893 l 1,29,-1
 491 817 l 1,30,-1
 624 777 l 1,31,-1
 365 452 l 1,32,-1
 365 432 l 1,33,-1
 470 287 l 2,34,11
 561 164 561 164 616 102 c 128,-1,12
EndSplineSet
Substitution2: "'smcp' Lowercase to Small Capitals lookup 7 subtable" k.sc
Substitution2: "'aalt' Access All Alternates lookup 0 subtable" k.sc
EndChar

StartChar: l
Encoding: 108 108 77
Width: 510
GlyphClass: 1
Flags: W
LayerCount: 2
Fore
SplineSet
488 0 m 1,0,-1
 500 80 l 1,1,-1
 341 116 l 1,2,-1
 341 1275 l 1,3,-1
 316 1299 l 1,4,-1
 28 1277 l 1,5,-1
 16 1201 l 1,6,-1
 174 1147 l 1,7,-1
 174 116 l 1,8,-1
 21 79 l 1,9,-1
 10 0 l 1,10,-1
 488 0 l 1,0,-1
EndSplineSet
Substitution2: "'smcp' Lowercase to Small Capitals lookup 7 subtable" l.sc
Substitution2: "'aalt' Access All Alternates lookup 0 subtable" l.sc
EndChar

StartChar: m
Encoding: 109 109 78
Width: 1584
GlyphClass: 1
Flags: W
LayerCount: 2
Fore
SplineSet
515 79 m 1,0,-1
 372 114 l 1,1,-1
 372 673 l 1,2,3
 409 715 409 715 461 737.5 c 128,-1,4
 513 760 513 760 569 760 c 0,5,6
 617 760 617 760 656 738 c 128,-1,7
 695 716 695 716 717.5 676 c 128,-1,8
 740 636 740 636 740 585 c 2,9,-1
 740 114 l 1,10,-1
 609 74 l 1,11,-1
 598 0 l 1,12,-1
 1041 0 l 1,13,-1
 1051 79 l 1,14,-1
 903 114 l 1,15,-1
 903 660 l 1,16,17
 947 707 947 707 990.5 733.5 c 128,-1,18
 1034 760 1034 760 1094 760 c 0,19,20
 1172 760 1172 760 1217 710 c 128,-1,21
 1262 660 1262 660 1262 585 c 2,22,-1
 1262 113 l 1,23,-1
 1137 73 l 1,24,-1
 1130 0 l 1,25,-1
 1555 0 l 1,26,-1
 1568 79 l 1,27,-1
 1430 115 l 1,28,-1
 1430 609 l 2,29,30
 1430 888 1430 888 1194 888 c 0,31,32
 1105 888 1105 888 1028.5 843.5 c 128,-1,33
 952 799 952 799 899 731 c 1,34,-1
 887 731 l 1,35,36
 865 816 865 816 803.5 856 c 128,-1,37
 742 896 742 896 666 896 c 0,38,39
 578 896 578 896 498.5 851 c 128,-1,40
 419 806 419 806 366 740 c 1,41,-1
 357 740 l 1,42,-1
 375 866 l 1,43,-1
 357 887 l 1,44,-1
 53 845 l 1,45,-1
 43 770 l 1,46,-1
 203 719 l 1,47,-1
 203 114 l 1,48,-1
 53 74 l 1,49,-1
 43 0 l 1,50,-1
 504 0 l 1,51,-1
 515 79 l 1,0,-1
EndSplineSet
Substitution2: "'smcp' Lowercase to Small Capitals lookup 7 subtable" m.sc
Substitution2: "'aalt' Access All Alternates lookup 0 subtable" m.sc
EndChar

StartChar: n
Encoding: 110 110 79
Width: 1060
GlyphClass: 1
Flags: W
LayerCount: 2
Fore
SplineSet
515 79 m 1,0,-1
 366 114 l 1,1,-1
 366 675 l 1,2,3
 403 716 403 716 455 738.5 c 128,-1,4
 507 761 507 761 563 761 c 0,5,6
 642 761 642 761 689.5 715.5 c 128,-1,7
 737 670 737 670 737 577 c 2,8,-1
 737 114 l 1,9,-1
 599 73 l 1,10,-1
 589 0 l 1,11,-1
 1038 0 l 1,12,-1
 1048 79 l 1,13,-1
 904 114 l 1,14,-1
 904 616 l 2,15,16
 904 751 904 751 842 825 c 128,-1,17
 780 899 780 899 663 899 c 0,18,19
 575 899 575 899 497 854 c 128,-1,20
 419 809 419 809 362 741 c 1,21,-1
 352 741 l 1,22,-1
 369 869 l 1,23,-1
 352 888 l 1,24,-1
 54 849 l 1,25,-1
 44 773 l 1,26,-1
 198 721 l 1,27,-1
 198 114 l 1,28,-1
 47 73 l 1,29,-1
 37 0 l 1,30,-1
 501 0 l 1,31,-1
 515 79 l 1,0,-1
EndSplineSet
Substitution2: "'smcp' Lowercase to Small Capitals lookup 7 subtable" n.sc
Substitution2: "'aalt' Access All Alternates lookup 0 subtable" n.sc
EndChar

StartChar: o
Encoding: 111 111 80
Width: 934
GlyphClass: 1
Flags: W
LayerCount: 2
Fore
SplineSet
675 32 m 128,-1,1
 771 91 771 91 826.5 198 c 128,-1,2
 882 305 882 305 882 441 c 0,3,4
 882 578 882 578 834.5 682.5 c 128,-1,5
 787 787 787 787 697.5 845 c 128,-1,6
 608 903 608 903 487 903 c 0,7,8
 373 903 373 903 273.5 846 c 128,-1,9
 174 789 174 789 113 680.5 c 128,-1,10
 52 572 52 572 52 426 c 0,11,12
 52 296 52 296 100.5 193.5 c 128,-1,13
 149 91 149 91 241.5 32 c 128,-1,14
 334 -27 334 -27 463 -27 c 0,15,0
 579 -27 579 -27 675 32 c 128,-1,1
592.5 732.5 m 128,-1,17
 651 667 651 667 677.5 567 c 128,-1,18
 704 467 704 467 704 359 c 0,19,20
 704 285 704 285 681 219 c 128,-1,21
 658 153 658 153 611 111.5 c 128,-1,22
 564 70 564 70 497 70 c 0,23,24
 404 70 404 70 344 131 c 128,-1,25
 284 192 284 192 257 289 c 128,-1,26
 230 386 230 386 230 497 c 0,27,28
 230 579 230 579 253 647.5 c 128,-1,29
 276 716 276 716 324.5 757 c 128,-1,30
 373 798 373 798 445 798 c 0,31,16
 534 798 534 798 592.5 732.5 c 128,-1,17
EndSplineSet
Substitution2: "Single Substitution lookup 8 subtable" ordmasculine
Substitution2: "'smcp' Lowercase to Small Capitals lookup 7 subtable" o.sc
AlternateSubs2: "'aalt' Access All Alternates lookup 1 subtable" ordmasculine o.sc
EndChar

StartChar: p
Encoding: 112 112 81
Width: 968
GlyphClass: 1
Flags: W
LayerCount: 2
Fore
SplineSet
491 -292 m 1,0,-1
 335 -257 l 1,1,-1
 335 666 l 1,2,3
 375 708 375 708 428.5 738 c 128,-1,4
 482 768 482 768 540 768 c 0,5,6
 635 768 635 768 683 676.5 c 128,-1,7
 731 585 731 585 731 406 c 0,8,9
 731 261 731 261 677 175 c 128,-1,10
 623 89 623 89 522 89 c 0,11,12
 463 89 463 89 433 93.5 c 128,-1,13
 403 98 403 98 369 111 c 1,14,-1
 375 -10 l 1,15,16
 425 -19 425 -19 469 -19 c 0,17,18
 596 -19 596 -19 697.5 43 c 128,-1,19
 799 105 799 105 856.5 216 c 128,-1,20
 914 327 914 327 914 467 c 0,21,22
 914 614 914 614 875 710.5 c 128,-1,23
 836 807 836 807 768 853 c 128,-1,24
 700 899 700 899 611 899 c 0,25,26
 523 899 523 899 453 850 c 128,-1,27
 383 801 383 801 335 734 c 1,28,-1
 328 734 l 1,29,-1
 342 863 l 1,30,-1
 321 882 l 1,31,-1
 30 845 l 1,32,-1
 18 768 l 1,33,-1
 172 722 l 1,34,-1
 172 -256 l 1,35,-1
 19 -294 l 1,36,-1
 13 -372 l 1,37,-1
 479 -372 l 1,38,-1
 491 -292 l 1,0,-1
EndSplineSet
Substitution2: "'smcp' Lowercase to Small Capitals lookup 7 subtable" p.sc
Substitution2: "'aalt' Access All Alternates lookup 0 subtable" p.sc
EndChar

StartChar: q
Encoding: 113 113 82
Width: 955
GlyphClass: 1
Flags: W
LayerCount: 2
Fore
SplineSet
507 5 m 128,-1,1
 577 31 577 31 621 73 c 1,2,-1
 618 148 l 1,3,4
 585 128 585 128 530.5 116 c 128,-1,5
 476 104 476 104 446 104 c 0,6,7
 383 104 383 104 333.5 147.5 c 128,-1,8
 284 191 284 191 256 274.5 c 128,-1,9
 228 358 228 358 228 474 c 0,10,11
 228 573 228 573 256.5 647 c 128,-1,12
 285 721 285 721 334.5 761 c 128,-1,13
 384 801 384 801 445 801 c 0,14,15
 513 801 513 801 564.5 760 c 128,-1,16
 616 719 616 719 647 663 c 1,17,-1
 647 -251 l 1,18,-1
 496 -287 l 1,19,-1
 486 -366 l 1,20,-1
 962 -366 l 1,21,-1
 973 -285 l 1,22,-1
 813 -251 l 1,23,-1
 813 890 l 1,24,-1
 784 892 l 1,25,-1
 667 853 l 1,26,27
 637 869 637 869 587.5 884.5 c 128,-1,28
 538 900 538 900 494 900 c 0,29,30
 389 900 389 900 286.5 833.5 c 128,-1,31
 184 767 184 767 119 655 c 128,-1,32
 54 543 54 543 54 412 c 0,33,34
 54 269 54 269 97.5 171.5 c 128,-1,35
 141 74 141 74 215.5 26.5 c 128,-1,36
 290 -21 290 -21 381 -21 c 0,37,0
 437 -21 437 -21 507 5 c 128,-1,1
EndSplineSet
Substitution2: "'smcp' Lowercase to Small Capitals lookup 7 subtable" q.sc
Substitution2: "'aalt' Access All Alternates lookup 0 subtable" q.sc
EndChar

StartChar: r
Encoding: 114 114 83
Width: 735
GlyphClass: 1
Flags: W
LayerCount: 2
Fore
SplineSet
602 87 m 1,0,-1
 369 121 l 1,1,-1
 369 504 l 1,2,3
 379 575 379 575 408.5 624 c 128,-1,4
 438 673 438 673 474 697.5 c 128,-1,5
 510 722 510 722 540 722 c 0,6,7
 569 722 569 722 601 711.5 c 128,-1,8
 633 701 633 701 662 683 c 1,9,10
 719 731 719 731 719 794 c 0,11,12
 719 839 719 839 688 872.5 c 128,-1,13
 657 906 657 906 608 906 c 0,14,15
 563 906 563 906 517 875.5 c 128,-1,16
 471 845 471 845 430 784 c 128,-1,17
 389 723 389 723 363 636 c 1,18,-1
 344 636 l 1,19,-1
 364 866 l 1,20,-1
 341 890 l 1,21,-1
 54 853 l 1,22,-1
 40 777 l 1,23,-1
 203 728 l 1,24,-1
 203 114 l 1,25,-1
 50 74 l 1,26,-1
 40 0 l 1,27,-1
 592 0 l 1,28,-1
 602 87 l 1,0,-1
EndSplineSet
Substitution2: "'smcp' Lowercase to Small Capitals lookup 7 subtable" r.sc
Substitution2: "'aalt' Access All Alternates lookup 0 subtable" r.sc
EndChar

StartChar: s
Encoding: 115 115 84
Width: 697
GlyphClass: 1
Flags: W
LayerCount: 2
Fore
SplineSet
488.5 -1 m 128,-1,1
 560 32 560 32 604 90.5 c 128,-1,2
 648 149 648 149 648 220 c 0,3,4
 648 287 648 287 613 338.5 c 128,-1,5
 578 390 578 390 528.5 425 c 128,-1,6
 479 460 479 460 399 504 c 0,7,8
 333 541 333 541 296 566 c 128,-1,9
 259 591 259 591 234 623.5 c 128,-1,10
 209 656 209 656 209 696 c 0,11,12
 209 746 209 746 239.5 781 c 128,-1,13
 270 816 270 816 321 816 c 0,14,15
 379 816 379 816 419 759.5 c 128,-1,16
 459 703 459 703 477 589 c 1,17,18
 542 593 542 593 579.5 629 c 128,-1,19
 617 665 617 665 617 722 c 0,20,21
 617 772 617 772 586.5 812.5 c 128,-1,22
 556 853 556 853 500 876.5 c 128,-1,23
 444 900 444 900 372 900 c 0,24,25
 277 900 277 900 209.5 859.5 c 128,-1,26
 142 819 142 819 108 758 c 128,-1,27
 74 697 74 697 74 635 c 0,28,29
 74 563 74 563 110.5 508 c 128,-1,30
 147 453 147 453 198.5 415.5 c 128,-1,31
 250 378 250 378 332 331 c 0,32,33
 392 297 392 297 425.5 274.5 c 128,-1,34
 459 252 459 252 481 224.5 c 128,-1,35
 503 197 503 197 503 165 c 0,36,37
 503 113 503 113 466 88.5 c 128,-1,38
 429 64 429 64 371 64 c 0,39,40
 309 64 309 64 257 113.5 c 128,-1,41
 205 163 205 163 172 261 c 1,42,43
 116 257 116 257 83 217 c 128,-1,44
 50 177 50 177 50 121 c 0,45,46
 50 81 50 81 86 45 c 128,-1,47
 122 9 122 9 188 -12.5 c 128,-1,48
 254 -34 254 -34 340 -34 c 0,49,0
 417 -34 417 -34 488.5 -1 c 128,-1,1
EndSplineSet
Substitution2: "'smcp' Lowercase to Small Capitals lookup 7 subtable" s.sc
Substitution2: "'aalt' Access All Alternates lookup 0 subtable" s.sc
EndChar

StartChar: t
Encoding: 116 116 85
Width: 649
GlyphClass: 1
Flags: W
LayerCount: 2
Fore
SplineSet
151 260 m 2,0,1
 150 104 150 104 206.5 40.5 c 128,-1,2
 263 -23 263 -23 364 -23 c 0,3,4
 448 -23 448 -23 518 16 c 128,-1,5
 588 55 588 55 635 124 c 1,6,-1
 614 178 l 1,7,8
 614 177 614 177 590.5 162 c 128,-1,9
 567 147 567 147 535 134.5 c 128,-1,10
 503 122 503 122 470 122 c 0,11,12
 417 122 417 122 385 140 c 128,-1,13
 353 158 353 158 338 201 c 128,-1,14
 323 244 323 244 323 319 c 2,15,-1
 326 761 l 1,16,-1
 602 761 l 1,17,-1
 611 849 l 1,18,-1
 328 849 l 1,19,-1
 328 1087 l 1,20,-1
 275 1087 l 1,21,22
 221 1013 221 1013 155 940 c 128,-1,23
 89 867 89 867 28 817 c 1,24,-1
 28 763 l 1,25,-1
 155 763 l 1,26,-1
 151 260 l 2,0,1
EndSplineSet
Substitution2: "'smcp' Lowercase to Small Capitals lookup 7 subtable" t.sc
Substitution2: "'aalt' Access All Alternates lookup 0 subtable" t.sc
EndChar

StartChar: u
Encoding: 117 117 86
Width: 1002
GlyphClass: 1
Flags: W
LayerCount: 2
Fore
SplineSet
157 267 m 2,0,1
 157 114 157 114 216.5 45.5 c 128,-1,2
 276 -23 276 -23 380 -23 c 0,3,4
 560 -23 560 -23 666 131 c 1,5,-1
 679 131 l 1,6,-1
 679 122 l 2,7,8
 679 57 679 57 716.5 17 c 128,-1,9
 754 -23 754 -23 826 -23 c 0,10,11
 870 -23 870 -23 900 -19 c 128,-1,12
 930 -15 930 -15 977 -4 c 1,13,-1
 986 79 l 1,14,-1
 940 89 l 2,15,16
 899 98 899 98 878 108 c 128,-1,17
 857 118 857 118 844.5 142.5 c 128,-1,18
 832 167 832 167 832 215 c 2,19,-1
 832 859 l 1,20,-1
 811 883 l 1,21,-1
 517 856 l 1,22,-1
 507 764 l 1,23,-1
 666 722 l 1,24,-1
 666 191 l 1,25,26
 630 154 630 154 586.5 134 c 128,-1,27
 543 114 543 114 480 114 c 0,28,29
 326 114 326 114 326 317 c 2,30,-1
 326 859 l 1,31,-1
 301 883 l 1,32,-1
 33 862 l 1,33,-1
 19 783 l 1,34,-1
 157 728 l 1,35,-1
 157 267 l 2,0,1
EndSplineSet
Substitution2: "'smcp' Lowercase to Small Capitals lookup 7 subtable" u.sc
Substitution2: "'aalt' Access All Alternates lookup 0 subtable" u.sc
EndChar

StartChar: v
Encoding: 118 118 87
Width: 904
GlyphClass: 1
Flags: W
LayerCount: 2
Fore
SplineSet
116 756 m 1,0,-1
 394 -28 l 1,1,-1
 521 -10 l 1,2,-1
 794 758 l 1,3,-1
 902 799 l 1,4,-1
 914 873 l 1,5,-1
 531 873 l 1,6,-1
 517 798 l 1,7,-1
 678 756 l 1,8,-1
 486 194 l 1,9,-1
 298 758 l 1,10,-1
 443 799 l 1,11,-1
 451 873 l 1,12,-1
 4 873 l 1,13,-1
 -6 798 l 1,14,-1
 116 756 l 1,0,-1
EndSplineSet
Substitution2: "'smcp' Lowercase to Small Capitals lookup 7 subtable" v.sc
Substitution2: "'aalt' Access All Alternates lookup 0 subtable" v.sc
EndChar

StartChar: w
Encoding: 119 119 88
Width: 1273
GlyphClass: 1
Flags: W
LayerCount: 2
Fore
SplineSet
113 758 m 1,0,-1
 351 -28 l 1,1,-1
 470 -10 l 1,2,-1
 637 586 l 1,3,-1
 820 -28 l 1,4,-1
 939 -10 l 1,5,-1
 1161 760 l 1,6,-1
 1269 801 l 1,7,-1
 1281 875 l 1,8,-1
 898 875 l 1,9,-1
 888 799 l 1,10,-1
 1038 758 l 1,11,-1
 892 234 l 1,12,-1
 871 345 l 1,13,-1
 724 829 l 1,14,-1
 585 811 l 1,15,-1
 424 240 l 1,16,-1
 400 360 l 1,17,-1
 279 760 l 1,18,-1
 414 801 l 1,19,-1
 423 875 l 1,20,-1
 8 875 l 1,21,-1
 -2 799 l 1,22,-1
 113 758 l 1,0,-1
EndSplineSet
Substitution2: "'smcp' Lowercase to Small Capitals lookup 7 subtable" w.sc
Substitution2: "'aalt' Access All Alternates lookup 0 subtable" w.sc
EndChar

StartChar: x
Encoding: 120 120 89
Width: 958
GlyphClass: 1
Flags: W
LayerCount: 2
Fore
SplineSet
409 0 m 1,0,-1
 419 74 l 1,1,-1
 277 114 l 1,2,-1
 458 351 l 1,3,-1
 636 114 l 1,4,-1
 508 73 l 1,5,-1
 495 0 l 1,6,-1
 940 0 l 1,7,-1
 949 74 l 1,8,-1
 836 114 l 1,9,-1
 580 467 l 1,10,-1
 810 767 l 1,11,-1
 914 807 l 1,12,-1
 927 882 l 1,13,-1
 552 882 l 1,14,-1
 538 806 l 1,15,-1
 675 764 l 1,16,-1
 508 549 l 1,17,-1
 352 767 l 1,18,-1
 467 807 l 1,19,-1
 480 882 l 1,20,-1
 46 882 l 1,21,-1
 36 806 l 1,22,-1
 154 764 l 1,23,-1
 383 436 l 1,24,-1
 138 114 l 1,25,-1
 31 73 l 1,26,-1
 21 0 l 1,27,-1
 409 0 l 1,0,-1
EndSplineSet
Substitution2: "'smcp' Lowercase to Small Capitals lookup 7 subtable" x.sc
Substitution2: "'aalt' Access All Alternates lookup 0 subtable" x.sc
EndChar

StartChar: y
Encoding: 121 121 90
Width: 931
GlyphClass: 1
Flags: W
LayerCount: 2
Fore
SplineSet
295 -351 m 128,-1,1
 350 -322 350 -322 398 -252 c 128,-1,2
 446 -182 446 -182 498 -53 c 2,3,-1
 829 758 l 1,4,-1
 930 799 l 1,5,-1
 937 873 l 1,6,-1
 595 873 l 1,7,-1
 581 798 l 1,8,-1
 712 756 l 1,9,-1
 496 222 l 1,10,-1
 292 761 l 1,11,-1
 419 799 l 1,12,-1
 428 873 l 1,13,-1
 8 873 l 1,14,-1
 -3 796 l 1,15,-1
 121 758 l 1,16,-1
 406 0 l 1,17,-1
 386 -49 l 2,18,19
 350 -138 350 -138 307.5 -166 c 128,-1,20
 265 -194 265 -194 215 -194 c 0,21,22
 176 -194 176 -194 140.5 -181.5 c 128,-1,23
 105 -169 105 -169 64 -141 c 1,24,25
 32 -169 32 -169 20 -198 c 128,-1,26
 8 -227 8 -227 8 -261 c 0,27,28
 8 -290 8 -290 27.5 -317.5 c 128,-1,29
 47 -345 47 -345 82.5 -362.5 c 128,-1,30
 118 -380 118 -380 162 -380 c 0,31,0
 240 -380 240 -380 295 -351 c 128,-1,1
EndSplineSet
Substitution2: "'smcp' Lowercase to Small Capitals lookup 7 subtable" y.sc
Substitution2: "'aalt' Access All Alternates lookup 0 subtable" y.sc
EndChar

StartChar: z
Encoding: 122 122 91
Width: 818
GlyphClass: 1
Flags: W
LayerCount: 2
Fore
SplineSet
57 0 m 1,0,-1
 728 0 l 1,1,-1
 770 267 l 1,2,-1
 703 275 l 1,3,-1
 608 99 l 1,4,-1
 248 99 l 1,5,-1
 750 799 l 1,6,-1
 750 873 l 1,7,-1
 78 873 l 1,8,-1
 70 608 l 1,9,-1
 147 595 l 1,10,-1
 206 780 l 1,11,-1
 543 780 l 1,12,-1
 53 87 l 1,13,-1
 57 0 l 1,0,-1
EndSplineSet
Substitution2: "'smcp' Lowercase to Small Capitals lookup 7 subtable" z.sc
Substitution2: "'aalt' Access All Alternates lookup 0 subtable" z.sc
EndChar

StartChar: braceleft
Encoding: 123 123 92
Width: 551
GlyphClass: 1
Flags: W
LayerCount: 2
Fore
SplineSet
146 323 m 128,-1,1
 175 275 175 275 183 209.5 c 128,-1,2
 191 144 191 144 193 35 c 0,3,4
 196 -101 196 -101 209 -182.5 c 128,-1,5
 222 -264 222 -264 272.5 -321 c 128,-1,6
 323 -378 323 -378 429 -378 c 2,7,-1
 531 -378 l 1,8,-1
 523 -277 l 1,9,-1
 449 -271 l 2,10,11
 411 -269 411 -269 393 -234 c 128,-1,12
 375 -199 375 -199 370.5 -147.5 c 128,-1,13
 366 -96 366 -96 365 -3 c 0,14,15
 364 121 364 121 354.5 201.5 c 128,-1,16
 345 282 345 282 308 349 c 128,-1,17
 271 416 271 416 194 438 c 1,18,-1
 194 445 l 1,19,20
 269 466 269 466 306.5 529 c 128,-1,21
 344 592 344 592 354 671 c 128,-1,22
 364 750 364 750 364 862 c 2,23,-1
 364 921 l 2,24,25
 364 996 364 996 368.5 1041.5 c 128,-1,26
 373 1087 373 1087 388.5 1116.5 c 128,-1,27
 404 1146 404 1146 436 1149 c 2,28,-1
 518 1155 l 1,29,-1
 527 1255 l 1,30,-1
 426 1255 l 2,31,32
 323 1255 323 1255 273 1199 c 128,-1,33
 223 1143 223 1143 210 1062.5 c 128,-1,34
 197 982 197 982 194 848 c 0,35,36
 191 736 191 736 183 670.5 c 128,-1,37
 175 605 175 605 145.5 556.5 c 128,-1,38
 116 508 116 508 53 497 c 2,39,-1
 4 488 l 1,40,-1
 4 389 l 1,41,-1
 56 381 l 2,42,0
 117 371 117 371 146 323 c 128,-1,1
EndSplineSet
EndChar

StartChar: bar
Encoding: 124 124 93
Width: 331
GlyphClass: 1
Flags: W
LayerCount: 2
Fore
SplineSet
224 -380 m 1,0,-1
 224 1248 l 1,1,-1
 109 1260 l 1,2,-1
 109 -366 l 1,3,-1
 224 -380 l 1,0,-1
EndSplineSet
EndChar

StartChar: braceright
Encoding: 125 125 94
Width: 553
GlyphClass: 1
Flags: W
LayerCount: 2
Fore
SplineSet
282.5 -321 m 128,-1,1
 333 -264 333 -264 345.5 -182 c 128,-1,2
 358 -100 358 -100 361 35 c 0,3,4
 363 145 363 145 370.5 210 c 128,-1,5
 378 275 378 275 407 323 c 128,-1,6
 436 371 436 371 497 381 c 2,7,-1
 549 389 l 1,8,-1
 549 488 l 1,9,-1
 500 497 l 2,10,11
 437 508 437 508 407.5 556.5 c 128,-1,12
 378 605 378 605 370 670.5 c 128,-1,13
 362 736 362 736 359 848 c 0,14,15
 356 982 356 982 343.5 1062.5 c 128,-1,16
 331 1143 331 1143 281.5 1199 c 128,-1,17
 232 1255 232 1255 129 1255 c 2,18,-1
 28 1255 l 1,19,-1
 35 1155 l 1,20,-1
 117 1149 l 2,21,22
 151 1146 151 1146 167 1115 c 128,-1,23
 183 1084 183 1084 187.5 1036 c 128,-1,24
 192 988 192 988 192 910 c 2,25,-1
 192 857 l 2,26,27
 192 744 192 744 202 664.5 c 128,-1,28
 212 585 212 585 248.5 524 c 128,-1,29
 285 463 285 463 360 445 c 1,30,-1
 360 438 l 1,31,32
 283 416 283 416 246 349 c 128,-1,33
 209 282 209 282 199.5 201.5 c 128,-1,34
 190 121 190 121 189 -3 c 0,35,36
 188 -96 188 -96 183.5 -147.5 c 128,-1,37
 179 -199 179 -199 161 -234 c 128,-1,38
 143 -269 143 -269 105 -271 c 2,39,-1
 31 -277 l 1,40,-1
 22 -378 l 1,41,-1
 126 -378 l 2,42,0
 232 -378 232 -378 282.5 -321 c 128,-1,1
EndSplineSet
EndChar

StartChar: asciitilde
Encoding: 126 126 95
Width: 947
GlyphClass: 1
Flags: W
LayerCount: 2
Fore
SplineSet
154 422.5 m 128,-1,1
 167 440 167 440 185.5 455.5 c 128,-1,2
 204 471 204 471 222 469 c 2,3,-1
 672 424 l 2,4,5
 677 423 677 423 685 423 c 0,6,7
 741 423 741 423 782.5 468 c 128,-1,8
 824 513 824 513 847 565.5 c 128,-1,9
 870 618 870 618 870 626 c 1,10,-1
 806 628 l 1,11,12
 803 623 803 623 790 607.5 c 128,-1,13
 777 592 777 592 758.5 578.5 c 128,-1,14
 740 565 740 565 724 566 c 2,15,-1
 274 611 l 2,16,17
 215 617 215 617 172.5 572.5 c 128,-1,18
 130 528 130 528 106.5 474.5 c 128,-1,19
 83 421 83 421 83 412 c 1,20,-1
 138 399 l 1,21,0
 141 405 141 405 154 422.5 c 128,-1,1
EndSplineSet
EndChar

StartChar: exclamdown
Encoding: 161 161 97
Width: 387
GlyphClass: 1
Flags: W
LayerCount: 2
Fore
SplineSet
283 700 m 128,-1,1
 320 734 320 734 320 783 c 0,2,3
 320 836 320 836 284 873 c 128,-1,4
 248 910 248 910 196 910 c 256,5,6
 144 910 144 910 107 873.5 c 128,-1,7
 70 837 70 837 70 784 c 0,8,9
 70 751 70 751 87.5 724 c 128,-1,10
 105 697 105 697 134 681.5 c 128,-1,11
 163 666 163 666 196 666 c 0,12,0
 246 666 246 666 283 700 c 128,-1,1
243.5 -407.5 m 128,-1,14
 289 -397 289 -397 294 -378 c 1,15,-1
 294 -375 l 2,16,17
 294 -299 294 -299 277 -25.5 c 128,-1,18
 260 248 260 248 240 517 c 1,19,-1
 240 520 l 1,20,-1
 151 540 l 1,21,-1
 151 534 l 1,22,23
 130 278 130 278 113.5 10 c 128,-1,24
 97 -258 97 -258 97 -378 c 0,25,26
 97 -399 97 -399 117 -408.5 c 128,-1,27
 137 -418 137 -418 162 -418 c 0,28,13
 198 -418 198 -418 243.5 -407.5 c 128,-1,14
EndSplineSet
EndChar

StartChar: cent
Encoding: 162 162 98
Width: 808
GlyphClass: 1
Flags: W
LayerCount: 2
Fore
SplineSet
634 13.5 m 128,-1,1
 559 -21 559 -21 476 -28 c 1,2,-1
 505 -250 l 1,3,-1
 357 -266 l 1,4,-1
 380 -26 l 1,5,6
 278 -12 278 -12 201 50.5 c 128,-1,7
 124 113 124 113 82.5 208.5 c 128,-1,8
 41 304 41 304 41 415 c 0,9,10
 41 539 41 539 86 646.5 c 128,-1,11
 131 754 131 754 207.5 827 c 128,-1,12
 284 900 284 900 375 927 c 1,13,-1
 347 1154 l 1,14,-1
 493 1171 l 1,15,-1
 472 940 l 1,16,17
 550 939 550 939 603 918 c 128,-1,18
 656 897 656 897 681.5 862.5 c 128,-1,19
 707 828 707 828 707 787 c 0,20,21
 707 742 707 742 674.5 714.5 c 128,-1,22
 642 687 642 687 581 683 c 1,23,24
 552 753 552 753 514.5 799.5 c 128,-1,25
 477 846 477 846 419 846 c 256,26,27
 361 846 361 846 316 799.5 c 128,-1,28
 271 753 271 753 246.5 675.5 c 128,-1,29
 222 598 222 598 222 507 c 256,30,31
 222 416 222 416 255 319 c 128,-1,32
 288 222 288 222 355 156 c 128,-1,33
 422 90 422 90 519 90 c 0,34,35
 586 90 586 90 631 106 c 128,-1,36
 676 122 676 122 721 151 c 1,37,-1
 746 93 l 1,38,0
 709 48 709 48 634 13.5 c 128,-1,1
EndSplineSet
EndChar

StartChar: sterling
Encoding: 163 163 99
Width: 1113
GlyphClass: 1
Flags: W
LayerCount: 2
Fore
SplineSet
1070 331 m 1,0,-1
 984 349 l 1,1,-1
 853 96 l 1,2,-1
 393 99 l 1,3,4
 425 165 425 165 438 270 c 128,-1,5
 451 375 451 375 454 515 c 2,6,-1
 455 555 l 1,7,-1
 666 568 l 1,8,-1
 676 669 l 1,9,-1
 458 655 l 1,10,-1
 468 845 l 2,11,12
 475 969 475 969 490.5 1032 c 128,-1,13
 506 1095 506 1095 535.5 1119 c 128,-1,14
 565 1143 565 1143 619 1143 c 0,15,16
 665 1143 665 1143 702 1127 c 128,-1,17
 739 1111 739 1111 758 1081 c 1,18,-1
 799 887 l 1,19,-1
 885 875 l 1,20,-1
 916 1201 l 1,21,22
 861 1230 861 1230 806 1240 c 128,-1,23
 751 1250 751 1250 683 1250 c 0,24,25
 579 1250 579 1250 487.5 1198 c 128,-1,26
 396 1146 396 1146 335 1033 c 128,-1,27
 274 920 274 920 267 747 c 2,28,-1
 263 649 l 1,29,-1
 92 639 l 1,30,-1
 80 538 l 1,31,-1
 260 549 l 1,32,-1
 257 461 l 2,33,34
 254 337 254 337 247 264 c 128,-1,35
 240 191 240 191 218 121 c 1,36,-1
 50 74 l 1,37,-1
 43 0 l 1,38,-1
 1032 0 l 1,39,-1
 1070 331 l 1,0,-1
EndSplineSet
Substitution2: "'onum' Oldstyle Figures lookup 5 subtable" sterling.osf
Substitution2: "'aalt' Access All Alternates lookup 0 subtable" sterling.osf
EndChar

StartChar: currency
Encoding: 164 164 100
Width: 763
GlyphClass: 1
Flags: W
LayerCount: 2
Fore
SplineSet
131 562 m 128,-1,1
 120 523 120 523 120 488 c 0,2,3
 120 448 120 448 132.5 405 c 128,-1,4
 145 362 145 362 165 332 c 1,5,-1
 50 221 l 1,6,-1
 133 136 l 1,7,-1
 242 257 l 1,8,9
 272 239 272 239 309 228 c 128,-1,10
 346 217 346 217 376 217 c 0,11,12
 411 217 411 217 453.5 230 c 128,-1,13
 496 243 496 243 531 264 c 1,14,-1
 644 143 l 1,15,-1
 728 223 l 1,16,-1
 604 342 l 1,17,18
 624 369 624 369 635.5 410.5 c 128,-1,19
 647 452 647 452 647 491 c 0,20,21
 647 526 647 526 637 567 c 128,-1,22
 627 608 627 608 611 636 c 1,23,-1
 725 742 l 1,24,-1
 652 830 l 1,25,-1
 541 718 l 1,26,27
 511 740 511 740 468 754 c 128,-1,28
 425 768 425 768 384 768 c 0,29,30
 347 768 347 768 304.5 752 c 128,-1,31
 262 736 262 736 230 709 c 1,32,-1
 120 827 l 1,33,-1
 37 746 l 1,34,-1
 159 628 l 1,35,0
 142 601 142 601 131 562 c 128,-1,1
497 620 m 128,-1,37
 541 570 541 570 541 487 c 0,38,39
 541 409 541 409 497 361 c 128,-1,40
 453 313 453 313 381 313 c 0,41,42
 312 313 312 313 268.5 363 c 128,-1,43
 225 413 225 413 225 494 c 0,44,45
 225 573 225 573 268 621.5 c 128,-1,46
 311 670 311 670 380 670 c 0,47,36
 453 670 453 670 497 620 c 128,-1,37
EndSplineSet
EndChar

StartChar: yen
Encoding: 165 165 101
Width: 1097
GlyphClass: 1
Flags: W
LayerCount: 2
Fore
SplineSet
178 1126 m 1,0,-1
 426 578 l 1,1,-1
 159 578 l 1,2,-1
 147 480 l 1,3,-1
 453 480 l 1,4,-1
 453 338 l 1,5,-1
 155 338 l 1,6,-1
 143 240 l 1,7,-1
 453 240 l 1,8,-1
 453 119 l 1,9,-1
 304 71 l 1,10,-1
 294 0 l 1,11,-1
 794 0 l 1,12,-1
 804 78 l 1,13,-1
 640 113 l 1,14,-1
 640 240 l 1,15,-1
 953 240 l 1,16,-1
 964 338 l 1,17,-1
 640 338 l 1,18,-1
 640 480 l 1,19,-1
 957 480 l 1,20,-1
 968 578 l 1,21,-1
 667 578 l 1,22,-1
 921 1130 l 1,23,-1
 1045 1168 l 1,24,-1
 1054 1244 l 1,25,-1
 658 1244 l 1,26,-1
 649 1168 l 1,27,-1
 806 1126 l 1,28,-1
 589 636 l 1,29,-1
 371 1130 l 1,30,-1
 504 1168 l 1,31,-1
 515 1244 l 1,32,-1
 55 1244 l 1,33,-1
 42 1168 l 1,34,-1
 178 1126 l 1,0,-1
EndSplineSet
Substitution2: "'onum' Oldstyle Figures lookup 5 subtable" yen.osf
Substitution2: "'aalt' Access All Alternates lookup 0 subtable" yen.osf
EndChar

StartChar: brokenbar
Encoding: 166 166 102
Width: 335
GlyphClass: 1
Flags: W
LayerCount: 2
Fore
SplineSet
225 529 m 1,0,-1
 227 1248 l 1,1,-1
 109 1260 l 1,2,-1
 109 540 l 1,3,-1
 225 529 l 1,0,-1
228 -380 m 1,4,-1
 228 411 l 1,5,-1
 109 423 l 1,6,-1
 109 -366 l 1,7,-1
 228 -380 l 1,4,-1
EndSplineSet
EndChar

StartChar: section
Encoding: 167 167 103
Width: 889
GlyphClass: 1
Flags: W
LayerCount: 2
Fore
SplineSet
835 300 m 1,0,1
 840 335 840 335 840 360 c 0,2,3
 840 451 840 451 795.5 516.5 c 128,-1,4
 751 582 751 582 687 625.5 c 128,-1,5
 623 669 623 669 518 724 c 0,6,7
 428 772 428 772 376 805.5 c 128,-1,8
 324 839 324 839 289 886 c 128,-1,9
 254 933 254 933 254 995 c 0,10,11
 254 1088 254 1088 306 1136.5 c 128,-1,12
 358 1185 358 1185 438 1185 c 0,13,14
 475 1185 475 1185 510.5 1169.5 c 128,-1,15
 546 1154 546 1154 571 1131.5 c 128,-1,16
 596 1109 596 1109 606 1090 c 1,17,-1
 632 899 l 1,18,-1
 731 887 l 1,19,20
 734 930 734 930 742 1026 c 128,-1,21
 750 1122 750 1122 753 1169 c 1,22,23
 633 1269 633 1269 470 1269 c 0,24,25
 369 1269 369 1269 280.5 1227 c 128,-1,26
 192 1185 192 1185 137.5 1105 c 128,-1,27
 83 1025 83 1025 83 916 c 0,28,29
 83 824 83 824 126.5 756.5 c 128,-1,30
 170 689 170 689 232 645 c 128,-1,31
 294 601 294 601 396 545 c 2,32,-1
 429 527 l 1,33,-1
 835 300 l 1,0,1
610 -335.5 m 128,-1,35
 712 -288 712 -288 774 -201.5 c 128,-1,36
 836 -115 836 -115 836 -4 c 0,37,38
 836 90 836 90 791 157.5 c 128,-1,39
 746 225 746 225 682.5 268 c 128,-1,40
 619 311 619 311 513 367 c 2,41,-1
 439 406 l 1,42,-1
 83 606 l 1,43,44
 78 573 78 573 78 548 c 0,45,46
 78 458 78 458 123.5 391.5 c 128,-1,47
 169 325 169 325 233 280.5 c 128,-1,48
 297 236 297 236 402 180 c 0,49,50
 489 133 489 133 538 101 c 128,-1,51
 587 69 587 69 620 26 c 128,-1,52
 653 -17 653 -17 653 -71 c 0,53,54
 653 -141 653 -141 617 -188.5 c 128,-1,55
 581 -236 581 -236 526 -259 c 128,-1,56
 471 -282 471 -282 415 -282 c 0,57,58
 349 -282 349 -282 293.5 -250 c 128,-1,59
 238 -218 238 -218 209 -172 c 1,60,-1
 172 16 l 1,61,-1
 68 31 l 1,62,-1
 55 -236 l 1,63,64
 106 -299 106 -299 198 -341 c 128,-1,65
 290 -383 290 -383 393 -383 c 0,66,34
 508 -383 508 -383 610 -335.5 c 128,-1,35
EndSplineSet
EndChar

StartChar: ordfeminine
Encoding: 170 170 106
Width: 830
GlyphClass: 1
Flags: W
LayerCount: 2
Fore
SplineSet
429.5 552 m 128,-1,1
 477 589 477 589 504 639 c 1,2,-1
 514 639 l 1,3,-1
 514 627 l 2,4,5
 514 602 514 602 532 577.5 c 128,-1,6
 550 553 550 553 584 536.5 c 128,-1,7
 618 520 618 520 665 520 c 0,8,9
 703 520 703 520 727 529.5 c 128,-1,10
 751 539 751 539 781 566 c 1,11,-1
 792 628 l 1,12,-1
 749 635 l 2,13,14
 693 645 693 645 673.5 668.5 c 128,-1,15
 654 692 654 692 654 748 c 2,16,-1
 654 1008 l 2,17,18
 654 1136 654 1136 605 1195 c 128,-1,19
 556 1254 556 1254 444 1254 c 0,20,21
 384 1254 384 1254 315.5 1233 c 128,-1,22
 247 1212 247 1212 200.5 1176.5 c 128,-1,23
 154 1141 154 1141 154 1100 c 0,24,25
 154 1042 154 1042 187 1009.5 c 128,-1,26
 220 977 220 977 274 977 c 0,27,28
 286 977 286 977 292 978 c 1,29,30
 299 1054 299 1054 307.5 1093 c 128,-1,31
 316 1132 316 1132 334 1151 c 128,-1,32
 352 1170 352 1170 386 1170 c 0,33,34
 434 1170 434 1170 458 1143 c 128,-1,35
 482 1116 482 1116 489 1073.5 c 128,-1,36
 496 1031 496 1031 496 966 c 2,37,-1
 496 932 l 1,38,39
 363 932 363 932 280 892.5 c 128,-1,40
 197 853 197 853 161 793.5 c 128,-1,41
 125 734 125 734 125 668 c 0,42,43
 125 621 125 621 147.5 586 c 128,-1,44
 170 551 170 551 208 533 c 128,-1,45
 246 515 246 515 291 515 c 0,46,0
 382 515 382 515 429.5 552 c 128,-1,1
496 694 m 2,47,48
 493 691 493 691 474 670 c 128,-1,49
 455 649 455 649 431 638 c 128,-1,50
 407 627 407 627 379 627 c 0,51,52
 336 627 336 627 314.5 654 c 128,-1,53
 293 681 293 681 293 716 c 0,54,55
 293 776 293 776 339.5 814.5 c 128,-1,56
 386 853 386 853 496 873 c 1,57,-1
 496 694 l 2,47,48
EndSplineSet
EndChar

StartChar: guillemotleft
Encoding: 171 171 107
Width: 643
GlyphClass: 1
Flags: W
LayerCount: 2
Fore
SplineSet
24 449 m 1,0,-1
 286 77 l 1,1,-1
 338 141 l 1,2,-1
 171 461 l 1,3,-1
 335 761 l 1,4,-1
 292 820 l 1,5,-1
 23 469 l 1,6,-1
 24 449 l 1,0,-1
271 449 m 1,7,-1
 534 77 l 1,8,-1
 586 141 l 1,9,-1
 418 461 l 1,10,-1
 583 761 l 1,11,-1
 538 820 l 1,12,-1
 270 469 l 1,13,-1
 271 449 l 1,7,-1
EndSplineSet
EndChar

StartChar: logicalnot
Encoding: 172 172 108
Width: 910
GlyphClass: 1
Flags: W
LayerCount: 2
Fore
SplineSet
726 559 m 1,0,-1
 726 332 l 1,1,-1
 832 351 l 1,2,-1
 830 663 l 1,3,-1
 86 663 l 1,4,-1
 74 559 l 1,5,-1
 726 559 l 1,0,-1
EndSplineSet
EndChar

StartChar: uni00AD
Encoding: 173 173 109
Width: 580
GlyphClass: 1
Flags: W
LayerCount: 2
Fore
SplineSet
492 465 m 1,0,-1
 500 581 l 1,1,-1
 92 521 l 1,2,-1
 85 406 l 1,3,-1
 492 465 l 1,0,-1
EndSplineSet
EndChar

StartChar: macron
Encoding: 175 175 111
Width: 637
GlyphClass: 1
Flags: W
LayerCount: 2
Fore
SplineSet
534 1379 m 1,0,-1
 547 1479 l 1,1,-1
 105 1479 l 1,2,-1
 92 1379 l 1,3,-1
 534 1379 l 1,0,-1
EndSplineSet
EndChar

StartChar: degree
Encoding: 176 176 112
Width: 424
GlyphClass: 1
Flags: W
LayerCount: 2
Fore
SplineSet
298.5 954 m 128,-1,1
 343 980 343 980 369.5 1026 c 128,-1,2
 396 1072 396 1072 396 1128 c 0,3,4
 396 1212 396 1212 353 1258 c 128,-1,5
 310 1304 310 1304 225 1304 c 0,6,7
 172 1304 172 1304 128 1276.5 c 128,-1,8
 84 1249 84 1249 58 1203.5 c 128,-1,9
 32 1158 32 1158 32 1107 c 0,10,11
 32 1021 32 1021 77.5 974.5 c 128,-1,12
 123 928 123 928 201 928 c 0,13,0
 254 928 254 928 298.5 954 c 128,-1,1
278.5 1196.5 m 128,-1,15
 304 1156 304 1156 304 1105 c 0,16,17
 304 1051 304 1051 282 1023 c 128,-1,18
 260 995 260 995 219 995 c 0,19,20
 174 995 174 995 148.5 1036.5 c 128,-1,21
 123 1078 123 1078 123 1129 c 0,22,23
 123 1174 123 1174 145 1205.5 c 128,-1,24
 167 1237 167 1237 209 1237 c 0,25,14
 253 1237 253 1237 278.5 1196.5 c 128,-1,15
EndSplineSet
EndChar

StartChar: plusminus
Encoding: 177 177 113
Width: 737
GlyphClass: 1
Flags: W
LayerCount: 2
Fore
SplineSet
304 475 m 1,0,-1
 304 251 l 1,1,-1
 415 240 l 1,2,-1
 414 475 l 1,3,-1
 621 475 l 1,4,-1
 633 575 l 1,5,-1
 414 575 l 1,6,-1
 412 795 l 1,7,-1
 304 807 l 1,8,-1
 304 575 l 1,9,-1
 95 575 l 1,10,-1
 83 475 l 1,11,-1
 304 475 l 1,0,-1
670 19 m 1,12,-1
 686 123 l 1,13,-1
 74 117 l 1,14,-1
 58 13 l 1,15,-1
 670 19 l 1,12,-1
EndSplineSet
EndChar

StartChar: uni00B5
Encoding: 181 181 115
Width: 1008
GlyphClass: 1
Flags: W
LayerCount: 2
Fore
SplineSet
165 494 m 2,0,1
 165 326 165 326 156 73.5 c 128,-1,2
 147 -179 147 -179 139 -334 c 0,3,4
 139 -348 139 -348 138.5 -354 c 128,-1,5
 138 -360 138 -360 138 -362 c 2,6,-1
 271 -388 l 1,7,-1
 253 -86 l 2,8,9
 249 -24 249 -24 239 37 c 1,10,-1
 246 37 l 1,11,12
 293 -24 293 -24 387 -24 c 0,13,14
 469 -24 469 -24 537 13.5 c 128,-1,15
 605 51 605 51 675 129 c 1,16,-1
 686 129 l 1,17,-1
 686 121 l 2,18,19
 686 56 686 56 723 16 c 128,-1,20
 760 -24 760 -24 832 -24 c 0,21,22
 878 -24 878 -24 909 -20.5 c 128,-1,23
 940 -17 940 -17 985 -6 c 1,24,-1
 993 77 l 1,25,-1
 948 87 l 2,26,27
 905 97 905 97 884.5 105.5 c 128,-1,28
 864 114 864 114 851.5 138.5 c 128,-1,29
 839 163 839 163 839 213 c 2,30,-1
 839 866 l 1,31,-1
 818 892 l 1,32,-1
 523 863 l 1,33,-1
 513 773 l 1,34,-1
 675 731 l 1,35,-1
 675 188 l 1,36,37
 637 158 637 158 615.5 143 c 128,-1,38
 594 128 594 128 561.5 116.5 c 128,-1,39
 529 105 529 105 487 105 c 0,40,41
 415 105 415 105 374.5 155.5 c 128,-1,42
 334 206 334 206 334 314 c 2,43,-1
 334 866 l 1,44,-1
 309 892 l 1,45,-1
 40 870 l 1,46,-1
 28 790 l 1,47,-1
 165 736 l 1,48,-1
 165 494 l 2,0,1
EndSplineSet
EndChar

StartChar: paragraph
Encoding: 182 182 116
Width: 1289
GlyphClass: 1
Flags: W
LayerCount: 2
Fore
SplineSet
562 546 m 1,0,1
 457 546 457 546 387 588.5 c 128,-1,2
 317 631 317 631 283 702.5 c 128,-1,3
 249 774 249 774 249 863 c 0,4,5
 249 1000 249 1000 329.5 1077 c 128,-1,6
 410 1154 410 1154 568 1154 c 2,7,-1
 675 1152 l 1,8,-1
 675 121 l 1,9,-1
 434 74 l 1,10,-1
 427 0 l 1,11,-1
 833 0 l 1,12,-1
 833 1245 l 1,13,-1
 487 1245 l 2,14,15
 367 1245 367 1245 265 1190 c 128,-1,16
 163 1135 163 1135 103.5 1039.5 c 128,-1,17
 44 944 44 944 44 828 c 0,18,19
 44 625 44 625 183.5 536.5 c 128,-1,20
 323 448 323 448 544 448 c 1,21,-1
 562 546 l 1,0,1
1224 0 m 1,22,-1
 1234 80 l 1,23,-1
 1053 114 l 1,24,-1
 1053 1130 l 1,25,-1
 1223 1168 l 1,26,-1
 1232 1245 l 1,27,-1
 912 1245 l 1,28,-1
 912 0 l 1,29,-1
 1224 0 l 1,22,-1
EndSplineSet
Substitution2: "'smcp' Lowercase to Small Capitals lookup 7 subtable" paragraph.sc
Substitution2: "'c2sc' Capitals to Small Capitals lookup 6 subtable" paragraph.sc
Substitution2: "'aalt' Access All Alternates lookup 0 subtable" paragraph.sc
EndChar

StartChar: periodcentered
Encoding: 183 183 117
Width: 406
GlyphClass: 1
Flags: W
LayerCount: 2
Fore
SplineSet
263.5 397.5 m 128,-1,1
 292 414 292 414 308.5 442.5 c 128,-1,2
 325 471 325 471 325 504 c 0,3,4
 325 552 325 552 289 585 c 128,-1,5
 253 618 253 618 203 618 c 0,6,7
 154 618 154 618 118.5 584.5 c 128,-1,8
 83 551 83 551 83 504 c 0,9,10
 83 454 83 454 118.5 417.5 c 128,-1,11
 154 381 154 381 203 381 c 0,12,0
 235 381 235 381 263.5 397.5 c 128,-1,1
EndSplineSet
EndChar

StartChar: cedilla
Encoding: 184 184 118
Width: 341
GlyphClass: 1
Flags: W
LayerCount: 2
Fore
SplineSet
229 -322 m 128,-1,1
 282 -283 282 -283 282 -227 c 0,2,3
 282 -183 282 -183 257 -146.5 c 128,-1,4
 232 -110 232 -110 193 -76 c 1,5,-1
 246 3 l 1,6,-1
 172 3 l 1,7,-1
 74 -138 l 1,8,9
 148 -208 148 -208 148 -248 c 0,10,11
 148 -272 148 -272 125.5 -294.5 c 128,-1,12
 103 -317 103 -317 62 -331 c 1,13,-1
 81 -389 l 1,14,0
 176 -361 176 -361 229 -322 c 128,-1,1
EndSplineSet
EndChar

StartChar: ordmasculine
Encoding: 186 186 119
Width: 934
GlyphClass: 1
Flags: W
LayerCount: 2
Fore
SplineSet
644 561.5 m 128,-1,1
 725 609 725 609 772.5 694 c 128,-1,2
 820 779 820 779 820 888 c 0,3,4
 820 998 820 998 779.5 1081.5 c 128,-1,5
 739 1165 739 1165 663 1211.5 c 128,-1,6
 587 1258 587 1258 484 1258 c 0,7,8
 387 1258 387 1258 302 1212 c 128,-1,9
 217 1166 217 1166 165.5 1079.5 c 128,-1,10
 114 993 114 993 114 876 c 0,11,12
 114 772 114 772 155.5 690 c 128,-1,13
 197 608 197 608 276 561 c 128,-1,14
 355 514 355 514 464 514 c 0,15,0
 563 514 563 514 644 561.5 c 128,-1,1
603 1071 m 128,-1,17
 648 968 648 968 648 823 c 0,18,19
 648 725 648 725 611.5 658.5 c 128,-1,20
 575 592 575 592 492 592 c 0,21,22
 378 592 378 592 332 689 c 128,-1,23
 286 786 286 786 286 933 c 0,24,25
 286 1174 286 1174 448 1174 c 0,26,16
 558 1174 558 1174 603 1071 c 128,-1,17
EndSplineSet
EndChar

StartChar: guillemotright
Encoding: 187 187 120
Width: 645
GlyphClass: 1
Flags: W
LayerCount: 2
Fore
SplineSet
113 77 m 1,0,-1
 374 449 l 1,1,-1
 376 469 l 1,2,-1
 108 820 l 1,3,-1
 64 761 l 1,4,-1
 228 461 l 1,5,-1
 61 141 l 1,6,-1
 113 77 l 1,0,-1
360 77 m 1,7,-1
 621 449 l 1,8,-1
 623 469 l 1,9,-1
 355 820 l 1,10,-1
 311 761 l 1,11,-1
 476 461 l 1,12,-1
 308 141 l 1,13,-1
 360 77 l 1,7,-1
EndSplineSet
EndChar

StartChar: onequarter
Encoding: 188 188 121
Width: 1441
GlyphClass: 1
Flags: W
LayerCount: 2
Fore
SplineSet
528 531 m 1,0,-1
 534 614 l 1,1,-1
 382 627 l 1,2,-1
 382 1245 l 1,3,-1
 363 1245 l 1,4,-1
 61 1199 l 1,5,-1
 57 1122 l 1,6,-1
 202 1122 l 1,7,-1
 202 630 l 1,8,-1
 49 605 l 1,9,-1
 45 531 l 1,10,-1
 528 531 l 1,0,-1
436 -32 m 1,11,-1
 807 591 l 1,12,-1
 1208 1178 l 1,13,-1
 1210 1207 l 1,14,-1
 1054 1210 l 1,15,-1
 663 588 l 1,16,-1
 256 -10 l 1,17,-1
 436 -32 l 1,11,-1
1090 178 m 1,18,-1
 1090 85 l 1,19,-1
 953 58 l 1,20,-1
 949 0 l 1,21,-1
 1363 0 l 1,22,-1
 1369 65 l 1,23,-1
 1248 83 l 1,24,-1
 1248 175 l 1,25,-1
 1387 175 l 1,26,-1
 1396 272 l 1,27,-1
 1248 272 l 1,28,-1
 1248 430 l 2,29,30
 1248 598 1248 598 1257 726 c 1,31,-1
 1200 737 l 1,32,-1
 790 270 l 1,33,-1
 803 178 l 1,34,-1
 1090 178 l 1,18,-1
1087 508 m 1,35,-1
 1087 272 l 1,36,-1
 897 272 l 1,37,-1
 1087 508 l 1,35,-1
EndSplineSet
Ligature2: "'frac' Diagonal Fractions lookup 2 subtable" one slash four
EndChar

StartChar: onehalf
Encoding: 189 189 122
Width: 1496
GlyphClass: 1
Flags: W
LayerCount: 2
Fore
SplineSet
528 531 m 1,0,-1
 534 614 l 1,1,-1
 382 627 l 1,2,-1
 382 1245 l 1,3,-1
 363 1245 l 1,4,-1
 61 1199 l 1,5,-1
 57 1122 l 1,6,-1
 202 1122 l 1,7,-1
 202 630 l 1,8,-1
 49 605 l 1,9,-1
 45 531 l 1,10,-1
 528 531 l 1,0,-1
436 -32 m 1,11,-1
 807 591 l 1,12,-1
 1208 1178 l 1,13,-1
 1210 1207 l 1,14,-1
 1034 1210 l 1,15,-1
 643 588 l 1,16,-1
 236 -10 l 1,17,-1
 436 -32 l 1,11,-1
1432 2 m 1,18,-1
 1451 255 l 1,19,-1
 1394 276 l 1,20,-1
 1315 123 l 1,21,-1
 1045 123 l 1,22,-1
 1112 167 l 2,23,24
 1208 230 1208 230 1274 285.5 c 128,-1,25
 1340 341 1340 341 1381.5 405.5 c 128,-1,26
 1423 470 1423 470 1423 542 c 0,27,28
 1423 631 1423 631 1360 679.5 c 128,-1,29
 1297 728 1297 728 1182 728 c 0,30,31
 1099 728 1099 728 1018.5 697 c 128,-1,32
 938 666 938 666 909 612 c 1,33,-1
 924 442 l 1,34,-1
 992 437 l 1,35,-1
 1014 566 l 1,36,37
 1026 591 1026 591 1054 607.5 c 128,-1,38
 1082 624 1082 624 1118 624 c 0,39,40
 1182 624 1182 624 1204.5 583 c 128,-1,41
 1227 542 1227 542 1227 476 c 0,42,43
 1227 423 1227 423 1179 363 c 128,-1,44
 1131 303 1131 303 1044 232 c 2,45,-1
 889 109 l 1,46,-1
 881 2 l 1,47,-1
 1432 2 l 1,18,-1
EndSplineSet
Ligature2: "'frac' Diagonal Fractions lookup 2 subtable" one slash two
EndChar

StartChar: threequarters
Encoding: 190 190 123
Width: 1420
GlyphClass: 1
Flags: W
LayerCount: 2
Fore
SplineSet
425 510 m 128,-1,1
 504 542 504 542 551 597 c 128,-1,2
 598 652 598 652 598 719 c 0,3,4
 598 797 598 797 543 844.5 c 128,-1,5
 488 892 488 892 380 903 c 1,6,-1
 380 910 l 1,7,8
 460 933 460 933 509.5 980 c 128,-1,9
 559 1027 559 1027 559 1100 c 0,10,11
 559 1177 559 1177 491.5 1219.5 c 128,-1,12
 424 1262 424 1262 319 1262 c 0,13,14
 269 1262 269 1262 217 1248.5 c 128,-1,15
 165 1235 165 1235 125.5 1213.5 c 128,-1,16
 86 1192 86 1192 70 1170 c 1,17,-1
 82 999 l 1,18,-1
 158 993 l 1,19,-1
 182 1150 l 1,20,21
 196 1163 196 1163 216.5 1167.5 c 128,-1,22
 237 1172 237 1172 265 1172 c 0,23,24
 316 1172 316 1172 344 1136 c 128,-1,25
 372 1100 372 1100 372 1053 c 0,26,27
 372 989 372 989 313 950.5 c 128,-1,28
 254 912 254 912 188 891 c 1,29,-1
 204 832 l 1,30,31
 263 832 263 832 309.5 814.5 c 128,-1,32
 356 797 356 797 382 767 c 128,-1,33
 408 737 408 737 408 702 c 0,34,35
 408 638 408 638 367.5 600 c 128,-1,36
 327 562 327 562 257 562 c 0,37,38
 226 562 226 562 199 573.5 c 128,-1,39
 172 585 172 585 158 602 c 1,40,-1
 150 737 l 1,41,-1
 75 745 l 1,42,-1
 45 546 l 1,43,44
 60 515 60 515 119.5 496.5 c 128,-1,45
 179 478 179 478 253 478 c 0,46,0
 346 478 346 478 425 510 c 128,-1,1
449 -32 m 1,47,-1
 820 591 l 1,48,-1
 1221 1178 l 1,49,-1
 1223 1207 l 1,50,-1
 1047 1210 l 1,51,-1
 656 588 l 1,52,-1
 249 -10 l 1,53,-1
 449 -32 l 1,47,-1
1069 178 m 1,54,-1
 1069 85 l 1,55,-1
 932 58 l 1,56,-1
 928 0 l 1,57,-1
 1342 0 l 1,58,-1
 1348 65 l 1,59,-1
 1227 83 l 1,60,-1
 1227 175 l 1,61,-1
 1366 175 l 1,62,-1
 1375 272 l 1,63,-1
 1227 272 l 1,64,-1
 1227 430 l 2,65,66
 1227 598 1227 598 1236 726 c 1,67,-1
 1179 737 l 1,68,-1
 769 270 l 1,69,-1
 782 178 l 1,70,-1
 1069 178 l 1,54,-1
1066 508 m 1,71,-1
 1066 272 l 1,72,-1
 876 272 l 1,73,-1
 1066 508 l 1,71,-1
EndSplineSet
Ligature2: "'frac' Diagonal Fractions lookup 2 subtable" three slash four
EndChar

StartChar: questiondown
Encoding: 191 191 124
Width: 636
GlyphClass: 1
Flags: W
LayerCount: 2
Fore
SplineSet
445.5 723.5 m 128,-1,1
 482 757 482 757 482 807 c 0,2,3
 482 860 482 860 446.5 898 c 128,-1,4
 411 936 411 936 359 936 c 256,5,6
 307 936 307 936 270 899.5 c 128,-1,7
 233 863 233 863 233 810 c 0,8,9
 233 777 233 777 250.5 749.5 c 128,-1,10
 268 722 268 722 297 706 c 128,-1,11
 326 690 326 690 359 690 c 0,12,0
 409 690 409 690 445.5 723.5 c 128,-1,1
513 -366.5 m 128,-1,14
 557 -345 557 -345 575 -314.5 c 128,-1,15
 593 -284 593 -284 593 -253 c 0,16,17
 593 -215 593 -215 570 -184 c 128,-1,18
 547 -153 547 -153 519 -142 c 1,19,20
 487 -176 487 -176 436.5 -194.5 c 128,-1,21
 386 -213 386 -213 328 -213 c 0,22,23
 298 -213 298 -213 258.5 -188 c 128,-1,24
 219 -163 219 -163 191.5 -123 c 128,-1,25
 164 -83 164 -83 164 -40 c 0,26,27
 164 7 164 7 184 38 c 128,-1,28
 204 69 204 69 233.5 87.5 c 128,-1,29
 263 106 263 106 312 128 c 0,30,31
 364 151 364 151 395.5 171 c 128,-1,32
 427 191 427 191 448.5 226 c 128,-1,33
 470 261 470 261 470 314 c 0,34,35
 470 368 470 368 445 431.5 c 128,-1,36
 420 495 420 495 393 534 c 1,37,-1
 319 517 l 1,38,39
 341 445 341 445 341 391 c 0,40,41
 341 361 341 361 325.5 338.5 c 128,-1,42
 310 316 310 316 286.5 300 c 128,-1,43
 263 284 263 284 222 262 c 0,44,45
 168 233 168 233 134.5 208.5 c 128,-1,46
 101 184 101 184 77 142.5 c 128,-1,47
 53 101 53 101 53 40 c 0,48,49
 53 -81 53 -81 105 -179 c 128,-1,50
 157 -277 157 -277 237 -332.5 c 128,-1,51
 317 -388 317 -388 396 -388 c 0,52,13
 469 -388 469 -388 513 -366.5 c 128,-1,14
EndSplineSet
EndChar

StartChar: Agrave
Encoding: 192 192 125
Width: 1289
GlyphClass: 1
Flags: W
LayerCount: 2
Fore
SplineSet
638 1334 m 1,0,-1
 695 1368 l 1,1,-1
 563 1702 l 1,2,-1
 447 1664 l 1,3,-1
 638 1334 l 1,0,-1
442 0 m 1,4,-1
 453 80 l 1,5,-1
 267 124 l 1,6,-1
 379 432 l 1,7,-1
 798 432 l 1,8,-1
 907 129 l 1,9,-1
 736 74 l 1,10,-1
 724 0 l 1,11,-1
 1239 0 l 1,12,-1
 1248 80 l 1,13,-1
 1111 124 l 1,14,-1
 721 1268 l 1,15,-1
 570 1237 l 1,16,-1
 132 129 l 1,17,-1
 -17 74 l 1,18,-1
 -26 0 l 1,19,-1
 442 0 l 1,4,-1
603 1034 m 1,20,-1
 769 534 l 1,21,-1
 417 534 l 1,22,-1
 603 1034 l 1,20,-1
EndSplineSet
Substitution2: "'c2sc' Capitals to Small Capitals lookup 6 subtable" agrave.sc
Substitution2: "'aalt' Access All Alternates lookup 0 subtable" agrave.sc
EndChar

StartChar: Aacute
Encoding: 193 193 126
Width: 1289
GlyphClass: 1
Flags: W
LayerCount: 2
Fore
SplineSet
654 1354 m 1,0,-1
 838 1670 l 1,1,-1
 727 1710 l 1,2,-1
 604 1385 l 1,3,-1
 654 1354 l 1,0,-1
442 0 m 1,4,-1
 453 80 l 1,5,-1
 267 124 l 1,6,-1
 379 432 l 1,7,-1
 798 432 l 1,8,-1
 907 129 l 1,9,-1
 736 74 l 1,10,-1
 724 0 l 1,11,-1
 1239 0 l 1,12,-1
 1248 80 l 1,13,-1
 1111 124 l 1,14,-1
 721 1268 l 1,15,-1
 570 1237 l 1,16,-1
 132 129 l 1,17,-1
 -17 74 l 1,18,-1
 -26 0 l 1,19,-1
 442 0 l 1,4,-1
603 1034 m 1,20,-1
 769 534 l 1,21,-1
 417 534 l 1,22,-1
 603 1034 l 1,20,-1
EndSplineSet
Substitution2: "'c2sc' Capitals to Small Capitals lookup 6 subtable" aacute.sc
Substitution2: "'aalt' Access All Alternates lookup 0 subtable" aacute.sc
EndChar

StartChar: Acircumflex
Encoding: 194 194 127
Width: 1289
GlyphClass: 1
Flags: W
LayerCount: 2
Fore
SplineSet
491 1361 m 1,0,-1
 632 1472 l 1,1,-1
 643 1472 l 1,2,-1
 805 1364 l 1,3,-1
 855 1400 l 1,4,-1
 677 1585 l 1,5,-1
 622 1572 l 1,6,-1
 454 1392 l 1,7,-1
 491 1361 l 1,0,-1
442 0 m 1,8,-1
 453 80 l 1,9,-1
 267 124 l 1,10,-1
 379 432 l 1,11,-1
 798 432 l 1,12,-1
 907 129 l 1,13,-1
 736 74 l 1,14,-1
 724 0 l 1,15,-1
 1239 0 l 1,16,-1
 1248 80 l 1,17,-1
 1111 124 l 1,18,-1
 721 1268 l 1,19,-1
 570 1237 l 1,20,-1
 132 129 l 1,21,-1
 -17 74 l 1,22,-1
 -26 0 l 1,23,-1
 442 0 l 1,8,-1
603 1034 m 1,24,-1
 769 534 l 1,25,-1
 417 534 l 1,26,-1
 603 1034 l 1,24,-1
EndSplineSet
Substitution2: "'c2sc' Capitals to Small Capitals lookup 6 subtable" acircumflex.sc
Substitution2: "'aalt' Access All Alternates lookup 0 subtable" acircumflex.sc
EndChar

StartChar: Atilde
Encoding: 195 195 128
Width: 1289
GlyphClass: 1
Flags: W
LayerCount: 2
Fore
SplineSet
467 1391 m 128,-1,1
 476 1402 476 1402 489.5 1412.5 c 128,-1,2
 503 1423 503 1423 515 1423 c 2,3,-1
 518 1423 l 1,4,-1
 741 1392 l 2,5,6
 745 1391 745 1391 754 1391 c 0,7,8
 795 1391 795 1391 823.5 1423 c 128,-1,9
 852 1455 852 1455 867.5 1492 c 128,-1,10
 883 1529 883 1529 883 1535 c 1,11,-1
 836 1536 l 2,12,13
 834 1533 834 1533 824.5 1523.5 c 128,-1,14
 815 1514 815 1514 802.5 1505 c 128,-1,15
 790 1496 790 1496 779 1496 c 2,16,-1
 775 1496 l 1,17,-1
 554 1526 l 2,18,19
 551 1527 551 1527 546.5 1526.5 c 128,-1,20
 542 1526 542 1526 540 1526 c 0,21,22
 500 1526 500 1526 473 1494 c 128,-1,23
 446 1462 446 1462 431.5 1425.5 c 128,-1,24
 417 1389 417 1389 417 1383 c 1,25,-1
 456 1376 l 1,26,0
 458 1380 458 1380 467 1391 c 128,-1,1
442 0 m 1,27,-1
 453 80 l 1,28,-1
 267 124 l 1,29,-1
 379 432 l 1,30,-1
 798 432 l 1,31,-1
 907 129 l 1,32,-1
 736 74 l 1,33,-1
 724 0 l 1,34,-1
 1239 0 l 1,35,-1
 1248 80 l 1,36,-1
 1111 124 l 1,37,-1
 721 1268 l 1,38,-1
 570 1237 l 1,39,-1
 132 129 l 1,40,-1
 -17 74 l 1,41,-1
 -26 0 l 1,42,-1
 442 0 l 1,27,-1
603 1034 m 1,43,-1
 769 534 l 1,44,-1
 417 534 l 1,45,-1
 603 1034 l 1,43,-1
EndSplineSet
Substitution2: "'c2sc' Capitals to Small Capitals lookup 6 subtable" atilde.sc
Substitution2: "'aalt' Access All Alternates lookup 0 subtable" atilde.sc
EndChar

StartChar: Adieresis
Encoding: 196 196 129
Width: 1289
GlyphClass: 1
Flags: W
LayerCount: 2
Fore
SplineSet
577.5 1395.5 m 128,-1,1
 603 1418 603 1418 603 1453 c 0,2,3
 603 1486 603 1486 577 1508 c 128,-1,4
 551 1530 551 1530 517 1530 c 0,5,6
 485 1530 485 1530 459.5 1508.5 c 128,-1,7
 434 1487 434 1487 434 1453 c 0,8,9
 434 1418 434 1418 458.5 1395.5 c 128,-1,10
 483 1373 483 1373 517 1373 c 0,11,0
 552 1373 552 1373 577.5 1395.5 c 128,-1,1
845.5 1395.5 m 128,-1,13
 872 1418 872 1418 872 1453 c 0,14,15
 872 1486 872 1486 845.5 1508 c 128,-1,16
 819 1530 819 1530 784 1530 c 0,17,18
 752 1530 752 1530 726.5 1508.5 c 128,-1,19
 701 1487 701 1487 701 1453 c 0,20,21
 701 1418 701 1418 725.5 1395.5 c 128,-1,22
 750 1373 750 1373 784 1373 c 0,23,12
 819 1373 819 1373 845.5 1395.5 c 128,-1,13
442 0 m 1,24,-1
 453 80 l 1,25,-1
 267 124 l 1,26,-1
 379 432 l 1,27,-1
 798 432 l 1,28,-1
 907 129 l 1,29,-1
 736 74 l 1,30,-1
 724 0 l 1,31,-1
 1239 0 l 1,32,-1
 1248 80 l 1,33,-1
 1111 124 l 1,34,-1
 721 1268 l 1,35,-1
 570 1237 l 1,36,-1
 132 129 l 1,37,-1
 -17 74 l 1,38,-1
 -26 0 l 1,39,-1
 442 0 l 1,24,-1
603 1034 m 1,40,-1
 769 534 l 1,41,-1
 417 534 l 1,42,-1
 603 1034 l 1,40,-1
EndSplineSet
Substitution2: "'c2sc' Capitals to Small Capitals lookup 6 subtable" adieresis.sc
Substitution2: "'aalt' Access All Alternates lookup 0 subtable" adieresis.sc
EndChar

StartChar: Aring
Encoding: 197 197 130
Width: 1289
GlyphClass: 1
Flags: W
LayerCount: 2
Fore
SplineSet
734.5 1391.5 m 128,-1,1
 773 1416 773 1416 794 1456.5 c 128,-1,2
 815 1497 815 1497 815 1542 c 0,3,4
 815 1613 815 1613 773 1658.5 c 128,-1,5
 731 1704 731 1704 660 1704 c 0,6,7
 614 1704 614 1704 575.5 1680.5 c 128,-1,8
 537 1657 537 1657 514 1617 c 128,-1,9
 491 1577 491 1577 491 1532 c 0,10,11
 491 1456 491 1456 534 1411.5 c 128,-1,12
 577 1367 577 1367 647 1367 c 0,13,0
 696 1367 696 1367 734.5 1391.5 c 128,-1,1
718 1617.5 m 128,-1,15
 745 1579 745 1579 745 1529 c 0,16,17
 745 1475 745 1475 722 1445 c 128,-1,18
 699 1415 699 1415 658 1415 c 0,19,20
 613 1415 613 1415 588 1453.5 c 128,-1,21
 563 1492 563 1492 563 1543 c 0,22,23
 563 1590 563 1590 584.5 1623 c 128,-1,24
 606 1656 606 1656 647 1656 c 0,25,14
 691 1656 691 1656 718 1617.5 c 128,-1,15
442 0 m 1,26,-1
 453 80 l 1,27,-1
 267 124 l 1,28,-1
 379 432 l 1,29,-1
 798 432 l 1,30,-1
 907 129 l 1,31,-1
 736 74 l 1,32,-1
 724 0 l 1,33,-1
 1239 0 l 1,34,-1
 1248 80 l 1,35,-1
 1111 124 l 1,36,-1
 721 1268 l 1,37,-1
 570 1237 l 1,38,-1
 132 129 l 1,39,-1
 -17 74 l 1,40,-1
 -26 0 l 1,41,-1
 442 0 l 1,26,-1
603 1034 m 1,42,-1
 769 534 l 1,43,-1
 417 534 l 1,44,-1
 603 1034 l 1,42,-1
EndSplineSet
Substitution2: "'c2sc' Capitals to Small Capitals lookup 6 subtable" aring.sc
Substitution2: "'aalt' Access All Alternates lookup 0 subtable" aring.sc
EndChar

StartChar: Ccedilla
Encoding: 199 199 132
Width: 1112
GlyphClass: 1
Flags: W
LayerCount: 2
Fore
SplineSet
663 -24 m 1,0,-1
 585 -138 l 1,1,2
 658 -207 658 -207 658 -248 c 0,3,4
 658 -272 658 -272 635.5 -294.5 c 128,-1,5
 613 -317 613 -317 572 -331 c 1,6,-1
 592 -389 l 1,7,8
 686 -361 686 -361 739 -322 c 128,-1,9
 792 -283 792 -283 792 -227 c 0,10,11
 792 -183 792 -183 767 -146.5 c 128,-1,12
 742 -110 742 -110 703 -76 c 1,13,-1
 743 -18 l 1,14,15
 860 1 860 1 959 59 c 128,-1,16
 1058 117 1058 117 1114 185 c 1,17,-1
 1078 261 l 1,18,19
 1007 196 1007 196 915 153.5 c 128,-1,20
 823 111 823 111 729 111 c 0,21,22
 607 111 607 111 503.5 174.5 c 128,-1,23
 400 238 400 238 337.5 361.5 c 128,-1,24
 275 485 275 485 275 658 c 0,25,26
 275 815 275 815 324 932 c 128,-1,27
 373 1049 373 1049 457.5 1111.5 c 128,-1,28
 542 1174 542 1174 647 1174 c 0,29,30
 739 1174 739 1174 804 1145.5 c 128,-1,31
 869 1117 869 1117 906 1070 c 1,32,-1
 947 850 l 1,33,-1
 1035 837 l 1,34,-1
 1066 1169 l 1,35,36
 998 1221 998 1221 904.5 1245 c 128,-1,37
 811 1269 811 1269 705 1269 c 0,38,39
 490 1269 490 1269 344.5 1165.5 c 128,-1,40
 199 1062 199 1062 130 905.5 c 128,-1,41
 61 749 61 749 61 589 c 0,42,43
 61 397 61 397 142.5 258 c 128,-1,44
 224 119 224 119 359.5 47.5 c 128,-1,45
 495 -24 495 -24 652 -24 c 2,46,-1
 663 -24 l 1,0,-1
EndSplineSet
Substitution2: "'c2sc' Capitals to Small Capitals lookup 6 subtable" ccedilla.sc
Substitution2: "'aalt' Access All Alternates lookup 0 subtable" ccedilla.sc
EndChar

StartChar: Egrave
Encoding: 200 200 133
Width: 1075
GlyphClass: 1
Flags: W
LayerCount: 2
Fore
SplineSet
633 1334 m 1,0,-1
 691 1368 l 1,1,-1
 559 1702 l 1,2,-1
 443 1664 l 1,3,-1
 633 1334 l 1,0,-1
232 1126 m 1,4,-1
 232 121 l 1,5,-1
 65 74 l 1,6,-1
 57 0 l 1,7,-1
 1072 0 l 1,8,-1
 1102 313 l 1,9,-1
 1019 326 l 1,10,-1
 921 96 l 1,11,-1
 426 96 l 1,12,-1
 426 583 l 1,13,-1
 700 583 l 1,14,-1
 734 408 l 1,15,-1
 819 421 l 1,16,-1
 853 810 l 1,17,-1
 758 796 l 1,18,-1
 716 676 l 1,19,-1
 426 676 l 1,20,-1
 426 1152 l 1,21,-1
 897 1152 l 1,22,-1
 938 937 l 1,23,-1
 1025 924 l 1,24,-1
 1056 1244 l 1,25,-1
 61 1244 l 1,26,-1
 50 1168 l 1,27,-1
 232 1126 l 1,4,-1
EndSplineSet
Substitution2: "'c2sc' Capitals to Small Capitals lookup 6 subtable" egrave.sc
Substitution2: "'aalt' Access All Alternates lookup 0 subtable" egrave.sc
EndChar

StartChar: Eacute
Encoding: 201 201 134
Width: 1075
GlyphClass: 1
Flags: W
LayerCount: 2
Fore
SplineSet
568 1354 m 1,0,-1
 751 1670 l 1,1,-1
 640 1710 l 1,2,-1
 517 1385 l 1,3,-1
 568 1354 l 1,0,-1
232 1126 m 1,4,-1
 232 121 l 1,5,-1
 65 74 l 1,6,-1
 57 0 l 1,7,-1
 1072 0 l 1,8,-1
 1102 313 l 1,9,-1
 1019 326 l 1,10,-1
 921 96 l 1,11,-1
 426 96 l 1,12,-1
 426 583 l 1,13,-1
 700 583 l 1,14,-1
 734 408 l 1,15,-1
 819 421 l 1,16,-1
 853 810 l 1,17,-1
 758 796 l 1,18,-1
 716 676 l 1,19,-1
 426 676 l 1,20,-1
 426 1152 l 1,21,-1
 897 1152 l 1,22,-1
 938 937 l 1,23,-1
 1025 924 l 1,24,-1
 1056 1244 l 1,25,-1
 61 1244 l 1,26,-1
 50 1168 l 1,27,-1
 232 1126 l 1,4,-1
EndSplineSet
Substitution2: "'c2sc' Capitals to Small Capitals lookup 6 subtable" eacute.sc
Substitution2: "'aalt' Access All Alternates lookup 0 subtable" eacute.sc
EndChar

StartChar: Edieresis
Encoding: 203 203 136
Width: 1075
GlyphClass: 1
Flags: W
LayerCount: 2
Fore
SplineSet
523.5 1395.5 m 128,-1,1
 549 1418 549 1418 549 1453 c 0,2,3
 549 1486 549 1486 523 1508 c 128,-1,4
 497 1530 497 1530 463 1530 c 0,5,6
 431 1530 431 1530 405.5 1508.5 c 128,-1,7
 380 1487 380 1487 380 1453 c 0,8,9
 380 1418 380 1418 404.5 1395.5 c 128,-1,10
 429 1373 429 1373 463 1373 c 0,11,0
 498 1373 498 1373 523.5 1395.5 c 128,-1,1
791.5 1395.5 m 128,-1,13
 818 1418 818 1418 818 1453 c 0,14,15
 818 1486 818 1486 791.5 1508 c 128,-1,16
 765 1530 765 1530 730 1530 c 0,17,18
 698 1530 698 1530 672.5 1508.5 c 128,-1,19
 647 1487 647 1487 647 1453 c 0,20,21
 647 1418 647 1418 671.5 1395.5 c 128,-1,22
 696 1373 696 1373 730 1373 c 0,23,12
 765 1373 765 1373 791.5 1395.5 c 128,-1,13
232 1126 m 1,24,-1
 232 121 l 1,25,-1
 65 74 l 1,26,-1
 57 0 l 1,27,-1
 1072 0 l 1,28,-1
 1102 313 l 1,29,-1
 1019 326 l 1,30,-1
 921 96 l 1,31,-1
 426 96 l 1,32,-1
 426 583 l 1,33,-1
 700 583 l 1,34,-1
 734 408 l 1,35,-1
 819 421 l 1,36,-1
 853 810 l 1,37,-1
 758 796 l 1,38,-1
 716 676 l 1,39,-1
 426 676 l 1,40,-1
 426 1152 l 1,41,-1
 897 1152 l 1,42,-1
 938 937 l 1,43,-1
 1025 924 l 1,44,-1
 1056 1244 l 1,45,-1
 61 1244 l 1,46,-1
 50 1168 l 1,47,-1
 232 1126 l 1,24,-1
EndSplineSet
Substitution2: "'c2sc' Capitals to Small Capitals lookup 6 subtable" edieresis.sc
Substitution2: "'aalt' Access All Alternates lookup 0 subtable" edieresis.sc
EndChar

StartChar: Igrave
Encoding: 204 204 137
Width: 601
GlyphClass: 1
Flags: W
LayerCount: 2
Fore
SplineSet
323 1334 m 1,0,-1
 381 1368 l 1,1,-1
 249 1702 l 1,2,-1
 133 1664 l 1,3,-1
 323 1334 l 1,0,-1
232 1126 m 1,4,-1
 232 121 l 1,5,-1
 65 74 l 1,6,-1
 57 0 l 1,7,-1
 597 0 l 1,8,-1
 607 80 l 1,9,-1
 426 114 l 1,10,-1
 426 1130 l 1,11,-1
 595 1168 l 1,12,-1
 605 1244 l 1,13,-1
 61 1244 l 1,14,-1
 50 1168 l 1,15,-1
 232 1126 l 1,4,-1
EndSplineSet
Substitution2: "'c2sc' Capitals to Small Capitals lookup 6 subtable" igrave.sc
Substitution2: "'aalt' Access All Alternates lookup 0 subtable" igrave.sc
EndChar

StartChar: Iacute
Encoding: 205 205 138
Width: 601
GlyphClass: 1
Flags: W
LayerCount: 2
Fore
SplineSet
341 1354 m 1,0,-1
 523 1670 l 1,1,-1
 412 1710 l 1,2,-1
 289 1385 l 1,3,-1
 341 1354 l 1,0,-1
232 1126 m 1,4,-1
 232 121 l 1,5,-1
 65 74 l 1,6,-1
 57 0 l 1,7,-1
 597 0 l 1,8,-1
 607 80 l 1,9,-1
 426 114 l 1,10,-1
 426 1130 l 1,11,-1
 595 1168 l 1,12,-1
 605 1244 l 1,13,-1
 61 1244 l 1,14,-1
 50 1168 l 1,15,-1
 232 1126 l 1,4,-1
EndSplineSet
Substitution2: "'c2sc' Capitals to Small Capitals lookup 6 subtable" iacute.sc
Substitution2: "'aalt' Access All Alternates lookup 0 subtable" iacute.sc
EndChar

StartChar: Icircumflex
Encoding: 206 206 139
Width: 601
GlyphClass: 1
Flags: W
LayerCount: 2
Fore
SplineSet
169 1361 m 1,0,-1
 309 1472 l 1,1,-1
 319 1472 l 1,2,-1
 483 1364 l 1,3,-1
 532 1400 l 1,4,-1
 354 1585 l 1,5,-1
 299 1572 l 1,6,-1
 132 1392 l 1,7,-1
 169 1361 l 1,0,-1
232 1126 m 1,8,-1
 232 121 l 1,9,-1
 65 74 l 1,10,-1
 57 0 l 1,11,-1
 597 0 l 1,12,-1
 607 80 l 1,13,-1
 426 114 l 1,14,-1
 426 1130 l 1,15,-1
 595 1168 l 1,16,-1
 605 1244 l 1,17,-1
 61 1244 l 1,18,-1
 50 1168 l 1,19,-1
 232 1126 l 1,8,-1
EndSplineSet
Substitution2: "'c2sc' Capitals to Small Capitals lookup 6 subtable" icircumflex.sc
Substitution2: "'aalt' Access All Alternates lookup 0 subtable" icircumflex.sc
EndChar

StartChar: Idieresis
Encoding: 207 207 140
Width: 601
GlyphClass: 1
Flags: W
LayerCount: 2
Fore
SplineSet
253.5 1395.5 m 128,-1,1
 279 1418 279 1418 279 1453 c 0,2,3
 279 1486 279 1486 253.5 1508 c 128,-1,4
 228 1530 228 1530 194 1530 c 0,5,6
 162 1530 162 1530 136 1508.5 c 128,-1,7
 110 1487 110 1487 110 1453 c 0,8,9
 110 1418 110 1418 135 1395.5 c 128,-1,10
 160 1373 160 1373 194 1373 c 256,11,0
 228 1373 228 1373 253.5 1395.5 c 128,-1,1
522.5 1395.5 m 128,-1,13
 549 1418 549 1418 549 1453 c 0,14,15
 549 1486 549 1486 522.5 1508 c 128,-1,16
 496 1530 496 1530 461 1530 c 0,17,18
 429 1530 429 1530 403 1508.5 c 128,-1,19
 377 1487 377 1487 377 1453 c 0,20,21
 377 1418 377 1418 402 1395.5 c 128,-1,22
 427 1373 427 1373 461 1373 c 0,23,12
 496 1373 496 1373 522.5 1395.5 c 128,-1,13
232 1126 m 1,24,-1
 232 121 l 1,25,-1
 65 74 l 1,26,-1
 57 0 l 1,27,-1
 597 0 l 1,28,-1
 607 80 l 1,29,-1
 426 114 l 1,30,-1
 426 1130 l 1,31,-1
 595 1168 l 1,32,-1
 605 1244 l 1,33,-1
 61 1244 l 1,34,-1
 50 1168 l 1,35,-1
 232 1126 l 1,24,-1
EndSplineSet
Substitution2: "'c2sc' Capitals to Small Capitals lookup 6 subtable" idieresis.sc
Substitution2: "'aalt' Access All Alternates lookup 0 subtable" idieresis.sc
EndChar

StartChar: Eth
Encoding: 208 208 141
Width: 1374
GlyphClass: 1
Flags: W
LayerCount: 2
Fore
SplineSet
233 129 m 1,0,-1
 61 74 l 1,1,-1
 47 0 l 1,2,-1
 560 0 l 2,3,4
 796 0 796 0 967.5 94 c 128,-1,5
 1139 188 1139 188 1228 339 c 128,-1,6
 1317 490 1317 490 1317 658 c 0,7,8
 1317 825 1317 825 1247 960 c 128,-1,9
 1177 1095 1177 1095 1013.5 1177.5 c 128,-1,10
 850 1260 850 1260 583 1260 c 0,11,12
 381 1260 381 1260 70 1211 c 1,13,-1
 61 1134 l 1,14,-1
 233 1104 l 1,15,-1
 233 660 l 1,16,-1
 64 647 l 1,17,-1
 53 555 l 1,18,-1
 233 569 l 1,19,-1
 233 129 l 1,0,-1
670 602 m 1,20,-1
 682 693 l 1,21,-1
 424 672 l 1,22,-1
 424 1151 l 1,23,24
 484 1157 484 1157 546 1157 c 0,25,26
 726 1157 726 1157 851.5 1083 c 128,-1,27
 977 1009 977 1009 1040 882 c 128,-1,28
 1103 755 1103 755 1103 598 c 0,29,30
 1103 464 1103 464 1053 352 c 128,-1,31
 1003 240 1003 240 898 172 c 128,-1,32
 793 104 793 104 636 104 c 2,33,-1
 424 104 l 1,34,-1
 424 581 l 1,35,-1
 670 602 l 1,20,-1
EndSplineSet
Substitution2: "'c2sc' Capitals to Small Capitals lookup 6 subtable" eth.sc
Substitution2: "'aalt' Access All Alternates lookup 0 subtable" eth.sc
EndChar

StartChar: Ntilde
Encoding: 209 209 142
Width: 1337
GlyphClass: 1
Flags: W
LayerCount: 2
Fore
SplineSet
494.5 1391 m 128,-1,1
 504 1402 504 1402 517.5 1412.5 c 128,-1,2
 531 1423 531 1423 543 1423 c 2,3,-1
 546 1423 l 1,4,-1
 768 1392 l 2,5,6
 772 1391 772 1391 781 1391 c 0,7,8
 822 1391 822 1391 850.5 1423 c 128,-1,9
 879 1455 879 1455 894.5 1492 c 128,-1,10
 910 1529 910 1529 910 1535 c 1,11,-1
 862 1536 l 2,12,13
 860 1533 860 1533 851.5 1523.5 c 128,-1,14
 843 1514 843 1514 830.5 1505 c 128,-1,15
 818 1496 818 1496 807 1496 c 2,16,-1
 802 1496 l 1,17,-1
 580 1526 l 2,18,19
 577 1527 577 1527 572.5 1526.5 c 128,-1,20
 568 1526 568 1526 566 1526 c 0,21,22
 526 1526 526 1526 499.5 1494 c 128,-1,23
 473 1462 473 1462 459 1426 c 128,-1,24
 445 1390 445 1390 445 1383 c 1,25,-1
 483 1376 l 1,26,0
 485 1380 485 1380 494.5 1391 c 128,-1,1
232 1117 m 1,27,-1
 232 121 l 1,28,-1
 65 74 l 1,29,-1
 57 0 l 1,30,-1
 532 0 l 1,31,-1
 543 80 l 1,32,-1
 360 114 l 1,33,-1
 360 961 l 1,34,-1
 1023 -30 l 1,35,-1
 1176 1 l 1,36,-1
 1176 1130 l 1,37,-1
 1343 1168 l 1,38,-1
 1356 1244 l 1,39,-1
 881 1244 l 1,40,-1
 869 1168 l 1,41,-1
 1054 1126 l 1,42,-1
 1054 271 l 1,43,-1
 412 1244 l 1,44,-1
 61 1244 l 1,45,-1
 50 1168 l 1,46,-1
 232 1117 l 1,27,-1
EndSplineSet
Substitution2: "'c2sc' Capitals to Small Capitals lookup 6 subtable" ntilde.sc
Substitution2: "'aalt' Access All Alternates lookup 0 subtable" ntilde.sc
EndChar

StartChar: Ograve
Encoding: 210 210 143
Width: 1322
GlyphClass: 1
Flags: W
LayerCount: 2
Fore
SplineSet
717 1334 m 1,0,-1
 774 1368 l 1,1,-1
 642 1702 l 1,2,-1
 527 1664 l 1,3,-1
 717 1334 l 1,0,-1
983 61 m 128,-1,5
 1130 149 1130 149 1207 296.5 c 128,-1,6
 1284 444 1284 444 1284 619 c 0,7,8
 1284 796 1284 796 1214 945.5 c 128,-1,9
 1144 1095 1144 1095 1012.5 1183.5 c 128,-1,10
 881 1272 881 1272 706 1272 c 0,11,12
 510 1272 510 1272 364 1189.5 c 128,-1,13
 218 1107 218 1107 139.5 959 c 128,-1,14
 61 811 61 811 61 619 c 0,15,16
 61 439 61 439 133 291.5 c 128,-1,17
 205 144 205 144 336 58.5 c 128,-1,18
 467 -27 467 -27 636 -27 c 0,19,4
 836 -27 836 -27 983 61 c 128,-1,5
885 1088 m 128,-1,21
 976 1000 976 1000 1019 862 c 128,-1,22
 1062 724 1062 724 1062 573 c 0,23,24
 1062 358 1062 358 978 218.5 c 128,-1,25
 894 79 894 79 686 79 c 0,26,27
 549 79 549 79 458.5 163.5 c 128,-1,28
 368 248 368 248 325.5 384 c 128,-1,29
 283 520 283 520 283 676 c 0,30,31
 283 1176 283 1176 658 1176 c 0,32,20
 794 1176 794 1176 885 1088 c 128,-1,21
EndSplineSet
Substitution2: "'c2sc' Capitals to Small Capitals lookup 6 subtable" ograve.sc
Substitution2: "'aalt' Access All Alternates lookup 0 subtable" ograve.sc
EndChar

StartChar: Oacute
Encoding: 211 211 144
Width: 1322
GlyphClass: 1
Flags: W
LayerCount: 2
Fore
SplineSet
612 1348 m 1,0,-1
 796 1666 l 1,1,-1
 684 1705 l 1,2,-1
 562 1380 l 1,3,-1
 612 1348 l 1,0,-1
984 61 m 128,-1,5
 1131 149 1131 149 1207.5 296 c 128,-1,6
 1284 443 1284 443 1284 619 c 0,7,8
 1284 796 1284 796 1214 945.5 c 128,-1,9
 1144 1095 1144 1095 1012.5 1183.5 c 128,-1,10
 881 1272 881 1272 706 1272 c 0,11,12
 510 1272 510 1272 364 1189.5 c 128,-1,13
 218 1107 218 1107 139.5 959 c 128,-1,14
 61 811 61 811 61 619 c 0,15,16
 61 439 61 439 133.5 291.5 c 128,-1,17
 206 144 206 144 337 58.5 c 128,-1,18
 468 -27 468 -27 637 -27 c 0,19,4
 837 -27 837 -27 984 61 c 128,-1,5
884.5 1088 m 128,-1,21
 975 1000 975 1000 1018 862 c 128,-1,22
 1061 724 1061 724 1061 573 c 0,23,24
 1061 358 1061 358 977.5 218.5 c 128,-1,25
 894 79 894 79 686 79 c 0,26,27
 549 79 549 79 458.5 163.5 c 128,-1,28
 368 248 368 248 325.5 384 c 128,-1,29
 283 520 283 520 283 676 c 0,30,31
 283 1176 283 1176 658 1176 c 0,32,20
 794 1176 794 1176 884.5 1088 c 128,-1,21
EndSplineSet
Substitution2: "'c2sc' Capitals to Small Capitals lookup 6 subtable" oacute.sc
Substitution2: "'aalt' Access All Alternates lookup 0 subtable" oacute.sc
EndChar

StartChar: Ocircumflex
Encoding: 212 212 145
Width: 1322
GlyphClass: 1
Flags: W
LayerCount: 2
Fore
SplineSet
522 1361 m 1,0,-1
 662 1472 l 1,1,-1
 672 1472 l 1,2,-1
 836 1364 l 1,3,-1
 885 1400 l 1,4,-1
 707 1585 l 1,5,-1
 652 1572 l 1,6,-1
 484 1392 l 1,7,-1
 522 1361 l 1,0,-1
983 61 m 128,-1,9
 1130 149 1130 149 1207 296.5 c 128,-1,10
 1284 444 1284 444 1284 619 c 0,11,12
 1284 796 1284 796 1214 945.5 c 128,-1,13
 1144 1095 1144 1095 1012.5 1183.5 c 128,-1,14
 881 1272 881 1272 706 1272 c 0,15,16
 510 1272 510 1272 364 1189.5 c 128,-1,17
 218 1107 218 1107 139.5 959 c 128,-1,18
 61 811 61 811 61 619 c 0,19,20
 61 439 61 439 133 291.5 c 128,-1,21
 205 144 205 144 336 58.5 c 128,-1,22
 467 -27 467 -27 636 -27 c 0,23,8
 836 -27 836 -27 983 61 c 128,-1,9
885 1088 m 128,-1,25
 976 1000 976 1000 1019 862 c 128,-1,26
 1062 724 1062 724 1062 573 c 0,27,28
 1062 358 1062 358 978 218.5 c 128,-1,29
 894 79 894 79 686 79 c 0,30,31
 549 79 549 79 458.5 163.5 c 128,-1,32
 368 248 368 248 325.5 384 c 128,-1,33
 283 520 283 520 283 676 c 0,34,35
 283 1176 283 1176 658 1176 c 0,36,24
 794 1176 794 1176 885 1088 c 128,-1,25
EndSplineSet
Substitution2: "'c2sc' Capitals to Small Capitals lookup 6 subtable" ocircumflex.sc
Substitution2: "'aalt' Access All Alternates lookup 0 subtable" ocircumflex.sc
EndChar

StartChar: Otilde
Encoding: 213 213 146
Width: 1322
GlyphClass: 1
Flags: W
LayerCount: 2
Fore
SplineSet
496.5 1391 m 128,-1,1
 506 1402 506 1402 520 1412.5 c 128,-1,2
 534 1423 534 1423 546 1423 c 2,3,-1
 547 1423 l 1,4,-1
 771 1392 l 2,5,6
 775 1391 775 1391 783 1391 c 0,7,8
 824 1391 824 1391 853 1423 c 128,-1,9
 882 1455 882 1455 897.5 1492 c 128,-1,10
 913 1529 913 1529 913 1535 c 1,11,-1
 866 1536 l 2,12,13
 864 1533 864 1533 855 1523.5 c 128,-1,14
 846 1514 846 1514 833.5 1505 c 128,-1,15
 821 1496 821 1496 810 1496 c 2,16,-1
 805 1496 l 1,17,-1
 581 1526 l 2,18,19
 578 1527 578 1527 574 1526.5 c 128,-1,20
 570 1526 570 1526 568 1526 c 0,21,22
 528 1526 528 1526 501.5 1494 c 128,-1,23
 475 1462 475 1462 461.5 1426 c 128,-1,24
 448 1390 448 1390 448 1383 c 1,25,-1
 485 1376 l 1,26,0
 487 1380 487 1380 496.5 1391 c 128,-1,1
983 61 m 128,-1,28
 1130 149 1130 149 1207 296.5 c 128,-1,29
 1284 444 1284 444 1284 619 c 0,30,31
 1284 796 1284 796 1214 945.5 c 128,-1,32
 1144 1095 1144 1095 1012.5 1183.5 c 128,-1,33
 881 1272 881 1272 706 1272 c 0,34,35
 510 1272 510 1272 364 1189.5 c 128,-1,36
 218 1107 218 1107 139.5 959 c 128,-1,37
 61 811 61 811 61 619 c 0,38,39
 61 439 61 439 133 291.5 c 128,-1,40
 205 144 205 144 336 58.5 c 128,-1,41
 467 -27 467 -27 636 -27 c 0,42,27
 836 -27 836 -27 983 61 c 128,-1,28
885 1088 m 128,-1,44
 976 1000 976 1000 1019 862 c 128,-1,45
 1062 724 1062 724 1062 573 c 0,46,47
 1062 358 1062 358 978 218.5 c 128,-1,48
 894 79 894 79 686 79 c 0,49,50
 549 79 549 79 458.5 163.5 c 128,-1,51
 368 248 368 248 325.5 384 c 128,-1,52
 283 520 283 520 283 676 c 0,53,54
 283 1176 283 1176 658 1176 c 0,55,43
 794 1176 794 1176 885 1088 c 128,-1,44
EndSplineSet
Substitution2: "'c2sc' Capitals to Small Capitals lookup 6 subtable" otilde.sc
Substitution2: "'aalt' Access All Alternates lookup 0 subtable" otilde.sc
EndChar

StartChar: Odieresis
Encoding: 214 214 147
Width: 1322
GlyphClass: 1
Flags: W
LayerCount: 2
Fore
SplineSet
606.5 1395.5 m 128,-1,1
 632 1418 632 1418 632 1453 c 0,2,3
 632 1486 632 1486 606.5 1508 c 128,-1,4
 581 1530 581 1530 547 1530 c 0,5,6
 515 1530 515 1530 489 1508.5 c 128,-1,7
 463 1487 463 1487 463 1453 c 0,8,9
 463 1418 463 1418 488 1395.5 c 128,-1,10
 513 1373 513 1373 547 1373 c 256,11,0
 581 1373 581 1373 606.5 1395.5 c 128,-1,1
875.5 1395.5 m 128,-1,13
 902 1418 902 1418 902 1453 c 0,14,15
 902 1486 902 1486 875.5 1508 c 128,-1,16
 849 1530 849 1530 814 1530 c 0,17,18
 782 1530 782 1530 756 1508.5 c 128,-1,19
 730 1487 730 1487 730 1453 c 0,20,21
 730 1418 730 1418 755 1395.5 c 128,-1,22
 780 1373 780 1373 814 1373 c 0,23,12
 849 1373 849 1373 875.5 1395.5 c 128,-1,13
983 61 m 128,-1,25
 1130 149 1130 149 1207 296.5 c 128,-1,26
 1284 444 1284 444 1284 619 c 0,27,28
 1284 796 1284 796 1214 945.5 c 128,-1,29
 1144 1095 1144 1095 1012.5 1183.5 c 128,-1,30
 881 1272 881 1272 706 1272 c 0,31,32
 510 1272 510 1272 364 1189.5 c 128,-1,33
 218 1107 218 1107 139.5 959 c 128,-1,34
 61 811 61 811 61 619 c 0,35,36
 61 439 61 439 133 291.5 c 128,-1,37
 205 144 205 144 336 58.5 c 128,-1,38
 467 -27 467 -27 636 -27 c 0,39,24
 836 -27 836 -27 983 61 c 128,-1,25
885 1088 m 128,-1,41
 976 1000 976 1000 1019 862 c 128,-1,42
 1062 724 1062 724 1062 573 c 0,43,44
 1062 358 1062 358 978 218.5 c 128,-1,45
 894 79 894 79 686 79 c 0,46,47
 549 79 549 79 458.5 163.5 c 128,-1,48
 368 248 368 248 325.5 384 c 128,-1,49
 283 520 283 520 283 676 c 0,50,51
 283 1176 283 1176 658 1176 c 0,52,40
 794 1176 794 1176 885 1088 c 128,-1,41
EndSplineSet
Substitution2: "'c2sc' Capitals to Small Capitals lookup 6 subtable" odieresis.sc
Substitution2: "'aalt' Access All Alternates lookup 0 subtable" odieresis.sc
EndChar

StartChar: multiply
Encoding: 215 215 148
Width: 604
GlyphClass: 1
Flags: W
LayerCount: 2
Fore
SplineSet
134 228 m 1,0,-1
 298 388 l 1,1,-1
 454 231 l 1,2,-1
 537 297 l 1,3,-1
 378 458 l 1,4,-1
 534 608 l 1,5,-1
 469 692 l 1,6,-1
 304 532 l 1,7,-1
 151 685 l 1,8,-1
 67 619 l 1,9,-1
 223 462 l 1,10,-1
 67 310 l 1,11,-1
 134 228 l 1,0,-1
EndSplineSet
EndChar

StartChar: Uacute
Encoding: 218 218 151
Width: 1369
GlyphClass: 1
Flags: W
LayerCount: 2
Fore
SplineSet
852 1666 m 1,0,-1
 669 1348 l 1,1,-1
 618 1380 l 1,2,-1
 741 1705 l 1,3,-1
 852 1666 l 1,0,-1
1380 1244 m 1,4,-1
 1369 1168 l 1,5,-1
 1203 1130 l 1,6,-1
 1198 515 l 2,7,8
 1196 241 1196 241 1075 107 c 128,-1,9
 954 -27 954 -27 697 -27 c 0,10,11
 483 -27 483 -27 344.5 78.5 c 128,-1,12
 206 184 206 184 206 469 c 2,13,-1
 206 1126 l 1,14,-1
 22 1168 l 1,15,-1
 35 1244 l 1,16,-1
 577 1244 l 1,17,-1
 568 1168 l 1,18,-1
 399 1130 l 1,19,-1
 399 510 l 2,20,21
 399 304 399 304 492.5 204.5 c 128,-1,22
 586 105 586 105 747 105 c 0,23,24
 903 105 903 105 987 198 c 128,-1,25
 1071 291 1071 291 1072 482 c 2,26,-1
 1075 1126 l 1,27,-1
 892 1168 l 1,28,-1
 902 1244 l 1,29,-1
 1380 1244 l 1,4,-1
EndSplineSet
Substitution2: "'c2sc' Capitals to Small Capitals lookup 6 subtable" uacute.sc
Substitution2: "'aalt' Access All Alternates lookup 0 subtable" uacute.sc
EndChar

StartChar: Ucircumflex
Encoding: 219 219 152
Width: 1369
GlyphClass: 1
Flags: W
LayerCount: 2
Fore
SplineSet
574 1361 m 1,0,-1
 713 1472 l 1,1,-1
 724 1472 l 1,2,-1
 887 1364 l 1,3,-1
 937 1400 l 1,4,-1
 759 1585 l 1,5,-1
 704 1572 l 1,6,-1
 537 1392 l 1,7,-1
 574 1361 l 1,0,-1
206 469 m 2,8,9
 206 184 206 184 344.5 78.5 c 128,-1,10
 483 -27 483 -27 697 -27 c 0,11,12
 954 -27 954 -27 1075 107 c 128,-1,13
 1196 241 1196 241 1198 515 c 2,14,-1
 1203 1130 l 1,15,-1
 1369 1168 l 1,16,-1
 1380 1244 l 1,17,-1
 902 1244 l 1,18,-1
 892 1168 l 1,19,-1
 1075 1126 l 1,20,-1
 1072 482 l 2,21,22
 1071 291 1071 291 987 198 c 128,-1,23
 903 105 903 105 747 105 c 0,24,25
 586 105 586 105 492.5 204.5 c 128,-1,26
 399 304 399 304 399 510 c 2,27,-1
 399 1130 l 1,28,-1
 568 1168 l 1,29,-1
 577 1244 l 1,30,-1
 35 1244 l 1,31,-1
 22 1168 l 1,32,-1
 206 1126 l 1,33,-1
 206 469 l 2,8,9
EndSplineSet
Substitution2: "'c2sc' Capitals to Small Capitals lookup 6 subtable" ucircumflex.sc
Substitution2: "'aalt' Access All Alternates lookup 0 subtable" ucircumflex.sc
EndChar

StartChar: Udieresis
Encoding: 220 220 153
Width: 1369
GlyphClass: 1
Flags: W
LayerCount: 2
Fore
SplineSet
658.5 1395.5 m 128,-1,1
 684 1418 684 1418 684 1453 c 0,2,3
 684 1486 684 1486 658 1508 c 128,-1,4
 632 1530 632 1530 598 1530 c 0,5,6
 566 1530 566 1530 540.5 1508.5 c 128,-1,7
 515 1487 515 1487 515 1453 c 0,8,9
 515 1418 515 1418 539.5 1395.5 c 128,-1,10
 564 1373 564 1373 598 1373 c 0,11,0
 633 1373 633 1373 658.5 1395.5 c 128,-1,1
927 1395.5 m 128,-1,13
 953 1418 953 1418 953 1453 c 0,14,15
 953 1486 953 1486 926.5 1508 c 128,-1,16
 900 1530 900 1530 866 1530 c 0,17,18
 834 1530 834 1530 808 1508.5 c 128,-1,19
 782 1487 782 1487 782 1453 c 0,20,21
 782 1418 782 1418 807 1395.5 c 128,-1,22
 832 1373 832 1373 866 1373 c 0,23,12
 901 1373 901 1373 927 1395.5 c 128,-1,13
206 469 m 2,24,25
 206 184 206 184 344.5 78.5 c 128,-1,26
 483 -27 483 -27 697 -27 c 0,27,28
 954 -27 954 -27 1075 107 c 128,-1,29
 1196 241 1196 241 1198 515 c 2,30,-1
 1203 1130 l 1,31,-1
 1369 1168 l 1,32,-1
 1380 1244 l 1,33,-1
 902 1244 l 1,34,-1
 892 1168 l 1,35,-1
 1075 1126 l 1,36,-1
 1072 482 l 2,37,38
 1071 291 1071 291 987 198 c 128,-1,39
 903 105 903 105 747 105 c 0,40,41
 586 105 586 105 492.5 204.5 c 128,-1,42
 399 304 399 304 399 510 c 2,43,-1
 399 1130 l 1,44,-1
 568 1168 l 1,45,-1
 577 1244 l 1,46,-1
 35 1244 l 1,47,-1
 22 1168 l 1,48,-1
 206 1126 l 1,49,-1
 206 469 l 2,24,25
EndSplineSet
Substitution2: "'c2sc' Capitals to Small Capitals lookup 6 subtable" udieresis.sc
Substitution2: "'aalt' Access All Alternates lookup 0 subtable" udieresis.sc
EndChar

StartChar: Thorn
Encoding: 222 222 155
Width: 1084
GlyphClass: 1
Flags: W
LayerCount: 2
Fore
SplineSet
232 119 m 1,0,-1
 64 73 l 1,1,-1
 54 -1 l 1,2,-1
 647 -1 l 1,3,-1
 660 83 l 1,4,-1
 423 121 l 1,5,-1
 423 919 l 1,6,7
 434 920 434 920 469 923 c 128,-1,8
 504 926 504 926 529 926 c 0,9,10
 685 926 685 926 763 843 c 128,-1,11
 841 760 841 760 841 624 c 256,12,13
 841 488 841 488 758 419 c 128,-1,14
 675 350 675 350 514 350 c 0,15,16
 485 350 485 350 470 351 c 1,17,-1
 487 266 l 1,18,19
 547 260 547 260 604 260 c 0,20,21
 725 260 725 260 827 311 c 128,-1,22
 929 362 929 362 988.5 453 c 128,-1,23
 1048 544 1048 544 1048 660 c 0,24,25
 1048 862 1048 862 910 943 c 128,-1,26
 772 1024 772 1024 547 1024 c 0,27,28
 523 1024 523 1024 471 1022 c 0,29,30
 439 1020 439 1020 423 1020 c 1,31,-1
 423 1130 l 1,32,-1
 594 1168 l 1,33,-1
 604 1244 l 1,34,-1
 61 1244 l 1,35,-1
 50 1168 l 1,36,-1
 232 1126 l 1,37,-1
 232 119 l 1,0,-1
EndSplineSet
Substitution2: "'c2sc' Capitals to Small Capitals lookup 6 subtable" thorn.sc
Substitution2: "'aalt' Access All Alternates lookup 0 subtable" thorn.sc
EndChar

StartChar: germandbls
Encoding: 223 223 156
Width: 1116
GlyphClass: 1
Flags: W
LayerCount: 2
Fore
SplineSet
365 959 m 2,0,1
 365 1092 365 1092 410 1145 c 128,-1,2
 455 1198 455 1198 539 1198 c 0,3,4
 590 1198 590 1198 634.5 1173.5 c 128,-1,5
 679 1149 679 1149 705.5 1109 c 128,-1,6
 732 1069 732 1069 732 1023 c 0,7,8
 732 967 732 967 706.5 922.5 c 128,-1,9
 681 878 681 878 630 817 c 0,10,11
 594 773 594 773 573 743 c 128,-1,12
 552 713 552 713 537.5 675.5 c 128,-1,13
 523 638 523 638 523 595 c 0,14,15
 523 524 523 524 560 470.5 c 128,-1,16
 597 417 597 417 649 381 c 128,-1,17
 701 345 701 345 782 301 c 0,18,19
 838 271 838 271 869 251.5 c 128,-1,20
 900 232 900 232 920.5 208 c 128,-1,21
 941 184 941 184 941 157 c 0,22,23
 941 105 941 105 903.5 86 c 128,-1,24
 866 67 866 67 802 67 c 0,25,26
 763 67 763 67 724 92 c 128,-1,27
 685 117 685 117 654.5 164.5 c 128,-1,28
 624 212 624 212 609 275 c 1,29,30
 551 272 551 272 514.5 238 c 128,-1,31
 478 204 478 204 478 142 c 0,32,33
 478 97 478 97 514.5 57 c 128,-1,34
 551 17 551 17 618 -7 c 128,-1,35
 685 -31 685 -31 771 -31 c 0,36,37
 850 -31 850 -31 923 1 c 128,-1,38
 996 33 996 33 1041 88.5 c 128,-1,39
 1086 144 1086 144 1086 213 c 0,40,41
 1086 278 1086 278 1051 327.5 c 128,-1,42
 1016 377 1016 377 966.5 410.5 c 128,-1,43
 917 444 917 444 836 488 c 0,44,45
 774 521 774 521 737 545 c 128,-1,46
 700 569 700 569 676 598.5 c 128,-1,47
 652 628 652 628 652 663 c 0,48,49
 652 710 652 710 680 749.5 c 128,-1,50
 708 789 708 789 765 846 c 0,51,52
 808 889 808 889 834 919.5 c 128,-1,53
 860 950 860 950 878 989 c 128,-1,54
 896 1028 896 1028 896 1072 c 0,55,56
 896 1137 896 1137 864 1190 c 128,-1,57
 832 1243 832 1243 770 1274 c 128,-1,58
 708 1305 708 1305 622 1305 c 0,59,60
 519 1305 519 1305 427 1253 c 128,-1,61
 335 1201 335 1201 274 1103 c 128,-1,62
 213 1005 213 1005 200 872 c 1,63,-1
 62 849 l 1,64,-1
 53 784 l 1,65,-1
 198 784 l 1,66,-1
 198 116 l 1,67,-1
 46 73 l 1,68,-1
 34 0 l 1,69,-1
 365 0 l 1,70,-1
 365 959 l 2,0,1
EndSplineSet
Substitution2: "'smcp' Lowercase to Small Capitals lookup 7 subtable" germandbls.sc
Substitution2: "'aalt' Access All Alternates lookup 0 subtable" germandbls.sc
EndChar

StartChar: aacute
Encoding: 225 225 158
Width: 830
GlyphClass: 1
Flags: W
LayerCount: 2
Fore
SplineSet
380 985 m 1,0,-1
 562 1302 l 1,1,-1
 451 1342 l 1,2,-1
 328 1017 l 1,3,-1
 380 985 l 1,0,-1
419.5 25.5 m 128,-1,5
 488 75 488 75 517 131 c 1,6,-1
 528 131 l 1,7,-1
 528 116 l 2,8,9
 528 83 528 83 543.5 52.5 c 128,-1,10
 559 22 559 22 594 2 c 128,-1,11
 629 -18 629 -18 683 -18 c 0,12,13
 725 -18 725 -18 773 -7 c 0,14,15
 804 -1 804 -1 819 1 c 1,16,-1
 832 87 l 1,17,-1
 782 96 l 2,18,19
 735 104 735 104 711.5 117.5 c 128,-1,20
 688 131 688 131 679 156.5 c 128,-1,21
 670 182 670 182 670 230 c 2,22,-1
 670 593 l 2,23,24
 670 753 670 753 612.5 826.5 c 128,-1,25
 555 900 555 900 423 900 c 0,26,27
 353 900 353 900 272 871 c 128,-1,28
 191 842 191 842 136 794.5 c 128,-1,29
 81 747 81 747 81 695 c 0,30,31
 81 630 81 630 121 611 c 128,-1,32
 161 592 161 592 220 592 c 1,33,-1
 224 626 l 2,34,35
 232 693 232 693 240 727.5 c 128,-1,36
 248 762 248 762 269 783 c 128,-1,37
 290 804 290 804 331 804 c 0,38,39
 427 804 427 804 467.5 730 c 128,-1,40
 508 656 508 656 508 540 c 2,41,-1
 508 485 l 1,42,43
 352 474 352 474 248.5 427.5 c 128,-1,44
 145 381 145 381 96 313 c 128,-1,45
 47 245 47 245 47 168 c 0,46,47
 47 109 47 109 73.5 65.5 c 128,-1,48
 100 22 100 22 145 -1 c 128,-1,49
 190 -24 190 -24 243 -24 c 0,50,4
 351 -24 351 -24 419.5 25.5 c 128,-1,5
508 188 m 1,51,52
 478 155 478 155 430 127 c 128,-1,53
 382 99 382 99 334 99 c 0,54,55
 299 99 299 99 273.5 117 c 128,-1,56
 248 135 248 135 235 162 c 128,-1,57
 222 189 222 189 222 215 c 0,58,59
 222 292 222 292 287 344.5 c 128,-1,60
 352 397 352 397 508 428 c 1,61,-1
 508 188 l 1,51,52
EndSplineSet
Substitution2: "'smcp' Lowercase to Small Capitals lookup 7 subtable" aacute.sc
Substitution2: "'aalt' Access All Alternates lookup 0 subtable" aacute.sc
EndChar

StartChar: acircumflex
Encoding: 226 226 159
Width: 830
GlyphClass: 1
Flags: W
LayerCount: 2
Fore
SplineSet
249 993 m 1,0,-1
 389 1104 l 1,1,-1
 399 1104 l 1,2,-1
 562 995 l 1,3,-1
 611 1032 l 1,4,-1
 434 1217 l 1,5,-1
 380 1203 l 1,6,-1
 211 1024 l 1,7,-1
 249 993 l 1,0,-1
419.5 25.5 m 128,-1,9
 488 75 488 75 517 131 c 1,10,-1
 528 131 l 1,11,-1
 528 116 l 2,12,13
 528 83 528 83 543.5 52.5 c 128,-1,14
 559 22 559 22 594 2 c 128,-1,15
 629 -18 629 -18 683 -18 c 0,16,17
 725 -18 725 -18 773 -7 c 0,18,19
 804 -1 804 -1 819 1 c 1,20,-1
 832 87 l 1,21,-1
 782 96 l 2,22,23
 735 104 735 104 711.5 117.5 c 128,-1,24
 688 131 688 131 679 156.5 c 128,-1,25
 670 182 670 182 670 230 c 2,26,-1
 670 593 l 2,27,28
 670 753 670 753 612.5 826.5 c 128,-1,29
 555 900 555 900 423 900 c 0,30,31
 353 900 353 900 272 871 c 128,-1,32
 191 842 191 842 136 794.5 c 128,-1,33
 81 747 81 747 81 695 c 0,34,35
 81 630 81 630 121 611 c 128,-1,36
 161 592 161 592 220 592 c 1,37,-1
 224 626 l 2,38,39
 232 693 232 693 240 727.5 c 128,-1,40
 248 762 248 762 269 783 c 128,-1,41
 290 804 290 804 331 804 c 0,42,43
 427 804 427 804 467.5 730 c 128,-1,44
 508 656 508 656 508 540 c 2,45,-1
 508 485 l 1,46,47
 352 474 352 474 248.5 427.5 c 128,-1,48
 145 381 145 381 96 313 c 128,-1,49
 47 245 47 245 47 168 c 0,50,51
 47 109 47 109 73.5 65.5 c 128,-1,52
 100 22 100 22 145 -1 c 128,-1,53
 190 -24 190 -24 243 -24 c 0,54,8
 351 -24 351 -24 419.5 25.5 c 128,-1,9
508 188 m 1,55,56
 478 155 478 155 430 127 c 128,-1,57
 382 99 382 99 334 99 c 0,58,59
 299 99 299 99 273.5 117 c 128,-1,60
 248 135 248 135 235 162 c 128,-1,61
 222 189 222 189 222 215 c 0,62,63
 222 292 222 292 287 344.5 c 128,-1,64
 352 397 352 397 508 428 c 1,65,-1
 508 188 l 1,55,56
EndSplineSet
Substitution2: "'smcp' Lowercase to Small Capitals lookup 7 subtable" acircumflex.sc
Substitution2: "'aalt' Access All Alternates lookup 0 subtable" acircumflex.sc
EndChar

StartChar: atilde
Encoding: 227 227 160
Width: 830
GlyphClass: 1
Flags: W
LayerCount: 2
Fore
SplineSet
223 1022 m 128,-1,1
 232 1033 232 1033 245.5 1043.5 c 128,-1,2
 259 1054 259 1054 271 1054 c 2,3,-1
 275 1054 l 1,4,-1
 497 1024 l 2,5,6
 501 1023 501 1023 510 1023 c 0,7,8
 551 1023 551 1023 580 1055 c 128,-1,9
 609 1087 609 1087 624.5 1124 c 128,-1,10
 640 1161 640 1161 640 1167 c 1,11,-1
 592 1169 l 2,12,13
 590 1166 590 1166 581.5 1156 c 128,-1,14
 573 1146 573 1146 560.5 1136.5 c 128,-1,15
 548 1127 548 1127 537 1127 c 2,16,-1
 532 1127 l 1,17,-1
 309 1157 l 2,18,19
 305 1158 305 1158 296 1158 c 0,20,21
 256 1158 256 1158 229.5 1126 c 128,-1,22
 203 1094 203 1094 189 1058 c 128,-1,23
 175 1022 175 1022 175 1015 c 1,24,-1
 212 1007 l 1,25,0
 214 1011 214 1011 223 1022 c 128,-1,1
419.5 25.5 m 128,-1,27
 488 75 488 75 517 131 c 1,28,-1
 528 131 l 1,29,-1
 528 116 l 2,30,31
 528 83 528 83 543.5 52.5 c 128,-1,32
 559 22 559 22 594 2 c 128,-1,33
 629 -18 629 -18 683 -18 c 0,34,35
 725 -18 725 -18 773 -7 c 0,36,37
 804 -1 804 -1 819 1 c 1,38,-1
 832 87 l 1,39,-1
 782 96 l 2,40,41
 735 104 735 104 711.5 117.5 c 128,-1,42
 688 131 688 131 679 156.5 c 128,-1,43
 670 182 670 182 670 230 c 2,44,-1
 670 593 l 2,45,46
 670 753 670 753 612.5 826.5 c 128,-1,47
 555 900 555 900 423 900 c 0,48,49
 353 900 353 900 272 871 c 128,-1,50
 191 842 191 842 136 794.5 c 128,-1,51
 81 747 81 747 81 695 c 0,52,53
 81 630 81 630 121 611 c 128,-1,54
 161 592 161 592 220 592 c 1,55,-1
 224 626 l 2,56,57
 232 693 232 693 240 727.5 c 128,-1,58
 248 762 248 762 269 783 c 128,-1,59
 290 804 290 804 331 804 c 0,60,61
 427 804 427 804 467.5 730 c 128,-1,62
 508 656 508 656 508 540 c 2,63,-1
 508 485 l 1,64,65
 352 474 352 474 248.5 427.5 c 128,-1,66
 145 381 145 381 96 313 c 128,-1,67
 47 245 47 245 47 168 c 0,68,69
 47 109 47 109 73.5 65.5 c 128,-1,70
 100 22 100 22 145 -1 c 128,-1,71
 190 -24 190 -24 243 -24 c 0,72,26
 351 -24 351 -24 419.5 25.5 c 128,-1,27
508 188 m 1,73,74
 478 155 478 155 430 127 c 128,-1,75
 382 99 382 99 334 99 c 0,76,77
 299 99 299 99 273.5 117 c 128,-1,78
 248 135 248 135 235 162 c 128,-1,79
 222 189 222 189 222 215 c 0,80,81
 222 292 222 292 287 344.5 c 128,-1,82
 352 397 352 397 508 428 c 1,83,-1
 508 188 l 1,73,74
EndSplineSet
Substitution2: "'smcp' Lowercase to Small Capitals lookup 7 subtable" atilde.sc
Substitution2: "'aalt' Access All Alternates lookup 0 subtable" atilde.sc
EndChar

StartChar: adieresis
Encoding: 228 228 161
Width: 830
GlyphClass: 1
Flags: W
LayerCount: 2
Fore
SplineSet
333.5 1026.5 m 128,-1,1
 359 1049 359 1049 359 1084 c 0,2,3
 359 1118 359 1118 333 1140.5 c 128,-1,4
 307 1163 307 1163 273 1163 c 0,5,6
 241 1163 241 1163 215 1140.5 c 128,-1,7
 189 1118 189 1118 189 1084 c 0,8,9
 189 1049 189 1049 214 1026.5 c 128,-1,10
 239 1004 239 1004 273 1004 c 0,11,0
 308 1004 308 1004 333.5 1026.5 c 128,-1,1
601.5 1026.5 m 128,-1,13
 628 1049 628 1049 628 1084 c 0,14,15
 628 1117 628 1117 601 1140 c 128,-1,16
 574 1163 574 1163 540 1163 c 0,17,18
 508 1163 508 1163 482.5 1140.5 c 128,-1,19
 457 1118 457 1118 457 1084 c 0,20,21
 457 1049 457 1049 481.5 1026.5 c 128,-1,22
 506 1004 506 1004 540 1004 c 0,23,12
 575 1004 575 1004 601.5 1026.5 c 128,-1,13
419.5 25.5 m 128,-1,25
 488 75 488 75 517 131 c 1,26,-1
 528 131 l 1,27,-1
 528 116 l 2,28,29
 528 83 528 83 543.5 52.5 c 128,-1,30
 559 22 559 22 594 2 c 128,-1,31
 629 -18 629 -18 683 -18 c 0,32,33
 725 -18 725 -18 773 -7 c 0,34,35
 804 -1 804 -1 819 1 c 1,36,-1
 832 87 l 1,37,-1
 782 96 l 2,38,39
 735 104 735 104 711.5 117.5 c 128,-1,40
 688 131 688 131 679 156.5 c 128,-1,41
 670 182 670 182 670 230 c 2,42,-1
 670 593 l 2,43,44
 670 753 670 753 612.5 826.5 c 128,-1,45
 555 900 555 900 423 900 c 0,46,47
 353 900 353 900 272 871 c 128,-1,48
 191 842 191 842 136 794.5 c 128,-1,49
 81 747 81 747 81 695 c 0,50,51
 81 630 81 630 121 611 c 128,-1,52
 161 592 161 592 220 592 c 1,53,-1
 224 626 l 2,54,55
 232 693 232 693 240 727.5 c 128,-1,56
 248 762 248 762 269 783 c 128,-1,57
 290 804 290 804 331 804 c 0,58,59
 427 804 427 804 467.5 730 c 128,-1,60
 508 656 508 656 508 540 c 2,61,-1
 508 485 l 1,62,63
 352 474 352 474 248.5 427.5 c 128,-1,64
 145 381 145 381 96 313 c 128,-1,65
 47 245 47 245 47 168 c 0,66,67
 47 109 47 109 73.5 65.5 c 128,-1,68
 100 22 100 22 145 -1 c 128,-1,69
 190 -24 190 -24 243 -24 c 0,70,24
 351 -24 351 -24 419.5 25.5 c 128,-1,25
508 188 m 1,71,72
 478 155 478 155 430 127 c 128,-1,73
 382 99 382 99 334 99 c 0,74,75
 299 99 299 99 273.5 117 c 128,-1,76
 248 135 248 135 235 162 c 128,-1,77
 222 189 222 189 222 215 c 0,78,79
 222 292 222 292 287 344.5 c 128,-1,80
 352 397 352 397 508 428 c 1,81,-1
 508 188 l 1,71,72
EndSplineSet
Substitution2: "'smcp' Lowercase to Small Capitals lookup 7 subtable" adieresis.sc
Substitution2: "'aalt' Access All Alternates lookup 0 subtable" adieresis.sc
EndChar

StartChar: aring
Encoding: 229 229 162
Width: 830
GlyphClass: 1
Flags: W
LayerCount: 2
Fore
SplineSet
470.5 1026.5 m 128,-1,1
 509 1051 509 1051 530 1091.5 c 128,-1,2
 551 1132 551 1132 551 1177 c 0,3,4
 551 1248 551 1248 509 1293 c 128,-1,5
 467 1338 467 1338 396 1338 c 0,6,7
 350 1338 350 1338 311.5 1314.5 c 128,-1,8
 273 1291 273 1291 250.5 1251.5 c 128,-1,9
 228 1212 228 1212 228 1167 c 0,10,11
 228 1091 228 1091 270.5 1046.5 c 128,-1,12
 313 1002 313 1002 383 1002 c 0,13,0
 432 1002 432 1002 470.5 1026.5 c 128,-1,1
454 1252.5 m 128,-1,15
 480 1214 480 1214 480 1164 c 0,16,17
 480 1110 480 1110 457.5 1080 c 128,-1,18
 435 1050 435 1050 394 1050 c 0,19,20
 349 1050 349 1050 323.5 1089 c 128,-1,21
 298 1128 298 1128 298 1178 c 0,22,23
 298 1224 298 1224 320 1257.5 c 128,-1,24
 342 1291 342 1291 384 1291 c 0,25,14
 428 1291 428 1291 454 1252.5 c 128,-1,15
419.5 25.5 m 128,-1,27
 488 75 488 75 517 131 c 1,28,-1
 528 131 l 1,29,-1
 528 116 l 2,30,31
 528 83 528 83 543.5 52.5 c 128,-1,32
 559 22 559 22 594 2 c 128,-1,33
 629 -18 629 -18 683 -18 c 0,34,35
 725 -18 725 -18 773 -7 c 0,36,37
 804 -1 804 -1 819 1 c 1,38,-1
 832 87 l 1,39,-1
 782 96 l 2,40,41
 735 104 735 104 711.5 117.5 c 128,-1,42
 688 131 688 131 679 156.5 c 128,-1,43
 670 182 670 182 670 230 c 2,44,-1
 670 593 l 2,45,46
 670 753 670 753 612.5 826.5 c 128,-1,47
 555 900 555 900 423 900 c 0,48,49
 353 900 353 900 272 871 c 128,-1,50
 191 842 191 842 136 794.5 c 128,-1,51
 81 747 81 747 81 695 c 0,52,53
 81 630 81 630 121 611 c 128,-1,54
 161 592 161 592 220 592 c 1,55,-1
 224 626 l 2,56,57
 232 693 232 693 240 727.5 c 128,-1,58
 248 762 248 762 269 783 c 128,-1,59
 290 804 290 804 331 804 c 0,60,61
 427 804 427 804 467.5 730 c 128,-1,62
 508 656 508 656 508 540 c 2,63,-1
 508 485 l 1,64,65
 352 474 352 474 248.5 427.5 c 128,-1,66
 145 381 145 381 96 313 c 128,-1,67
 47 245 47 245 47 168 c 0,68,69
 47 109 47 109 73.5 65.5 c 128,-1,70
 100 22 100 22 145 -1 c 128,-1,71
 190 -24 190 -24 243 -24 c 0,72,26
 351 -24 351 -24 419.5 25.5 c 128,-1,27
508 188 m 1,73,74
 478 155 478 155 430 127 c 128,-1,75
 382 99 382 99 334 99 c 0,76,77
 299 99 299 99 273.5 117 c 128,-1,78
 248 135 248 135 235 162 c 128,-1,79
 222 189 222 189 222 215 c 0,80,81
 222 292 222 292 287 344.5 c 128,-1,82
 352 397 352 397 508 428 c 1,83,-1
 508 188 l 1,73,74
EndSplineSet
Substitution2: "'smcp' Lowercase to Small Capitals lookup 7 subtable" aring.sc
Substitution2: "'aalt' Access All Alternates lookup 0 subtable" aring.sc
EndChar

StartChar: ae
Encoding: 230 230 163
Width: 1238
GlyphClass: 1
Flags: W
LayerCount: 2
Fore
SplineSet
1049.5 5.5 m 128,-1,1
 1133 41 1133 41 1192 104 c 1,2,-1
 1172 155 l 1,3,4
 1099 114 1099 114 1052 100 c 128,-1,5
 1005 86 1005 86 952 86 c 0,6,7
 868 86 868 86 810 136 c 128,-1,8
 752 186 752 186 722 263.5 c 128,-1,9
 692 341 692 341 688 426 c 1,10,-1
 1149 445 l 1,11,12
 1155 471 1155 471 1161 514.5 c 128,-1,13
 1167 558 1167 558 1167 581 c 0,14,15
 1167 683 1167 683 1131.5 754.5 c 128,-1,16
 1096 826 1096 826 1036.5 862.5 c 128,-1,17
 977 899 977 899 905 899 c 0,18,19
 836 899 836 899 766.5 867.5 c 128,-1,20
 697 836 697 836 641 777 c 1,21,22
 619 840 619 840 569 870 c 128,-1,23
 519 900 519 900 431 900 c 0,24,25
 361 900 361 900 280 871 c 128,-1,26
 199 842 199 842 144 794.5 c 128,-1,27
 89 747 89 747 89 695 c 0,28,29
 89 630 89 630 129 611 c 128,-1,30
 169 592 169 592 228 592 c 1,31,32
 237 693 237 693 243.5 731 c 128,-1,33
 250 769 250 769 271 788 c 128,-1,34
 292 807 292 807 339 807 c 0,35,36
 440 807 440 807 483 731.5 c 128,-1,37
 526 656 526 656 526 540 c 2,38,-1
 526 485 l 1,39,40
 367 474 367 474 261 427.5 c 128,-1,41
 155 381 155 381 105 313 c 128,-1,42
 55 245 55 245 55 168 c 0,43,44
 55 109 55 109 84.5 65.5 c 128,-1,45
 114 22 114 22 163 -1 c 128,-1,46
 212 -24 212 -24 271 -24 c 0,47,48
 353 -24 353 -24 415 9 c 128,-1,49
 477 42 477 42 514.5 87 c 128,-1,50
 552 132 552 132 570 175 c 1,51,52
 584 110 584 110 635 63.5 c 128,-1,53
 686 17 686 17 751 -6.5 c 128,-1,54
 816 -30 816 -30 871 -30 c 0,55,0
 966 -30 966 -30 1049.5 5.5 c 128,-1,1
957 755.5 m 128,-1,57
 990 710 990 710 990 615 c 0,58,59
 990 603 990 603 987 579 c 128,-1,60
 984 555 984 555 981 543 c 1,61,-1
 688 507 l 1,62,63
 692 602 692 602 715 668 c 128,-1,64
 738 734 738 734 774.5 767.5 c 128,-1,65
 811 801 811 801 856 801 c 0,66,56
 924 801 924 801 957 755.5 c 128,-1,57
526 188 m 1,67,68
 494 154 494 154 443 126.5 c 128,-1,69
 392 99 392 99 342 99 c 0,70,71
 307 99 307 99 281.5 117 c 128,-1,72
 256 135 256 135 243 162 c 128,-1,73
 230 189 230 189 230 215 c 0,74,75
 230 292 230 292 297.5 344.5 c 128,-1,76
 365 397 365 397 526 428 c 1,77,-1
 526 188 l 1,67,68
EndSplineSet
Substitution2: "'smcp' Lowercase to Small Capitals lookup 7 subtable" ae.sc
Substitution2: "'aalt' Access All Alternates lookup 0 subtable" ae.sc
EndChar

StartChar: ccedilla
Encoding: 231 231 164
Width: 777
GlyphClass: 1
Flags: W
LayerCount: 2
Fore
SplineSet
340 -138 m 1,0,1
 413 -207 413 -207 413 -248 c 0,2,3
 413 -272 413 -272 390.5 -294.5 c 128,-1,4
 368 -317 368 -317 327 -331 c 1,5,-1
 347 -389 l 1,6,7
 441 -361 441 -361 493.5 -322 c 128,-1,8
 546 -283 546 -283 546 -227 c 0,9,10
 546 -183 546 -183 521 -146.5 c 128,-1,11
 496 -110 496 -110 457 -76 c 1,12,-1
 491 -28 l 1,13,14
 573 -20 573 -20 645.5 14.5 c 128,-1,15
 718 49 718 49 754 93 c 1,16,-1
 728 151 l 1,17,18
 683 122 683 122 638 106 c 128,-1,19
 593 90 593 90 526 90 c 0,20,21
 429 90 429 90 362 156 c 128,-1,22
 295 222 295 222 262 319 c 128,-1,23
 229 416 229 416 229 507 c 0,24,25
 229 597 229 597 253.5 664.5 c 128,-1,26
 278 732 278 732 322.5 769 c 128,-1,27
 367 806 367 806 426 806 c 0,28,29
 484 806 484 806 521.5 759 c 128,-1,30
 559 712 559 712 588 642 c 1,31,32
 649 646 649 646 682 674 c 128,-1,33
 715 702 715 702 715 747 c 0,34,35
 715 788 715 788 688.5 823 c 128,-1,36
 662 858 662 858 607.5 879 c 128,-1,37
 553 900 553 900 473 900 c 0,38,39
 363 900 363 900 266 839.5 c 128,-1,40
 169 779 169 779 109.5 668.5 c 128,-1,41
 50 558 50 558 50 415 c 0,42,43
 50 300 50 300 95 201 c 128,-1,44
 140 102 140 102 223 40.5 c 128,-1,45
 306 -21 306 -21 415 -28 c 1,46,-1
 340 -138 l 1,0,1
EndSplineSet
Substitution2: "'smcp' Lowercase to Small Capitals lookup 7 subtable" ccedilla.sc
Substitution2: "'aalt' Access All Alternates lookup 0 subtable" ccedilla.sc
EndChar

StartChar: ecircumflex
Encoding: 234 234 167
Width: 802
GlyphClass: 1
Flags: W
LayerCount: 2
Fore
SplineSet
271 993 m 1,0,-1
 411 1104 l 1,1,-1
 421 1104 l 1,2,-1
 585 995 l 1,3,-1
 633 1032 l 1,4,-1
 457 1217 l 1,5,-1
 402 1203 l 1,6,-1
 233 1024 l 1,7,-1
 271 993 l 1,0,-1
612.5 5.5 m 128,-1,9
 698 41 698 41 758 104 c 1,10,-1
 737 157 l 1,11,12
 669 121 669 121 624 111.5 c 128,-1,13
 579 102 579 102 516 102 c 2,14,-1
 510 102 l 2,15,16
 422 102 422 102 360.5 152.5 c 128,-1,17
 299 203 299 203 267 282 c 128,-1,18
 235 361 235 361 231 445 c 1,19,-1
 715 451 l 1,20,21
 721 477 721 477 726 517.5 c 128,-1,22
 731 558 731 558 731 581 c 0,23,24
 731 683 731 683 695.5 754.5 c 128,-1,25
 660 826 660 826 599 862.5 c 128,-1,26
 538 899 538 899 464 899 c 0,27,28
 364 899 364 899 269 842 c 128,-1,29
 174 785 174 785 113.5 678 c 128,-1,30
 53 571 53 571 53 428 c 0,31,32
 53 283 53 283 106 179 c 128,-1,33
 159 75 159 75 245.5 22.5 c 128,-1,34
 332 -30 332 -30 429 -30 c 0,35,8
 527 -30 527 -30 612.5 5.5 c 128,-1,9
553 615 m 0,37,38
 553 600 553 600 551.5 578.5 c 128,-1,39
 550 557 550 557 547 546 c 1,40,-1
 233 523 l 1,41,42
 238 615 238 615 265.5 677.5 c 128,-1,43
 293 740 293 740 333 770.5 c 128,-1,44
 373 801 373 801 415 801 c 0,45,36
 553 801 553 801 553 615 c 0,37,38
EndSplineSet
Substitution2: "'smcp' Lowercase to Small Capitals lookup 7 subtable" ecircumflex.sc
Substitution2: "'aalt' Access All Alternates lookup 0 subtable" ecircumflex.sc
EndChar

StartChar: edieresis
Encoding: 235 235 168
Width: 802
GlyphClass: 1
Flags: W
LayerCount: 2
Fore
SplineSet
355.5 1026.5 m 128,-1,1
 381 1049 381 1049 381 1084 c 0,2,3
 381 1118 381 1118 355 1140.5 c 128,-1,4
 329 1163 329 1163 295 1163 c 0,5,6
 263 1163 263 1163 237 1140.5 c 128,-1,7
 211 1118 211 1118 211 1084 c 0,8,9
 211 1049 211 1049 236 1026.5 c 128,-1,10
 261 1004 261 1004 295 1004 c 0,11,0
 330 1004 330 1004 355.5 1026.5 c 128,-1,1
623.5 1026.5 m 128,-1,13
 650 1049 650 1049 650 1084 c 0,14,15
 650 1117 650 1117 623 1140 c 128,-1,16
 596 1163 596 1163 562 1163 c 0,17,18
 530 1163 530 1163 504.5 1140.5 c 128,-1,19
 479 1118 479 1118 479 1084 c 0,20,21
 479 1049 479 1049 503.5 1026.5 c 128,-1,22
 528 1004 528 1004 562 1004 c 0,23,12
 597 1004 597 1004 623.5 1026.5 c 128,-1,13
612.5 5.5 m 128,-1,25
 698 41 698 41 758 104 c 1,26,-1
 737 157 l 1,27,28
 669 121 669 121 624 111.5 c 128,-1,29
 579 102 579 102 516 102 c 2,30,-1
 510 102 l 2,31,32
 422 102 422 102 360.5 152.5 c 128,-1,33
 299 203 299 203 267 282 c 128,-1,34
 235 361 235 361 231 445 c 1,35,-1
 715 451 l 1,36,37
 721 477 721 477 726 517.5 c 128,-1,38
 731 558 731 558 731 581 c 0,39,40
 731 683 731 683 695.5 754.5 c 128,-1,41
 660 826 660 826 599 862.5 c 128,-1,42
 538 899 538 899 464 899 c 0,43,44
 364 899 364 899 269 842 c 128,-1,45
 174 785 174 785 113.5 678 c 128,-1,46
 53 571 53 571 53 428 c 0,47,48
 53 283 53 283 106 179 c 128,-1,49
 159 75 159 75 245.5 22.5 c 128,-1,50
 332 -30 332 -30 429 -30 c 0,51,24
 527 -30 527 -30 612.5 5.5 c 128,-1,25
553 615 m 0,53,54
 553 600 553 600 551.5 578.5 c 128,-1,55
 550 557 550 557 547 546 c 1,56,-1
 233 523 l 1,57,58
 238 615 238 615 265.5 677.5 c 128,-1,59
 293 740 293 740 333 770.5 c 128,-1,60
 373 801 373 801 415 801 c 0,61,52
 553 801 553 801 553 615 c 0,53,54
EndSplineSet
Substitution2: "'smcp' Lowercase to Small Capitals lookup 7 subtable" edieresis.sc
Substitution2: "'aalt' Access All Alternates lookup 0 subtable" edieresis.sc
EndChar

StartChar: igrave
Encoding: 236 236 169
Width: 539
GlyphClass: 1
Flags: W
LayerCount: 2
Fore
SplineSet
250 961 m 1,0,-1
 306 996 l 1,1,-1
 174 1329 l 1,2,-1
 59 1291 l 1,3,-1
 250 961 l 1,0,-1
517 0 m 1,4,-1
 528 80 l 1,5,-1
 368 116 l 1,6,-1
 368 860 l 1,7,-1
 343 885 l 1,8,-1
 62 862 l 1,9,-1
 49 786 l 1,10,-1
 200 731 l 1,11,-1
 200 116 l 1,12,-1
 49 79 l 1,13,-1
 37 0 l 1,14,-1
 517 0 l 1,4,-1
EndSplineSet
Substitution2: "'smcp' Lowercase to Small Capitals lookup 7 subtable" igrave.sc
Substitution2: "'aalt' Access All Alternates lookup 0 subtable" igrave.sc
EndChar

StartChar: iacute
Encoding: 237 237 170
Width: 539
GlyphClass: 1
Flags: W
LayerCount: 2
Fore
SplineSet
263 960 m 1,0,-1
 447 1277 l 1,1,-1
 334 1317 l 1,2,-1
 213 991 l 1,3,-1
 263 960 l 1,0,-1
517 0 m 1,4,-1
 528 80 l 1,5,-1
 368 116 l 1,6,-1
 368 860 l 1,7,-1
 343 885 l 1,8,-1
 62 862 l 1,9,-1
 49 786 l 1,10,-1
 200 731 l 1,11,-1
 200 116 l 1,12,-1
 49 79 l 1,13,-1
 37 0 l 1,14,-1
 517 0 l 1,4,-1
EndSplineSet
Substitution2: "'smcp' Lowercase to Small Capitals lookup 7 subtable" iacute.sc
Substitution2: "'aalt' Access All Alternates lookup 0 subtable" iacute.sc
EndChar

StartChar: icircumflex
Encoding: 238 238 171
Width: 539
GlyphClass: 1
Flags: W
LayerCount: 2
Fore
SplineSet
113 1019 m 1,0,-1
 253 1130 l 1,1,-1
 263 1130 l 1,2,-1
 427 1019 l 1,3,-1
 476 1057 l 1,4,-1
 298 1241 l 1,5,-1
 243 1228 l 1,6,-1
 76 1048 l 1,7,-1
 113 1019 l 1,0,-1
517 0 m 1,8,-1
 528 80 l 1,9,-1
 368 116 l 1,10,-1
 368 860 l 1,11,-1
 343 885 l 1,12,-1
 62 862 l 1,13,-1
 49 786 l 1,14,-1
 200 731 l 1,15,-1
 200 116 l 1,16,-1
 49 79 l 1,17,-1
 37 0 l 1,18,-1
 517 0 l 1,8,-1
EndSplineSet
Substitution2: "'smcp' Lowercase to Small Capitals lookup 7 subtable" icircumflex.sc
Substitution2: "'aalt' Access All Alternates lookup 0 subtable" icircumflex.sc
EndChar

StartChar: idieresis
Encoding: 239 239 172
Width: 539
GlyphClass: 1
Flags: W
LayerCount: 2
Fore
SplineSet
197.5 1050.5 m 128,-1,1
 223 1073 223 1073 223 1109 c 0,2,3
 223 1142 223 1142 197.5 1164 c 128,-1,4
 172 1186 172 1186 138 1186 c 0,5,6
 106 1186 106 1186 80 1164.5 c 128,-1,7
 54 1143 54 1143 54 1109 c 0,8,9
 54 1074 54 1074 79 1051 c 128,-1,10
 104 1028 104 1028 138 1028 c 256,11,0
 172 1028 172 1028 197.5 1050.5 c 128,-1,1
467.5 1051 m 128,-1,13
 494 1074 494 1074 494 1109 c 0,14,15
 494 1142 494 1142 467.5 1164 c 128,-1,16
 441 1186 441 1186 406 1186 c 0,17,18
 374 1186 374 1186 347.5 1164 c 128,-1,19
 321 1142 321 1142 321 1109 c 0,20,21
 321 1074 321 1074 346.5 1051 c 128,-1,22
 372 1028 372 1028 406 1028 c 0,23,12
 441 1028 441 1028 467.5 1051 c 128,-1,13
517 0 m 1,24,-1
 528 80 l 1,25,-1
 368 116 l 1,26,-1
 368 860 l 1,27,-1
 343 885 l 1,28,-1
 62 862 l 1,29,-1
 49 786 l 1,30,-1
 200 731 l 1,31,-1
 200 116 l 1,32,-1
 49 79 l 1,33,-1
 37 0 l 1,34,-1
 517 0 l 1,24,-1
EndSplineSet
Substitution2: "'smcp' Lowercase to Small Capitals lookup 7 subtable" idieresis.sc
Substitution2: "'aalt' Access All Alternates lookup 0 subtable" idieresis.sc
EndChar

StartChar: eth
Encoding: 240 240 173
Width: 912
GlyphClass: 1
Flags: W
LayerCount: 2
Fore
SplineSet
646 32.5 m 128,-1,1
 736 92 736 92 789 203.5 c 128,-1,2
 842 315 842 315 842 465 c 0,3,4
 842 668 842 668 786.5 828.5 c 128,-1,5
 731 989 731 989 642 1106 c 1,6,-1
 730 1124 l 1,7,-1
 740 1201 l 1,8,-1
 589 1171 l 1,9,10
 546 1218 546 1218 506 1252 c 128,-1,11
 466 1286 466 1286 438 1302 c 1,12,-1
 321 1302 l 1,13,14
 393 1237 393 1237 461 1139 c 1,15,-1
 292 1106 l 1,16,-1
 282 1031 l 1,17,-1
 497 1071 l 1,18,19
 543 998 543 998 568.5 951.5 c 128,-1,20
 594 905 594 905 608 859 c 1,21,-1
 602 857 l 1,22,23
 582 907 582 907 535 927.5 c 128,-1,24
 488 948 488 948 445 948 c 0,25,26
 339 948 339 948 249 885 c 128,-1,27
 159 822 159 822 106 708.5 c 128,-1,28
 53 595 53 595 53 451 c 0,29,30
 53 323 53 323 95.5 214.5 c 128,-1,31
 138 106 138 106 227 39.5 c 128,-1,32
 316 -27 316 -27 448 -27 c 0,33,0
 556 -27 556 -27 646 32.5 c 128,-1,1
545 795 m 128,-1,35
 600 735 600 735 634.5 636 c 128,-1,36
 669 537 669 537 669 424 c 0,37,38
 669 250 669 250 624.5 160 c 128,-1,39
 580 70 580 70 470 70 c 0,40,41
 401 70 401 70 347.5 121 c 128,-1,42
 294 172 294 172 263 268.5 c 128,-1,43
 232 365 232 365 231 498 c 0,44,45
 231 856 231 856 432 856 c 0,46,34
 490 855 490 855 545 795 c 128,-1,35
EndSplineSet
Substitution2: "'smcp' Lowercase to Small Capitals lookup 7 subtable" eth.sc
Substitution2: "'aalt' Access All Alternates lookup 0 subtable" eth.sc
EndChar

StartChar: ntilde
Encoding: 241 241 174
Width: 1060
GlyphClass: 1
Flags: W
LayerCount: 2
Fore
SplineSet
352 1022 m 128,-1,1
 361 1033 361 1033 374.5 1043.5 c 128,-1,2
 388 1054 388 1054 400 1054 c 2,3,-1
 402 1054 l 1,4,-1
 626 1024 l 2,5,6
 630 1023 630 1023 638 1023 c 0,7,8
 679 1023 679 1023 708 1055 c 128,-1,9
 737 1087 737 1087 752.5 1124 c 128,-1,10
 768 1161 768 1161 768 1167 c 1,11,-1
 721 1169 l 2,12,13
 719 1166 719 1166 709.5 1156 c 128,-1,14
 700 1146 700 1146 687.5 1136.5 c 128,-1,15
 675 1127 675 1127 664 1127 c 2,16,-1
 660 1127 l 1,17,-1
 438 1157 l 2,18,19
 434 1158 434 1158 424 1158 c 0,20,21
 384 1158 384 1158 357 1126 c 128,-1,22
 330 1094 330 1094 316 1057.5 c 128,-1,23
 302 1021 302 1021 302 1015 c 1,24,-1
 341 1007 l 1,25,0
 343 1011 343 1011 352 1022 c 128,-1,1
515 79 m 1,26,-1
 366 114 l 1,27,-1
 366 675 l 1,28,29
 403 716 403 716 455 738.5 c 128,-1,30
 507 761 507 761 563 761 c 0,31,32
 642 761 642 761 689.5 715.5 c 128,-1,33
 737 670 737 670 737 577 c 2,34,-1
 737 114 l 1,35,-1
 599 73 l 1,36,-1
 589 0 l 1,37,-1
 1038 0 l 1,38,-1
 1048 79 l 1,39,-1
 904 114 l 1,40,-1
 904 616 l 2,41,42
 904 751 904 751 842 825 c 128,-1,43
 780 899 780 899 663 899 c 0,44,45
 575 899 575 899 497 854 c 128,-1,46
 419 809 419 809 362 741 c 1,47,-1
 352 741 l 1,48,-1
 369 869 l 1,49,-1
 352 888 l 1,50,-1
 54 849 l 1,51,-1
 44 773 l 1,52,-1
 198 721 l 1,53,-1
 198 114 l 1,54,-1
 47 73 l 1,55,-1
 37 0 l 1,56,-1
 501 0 l 1,57,-1
 515 79 l 1,26,-1
EndSplineSet
Substitution2: "'smcp' Lowercase to Small Capitals lookup 7 subtable" ntilde.sc
Substitution2: "'aalt' Access All Alternates lookup 0 subtable" ntilde.sc
EndChar

StartChar: ograve
Encoding: 242 242 175
Width: 934
GlyphClass: 1
Flags: W
LayerCount: 2
Fore
SplineSet
504 965 m 1,0,-1
 562 1000 l 1,1,-1
 430 1334 l 1,2,-1
 314 1296 l 1,3,-1
 504 965 l 1,0,-1
675 32 m 128,-1,5
 771 91 771 91 826.5 198 c 128,-1,6
 882 305 882 305 882 441 c 0,7,8
 882 578 882 578 834.5 682.5 c 128,-1,9
 787 787 787 787 697.5 845 c 128,-1,10
 608 903 608 903 487 903 c 0,11,12
 373 903 373 903 273.5 846 c 128,-1,13
 174 789 174 789 113 680.5 c 128,-1,14
 52 572 52 572 52 426 c 0,15,16
 52 296 52 296 100.5 193.5 c 128,-1,17
 149 91 149 91 241.5 32 c 128,-1,18
 334 -27 334 -27 463 -27 c 0,19,4
 579 -27 579 -27 675 32 c 128,-1,5
592.5 732.5 m 128,-1,21
 651 667 651 667 677.5 567 c 128,-1,22
 704 467 704 467 704 359 c 0,23,24
 704 285 704 285 681 219 c 128,-1,25
 658 153 658 153 611 111.5 c 128,-1,26
 564 70 564 70 497 70 c 0,27,28
 404 70 404 70 344 131 c 128,-1,29
 284 192 284 192 257 289 c 128,-1,30
 230 386 230 386 230 497 c 0,31,32
 230 579 230 579 253 647.5 c 128,-1,33
 276 716 276 716 324.5 757 c 128,-1,34
 373 798 373 798 445 798 c 0,35,20
 534 798 534 798 592.5 732.5 c 128,-1,21
EndSplineSet
Substitution2: "'smcp' Lowercase to Small Capitals lookup 7 subtable" ograve.sc
Substitution2: "'aalt' Access All Alternates lookup 0 subtable" ograve.sc
EndChar

StartChar: oacute
Encoding: 243 243 176
Width: 934
GlyphClass: 1
Flags: W
LayerCount: 2
Fore
SplineSet
440 985 m 1,0,-1
 623 1302 l 1,1,-1
 512 1342 l 1,2,-1
 389 1017 l 1,3,-1
 440 985 l 1,0,-1
675 32 m 128,-1,5
 771 91 771 91 826.5 198 c 128,-1,6
 882 305 882 305 882 441 c 0,7,8
 882 578 882 578 834.5 682.5 c 128,-1,9
 787 787 787 787 697.5 845 c 128,-1,10
 608 903 608 903 487 903 c 0,11,12
 373 903 373 903 273.5 846 c 128,-1,13
 174 789 174 789 113 680.5 c 128,-1,14
 52 572 52 572 52 426 c 0,15,16
 52 296 52 296 100.5 193.5 c 128,-1,17
 149 91 149 91 241.5 32 c 128,-1,18
 334 -27 334 -27 463 -27 c 0,19,4
 579 -27 579 -27 675 32 c 128,-1,5
592.5 732.5 m 128,-1,21
 651 667 651 667 677.5 567 c 128,-1,22
 704 467 704 467 704 359 c 0,23,24
 704 285 704 285 681 219 c 128,-1,25
 658 153 658 153 611 111.5 c 128,-1,26
 564 70 564 70 497 70 c 0,27,28
 404 70 404 70 344 131 c 128,-1,29
 284 192 284 192 257 289 c 128,-1,30
 230 386 230 386 230 497 c 0,31,32
 230 579 230 579 253 647.5 c 128,-1,33
 276 716 276 716 324.5 757 c 128,-1,34
 373 798 373 798 445 798 c 0,35,20
 534 798 534 798 592.5 732.5 c 128,-1,21
EndSplineSet
Substitution2: "'smcp' Lowercase to Small Capitals lookup 7 subtable" oacute.sc
Substitution2: "'aalt' Access All Alternates lookup 0 subtable" oacute.sc
EndChar

StartChar: ocircumflex
Encoding: 244 244 177
Width: 934
GlyphClass: 1
Flags: W
LayerCount: 2
Fore
SplineSet
310 993 m 1,0,-1
 449 1104 l 1,1,-1
 460 1104 l 1,2,-1
 623 995 l 1,3,-1
 673 1032 l 1,4,-1
 495 1217 l 1,5,-1
 440 1203 l 1,6,-1
 271 1024 l 1,7,-1
 310 993 l 1,0,-1
675 32 m 128,-1,9
 771 91 771 91 826.5 198 c 128,-1,10
 882 305 882 305 882 441 c 0,11,12
 882 578 882 578 834.5 682.5 c 128,-1,13
 787 787 787 787 697.5 845 c 128,-1,14
 608 903 608 903 487 903 c 0,15,16
 373 903 373 903 273.5 846 c 128,-1,17
 174 789 174 789 113 680.5 c 128,-1,18
 52 572 52 572 52 426 c 0,19,20
 52 296 52 296 100.5 193.5 c 128,-1,21
 149 91 149 91 241.5 32 c 128,-1,22
 334 -27 334 -27 463 -27 c 0,23,8
 579 -27 579 -27 675 32 c 128,-1,9
592.5 732.5 m 128,-1,25
 651 667 651 667 677.5 567 c 128,-1,26
 704 467 704 467 704 359 c 0,27,28
 704 285 704 285 681 219 c 128,-1,29
 658 153 658 153 611 111.5 c 128,-1,30
 564 70 564 70 497 70 c 0,31,32
 404 70 404 70 344 131 c 128,-1,33
 284 192 284 192 257 289 c 128,-1,34
 230 386 230 386 230 497 c 0,35,36
 230 579 230 579 253 647.5 c 128,-1,37
 276 716 276 716 324.5 757 c 128,-1,38
 373 798 373 798 445 798 c 0,39,24
 534 798 534 798 592.5 732.5 c 128,-1,25
EndSplineSet
Substitution2: "'smcp' Lowercase to Small Capitals lookup 7 subtable" ocircumflex.sc
Substitution2: "'aalt' Access All Alternates lookup 0 subtable" ocircumflex.sc
EndChar

StartChar: otilde
Encoding: 245 245 178
Width: 934
GlyphClass: 1
Flags: W
LayerCount: 2
Fore
SplineSet
285.5 1022 m 128,-1,1
 295 1033 295 1033 308.5 1043.5 c 128,-1,2
 322 1054 322 1054 334 1054 c 2,3,-1
 337 1054 l 1,4,-1
 559 1024 l 2,5,6
 563 1023 563 1023 572 1023 c 0,7,8
 613 1023 613 1023 641.5 1055 c 128,-1,9
 670 1087 670 1087 685.5 1124 c 128,-1,10
 701 1161 701 1161 701 1167 c 1,11,-1
 653 1169 l 2,12,13
 651 1166 651 1166 642.5 1156 c 128,-1,14
 634 1146 634 1146 621.5 1136.5 c 128,-1,15
 609 1127 609 1127 598 1127 c 2,16,-1
 594 1127 l 1,17,-1
 371 1157 l 2,18,19
 367 1158 367 1158 357 1158 c 0,20,21
 317 1158 317 1158 290.5 1126 c 128,-1,22
 264 1094 264 1094 250 1058 c 128,-1,23
 236 1022 236 1022 236 1015 c 1,24,-1
 274 1007 l 1,25,0
 276 1011 276 1011 285.5 1022 c 128,-1,1
675 32 m 128,-1,27
 771 91 771 91 826.5 198 c 128,-1,28
 882 305 882 305 882 441 c 0,29,30
 882 578 882 578 834.5 682.5 c 128,-1,31
 787 787 787 787 697.5 845 c 128,-1,32
 608 903 608 903 487 903 c 0,33,34
 373 903 373 903 273.5 846 c 128,-1,35
 174 789 174 789 113 680.5 c 128,-1,36
 52 572 52 572 52 426 c 0,37,38
 52 296 52 296 100.5 193.5 c 128,-1,39
 149 91 149 91 241.5 32 c 128,-1,40
 334 -27 334 -27 463 -27 c 0,41,26
 579 -27 579 -27 675 32 c 128,-1,27
592.5 732.5 m 128,-1,43
 651 667 651 667 677.5 567 c 128,-1,44
 704 467 704 467 704 359 c 0,45,46
 704 285 704 285 681 219 c 128,-1,47
 658 153 658 153 611 111.5 c 128,-1,48
 564 70 564 70 497 70 c 0,49,50
 404 70 404 70 344 131 c 128,-1,51
 284 192 284 192 257 289 c 128,-1,52
 230 386 230 386 230 497 c 0,53,54
 230 579 230 579 253 647.5 c 128,-1,55
 276 716 276 716 324.5 757 c 128,-1,56
 373 798 373 798 445 798 c 0,57,42
 534 798 534 798 592.5 732.5 c 128,-1,43
EndSplineSet
Substitution2: "'smcp' Lowercase to Small Capitals lookup 7 subtable" otilde.sc
Substitution2: "'aalt' Access All Alternates lookup 0 subtable" otilde.sc
EndChar

StartChar: odieresis
Encoding: 246 246 179
Width: 934
GlyphClass: 1
Flags: W
LayerCount: 2
Fore
SplineSet
394.5 1026.5 m 128,-1,1
 420 1049 420 1049 420 1084 c 0,2,3
 420 1118 420 1118 394 1140.5 c 128,-1,4
 368 1163 368 1163 334 1163 c 0,5,6
 302 1163 302 1163 276.5 1140.5 c 128,-1,7
 251 1118 251 1118 251 1084 c 0,8,9
 251 1049 251 1049 275.5 1026.5 c 128,-1,10
 300 1004 300 1004 334 1004 c 0,11,0
 369 1004 369 1004 394.5 1026.5 c 128,-1,1
663.5 1026.5 m 128,-1,13
 690 1049 690 1049 690 1084 c 0,14,15
 690 1117 690 1117 663 1140 c 128,-1,16
 636 1163 636 1163 602 1163 c 0,17,18
 570 1163 570 1163 544 1140.5 c 128,-1,19
 518 1118 518 1118 518 1084 c 0,20,21
 518 1049 518 1049 543 1026.5 c 128,-1,22
 568 1004 568 1004 602 1004 c 0,23,12
 637 1004 637 1004 663.5 1026.5 c 128,-1,13
675 32 m 128,-1,25
 771 91 771 91 826.5 198 c 128,-1,26
 882 305 882 305 882 441 c 0,27,28
 882 578 882 578 834.5 682.5 c 128,-1,29
 787 787 787 787 697.5 845 c 128,-1,30
 608 903 608 903 487 903 c 0,31,32
 373 903 373 903 273.5 846 c 128,-1,33
 174 789 174 789 113 680.5 c 128,-1,34
 52 572 52 572 52 426 c 0,35,36
 52 296 52 296 100.5 193.5 c 128,-1,37
 149 91 149 91 241.5 32 c 128,-1,38
 334 -27 334 -27 463 -27 c 0,39,24
 579 -27 579 -27 675 32 c 128,-1,25
592.5 732.5 m 128,-1,41
 651 667 651 667 677.5 567 c 128,-1,42
 704 467 704 467 704 359 c 0,43,44
 704 285 704 285 681 219 c 128,-1,45
 658 153 658 153 611 111.5 c 128,-1,46
 564 70 564 70 497 70 c 0,47,48
 404 70 404 70 344 131 c 128,-1,49
 284 192 284 192 257 289 c 128,-1,50
 230 386 230 386 230 497 c 0,51,52
 230 579 230 579 253 647.5 c 128,-1,53
 276 716 276 716 324.5 757 c 128,-1,54
 373 798 373 798 445 798 c 0,55,40
 534 798 534 798 592.5 732.5 c 128,-1,41
EndSplineSet
Substitution2: "'smcp' Lowercase to Small Capitals lookup 7 subtable" odieresis.sc
Substitution2: "'aalt' Access All Alternates lookup 0 subtable" odieresis.sc
EndChar

StartChar: divide
Encoding: 247 247 180
Width: 932
GlyphClass: 1
Flags: W
LayerCount: 2
Fore
SplineSet
520 682.5 m 128,-1,1
 548 699 548 699 564.5 727.5 c 128,-1,2
 581 756 581 756 581 789 c 0,3,4
 581 837 581 837 545.5 870 c 128,-1,5
 510 903 510 903 460 903 c 0,6,7
 411 903 411 903 376 870 c 128,-1,8
 341 837 341 837 341 790 c 0,9,10
 341 757 341 757 357 728.5 c 128,-1,11
 373 700 373 700 400.5 683 c 128,-1,12
 428 666 428 666 460 666 c 256,13,0
 492 666 492 666 520 682.5 c 128,-1,1
868 454 m 1,14,-1
 879 560 l 1,15,-1
 67 560 l 1,16,-1
 55 454 l 1,17,-1
 868 454 l 1,14,-1
520 120.5 m 128,-1,19
 548 137 548 137 564.5 165.5 c 128,-1,20
 581 194 581 194 581 227 c 0,21,22
 581 275 581 275 545.5 308 c 128,-1,23
 510 341 510 341 460 341 c 0,24,25
 411 341 411 341 376 308 c 128,-1,26
 341 275 341 275 341 228 c 0,27,28
 341 195 341 195 357 166.5 c 128,-1,29
 373 138 373 138 400.5 121 c 128,-1,30
 428 104 428 104 460 104 c 256,31,18
 492 104 492 104 520 120.5 c 128,-1,19
EndSplineSet
EndChar

StartChar: oslash
Encoding: 248 248 181
Width: 933
GlyphClass: 1
Flags: W
LayerCount: 2
Fore
SplineSet
787 749 m 1,0,1
 828 689 828 689 850 611 c 128,-1,2
 872 533 872 533 872 441 c 0,3,4
 872 305 872 305 816 198 c 128,-1,5
 760 91 760 91 664 32 c 128,-1,6
 568 -27 568 -27 452 -27 c 0,7,8
 331 -27 331 -27 239 26 c 1,9,-1
 187 -41 l 1,10,-1
 24 -46 l 1,11,-1
 148 102 l 1,12,13
 95 162 95 162 67.5 245.5 c 128,-1,14
 40 329 40 329 40 426 c 0,15,16
 40 572 40 572 101.5 680.5 c 128,-1,17
 163 789 163 789 263 846 c 128,-1,18
 363 903 363 903 477 903 c 0,19,20
 608 903 608 903 702 835 c 1,21,-1
 749 897 l 1,22,-1
 904 904 l 1,23,-1
 787 749 l 1,0,1
314 757 m 128,-1,25
 266 716 266 716 243 647.5 c 128,-1,26
 220 579 220 579 220 497 c 0,27,28
 220 332 220 332 272 221 c 1,29,-1
 618 684 l 1,30,31
 549 798 549 798 434 798 c 0,32,24
 362 798 362 798 314 757 c 128,-1,25
600.5 111.5 m 128,-1,34
 647 153 647 153 670 219 c 128,-1,35
 693 285 693 285 693 359 c 0,36,37
 693 425 693 425 682.5 491 c 128,-1,38
 672 557 672 557 651 614 c 1,39,-1
 309 160 l 1,40,41
 376 70 376 70 487 70 c 0,42,33
 554 70 554 70 600.5 111.5 c 128,-1,34
EndSplineSet
Substitution2: "'smcp' Lowercase to Small Capitals lookup 7 subtable" oslash.sc
Substitution2: "'aalt' Access All Alternates lookup 0 subtable" oslash.sc
EndChar

StartChar: ugrave
Encoding: 249 249 182
Width: 1002
GlyphClass: 1
Flags: W
LayerCount: 2
Fore
SplineSet
532 965 m 1,0,-1
 589 1000 l 1,1,-1
 458 1334 l 1,2,-1
 342 1296 l 1,3,-1
 532 965 l 1,0,-1
157 267 m 2,4,5
 157 114 157 114 216.5 45.5 c 128,-1,6
 276 -23 276 -23 380 -23 c 0,7,8
 560 -23 560 -23 666 131 c 1,9,-1
 679 131 l 1,10,-1
 679 122 l 2,11,12
 679 57 679 57 716.5 17 c 128,-1,13
 754 -23 754 -23 826 -23 c 0,14,15
 870 -23 870 -23 900 -19 c 128,-1,16
 930 -15 930 -15 977 -4 c 1,17,-1
 986 79 l 1,18,-1
 940 89 l 2,19,20
 899 98 899 98 878 108 c 128,-1,21
 857 118 857 118 844.5 142.5 c 128,-1,22
 832 167 832 167 832 215 c 2,23,-1
 832 859 l 1,24,-1
 811 883 l 1,25,-1
 517 856 l 1,26,-1
 507 764 l 1,27,-1
 666 722 l 1,28,-1
 666 191 l 1,29,30
 630 154 630 154 586.5 134 c 128,-1,31
 543 114 543 114 480 114 c 0,32,33
 326 114 326 114 326 317 c 2,34,-1
 326 859 l 1,35,-1
 301 883 l 1,36,-1
 33 862 l 1,37,-1
 19 783 l 1,38,-1
 157 728 l 1,39,-1
 157 267 l 2,4,5
EndSplineSet
Substitution2: "'smcp' Lowercase to Small Capitals lookup 7 subtable" ugrave.sc
Substitution2: "'aalt' Access All Alternates lookup 0 subtable" ugrave.sc
EndChar

StartChar: uacute
Encoding: 250 250 183
Width: 1002
GlyphClass: 1
Flags: W
LayerCount: 2
Fore
SplineSet
467 985 m 1,0,-1
 650 1302 l 1,1,-1
 538 1342 l 1,2,-1
 415 1017 l 1,3,-1
 467 985 l 1,0,-1
157 267 m 2,4,5
 157 114 157 114 216.5 45.5 c 128,-1,6
 276 -23 276 -23 380 -23 c 0,7,8
 560 -23 560 -23 666 131 c 1,9,-1
 679 131 l 1,10,-1
 679 122 l 2,11,12
 679 57 679 57 716.5 17 c 128,-1,13
 754 -23 754 -23 826 -23 c 0,14,15
 870 -23 870 -23 900 -19 c 128,-1,16
 930 -15 930 -15 977 -4 c 1,17,-1
 986 79 l 1,18,-1
 940 89 l 2,19,20
 899 98 899 98 878 108 c 128,-1,21
 857 118 857 118 844.5 142.5 c 128,-1,22
 832 167 832 167 832 215 c 2,23,-1
 832 859 l 1,24,-1
 811 883 l 1,25,-1
 517 856 l 1,26,-1
 507 764 l 1,27,-1
 666 722 l 1,28,-1
 666 191 l 1,29,30
 630 154 630 154 586.5 134 c 128,-1,31
 543 114 543 114 480 114 c 0,32,33
 326 114 326 114 326 317 c 2,34,-1
 326 859 l 1,35,-1
 301 883 l 1,36,-1
 33 862 l 1,37,-1
 19 783 l 1,38,-1
 157 728 l 1,39,-1
 157 267 l 2,4,5
EndSplineSet
Substitution2: "'smcp' Lowercase to Small Capitals lookup 7 subtable" uacute.sc
Substitution2: "'aalt' Access All Alternates lookup 0 subtable" uacute.sc
EndChar

StartChar: ucircumflex
Encoding: 251 251 184
Width: 1002
GlyphClass: 1
Flags: W
LayerCount: 2
Fore
SplineSet
338 993 m 1,0,-1
 477 1104 l 1,1,-1
 487 1104 l 1,2,-1
 650 995 l 1,3,-1
 700 1032 l 1,4,-1
 522 1217 l 1,5,-1
 467 1203 l 1,6,-1
 299 1024 l 1,7,-1
 338 993 l 1,0,-1
157 267 m 2,8,9
 157 114 157 114 216.5 45.5 c 128,-1,10
 276 -23 276 -23 380 -23 c 0,11,12
 560 -23 560 -23 666 131 c 1,13,-1
 679 131 l 1,14,-1
 679 122 l 2,15,16
 679 57 679 57 716.5 17 c 128,-1,17
 754 -23 754 -23 826 -23 c 0,18,19
 870 -23 870 -23 900 -19 c 128,-1,20
 930 -15 930 -15 977 -4 c 1,21,-1
 986 79 l 1,22,-1
 940 89 l 2,23,24
 899 98 899 98 878 108 c 128,-1,25
 857 118 857 118 844.5 142.5 c 128,-1,26
 832 167 832 167 832 215 c 2,27,-1
 832 859 l 1,28,-1
 811 883 l 1,29,-1
 517 856 l 1,30,-1
 507 764 l 1,31,-1
 666 722 l 1,32,-1
 666 191 l 1,33,34
 630 154 630 154 586.5 134 c 128,-1,35
 543 114 543 114 480 114 c 0,36,37
 326 114 326 114 326 317 c 2,38,-1
 326 859 l 1,39,-1
 301 883 l 1,40,-1
 33 862 l 1,41,-1
 19 783 l 1,42,-1
 157 728 l 1,43,-1
 157 267 l 2,8,9
EndSplineSet
Substitution2: "'smcp' Lowercase to Small Capitals lookup 7 subtable" ucircumflex.sc
Substitution2: "'aalt' Access All Alternates lookup 0 subtable" ucircumflex.sc
EndChar

StartChar: udieresis
Encoding: 252 252 185
Width: 1002
GlyphClass: 1
Flags: W
LayerCount: 2
Fore
SplineSet
422.5 1026.5 m 128,-1,1
 448 1049 448 1049 448 1084 c 0,2,3
 448 1118 448 1118 422 1140.5 c 128,-1,4
 396 1163 396 1163 362 1163 c 0,5,6
 330 1163 330 1163 304.5 1140.5 c 128,-1,7
 279 1118 279 1118 279 1084 c 0,8,9
 279 1049 279 1049 303.5 1026.5 c 128,-1,10
 328 1004 328 1004 362 1004 c 0,11,0
 397 1004 397 1004 422.5 1026.5 c 128,-1,1
690.5 1026.5 m 128,-1,13
 717 1049 717 1049 717 1084 c 0,14,15
 717 1117 717 1117 690 1140 c 128,-1,16
 663 1163 663 1163 629 1163 c 0,17,18
 597 1163 597 1163 571.5 1140.5 c 128,-1,19
 546 1118 546 1118 546 1084 c 0,20,21
 546 1049 546 1049 570.5 1026.5 c 128,-1,22
 595 1004 595 1004 629 1004 c 0,23,12
 664 1004 664 1004 690.5 1026.5 c 128,-1,13
157 267 m 2,24,25
 157 114 157 114 216.5 45.5 c 128,-1,26
 276 -23 276 -23 380 -23 c 0,27,28
 560 -23 560 -23 666 131 c 1,29,-1
 679 131 l 1,30,-1
 679 122 l 2,31,32
 679 57 679 57 716.5 17 c 128,-1,33
 754 -23 754 -23 826 -23 c 0,34,35
 870 -23 870 -23 900 -19 c 128,-1,36
 930 -15 930 -15 977 -4 c 1,37,-1
 986 79 l 1,38,-1
 940 89 l 2,39,40
 899 98 899 98 878 108 c 128,-1,41
 857 118 857 118 844.5 142.5 c 128,-1,42
 832 167 832 167 832 215 c 2,43,-1
 832 859 l 1,44,-1
 811 883 l 1,45,-1
 517 856 l 1,46,-1
 507 764 l 1,47,-1
 666 722 l 1,48,-1
 666 191 l 1,49,50
 630 154 630 154 586.5 134 c 128,-1,51
 543 114 543 114 480 114 c 0,52,53
 326 114 326 114 326 317 c 2,54,-1
 326 859 l 1,55,-1
 301 883 l 1,56,-1
 33 862 l 1,57,-1
 19 783 l 1,58,-1
 157 728 l 1,59,-1
 157 267 l 2,24,25
EndSplineSet
Substitution2: "'smcp' Lowercase to Small Capitals lookup 7 subtable" udieresis.sc
Substitution2: "'aalt' Access All Alternates lookup 0 subtable" udieresis.sc
EndChar

StartChar: thorn
Encoding: 254 254 187
Width: 937
GlyphClass: 1
Flags: W
LayerCount: 2
Fore
SplineSet
463 -285 m 1,0,-1
 308 -251 l 1,1,-1
 308 675 l 1,2,3
 346 715 346 715 397 741 c 128,-1,4
 448 767 448 767 507 767 c 0,5,6
 601 767 601 767 648.5 676.5 c 128,-1,7
 696 586 696 586 696 408 c 0,8,9
 696 270 696 270 639 181.5 c 128,-1,10
 582 93 582 93 451 93 c 0,11,12
 413 93 413 93 366 102 c 1,13,-1
 369 1 l 1,14,15
 411 -13 411 -13 470 -13 c 0,16,17
 585 -13 585 -13 680 49.5 c 128,-1,18
 775 112 775 112 829.5 222 c 128,-1,19
 884 332 884 332 884 469 c 0,20,21
 884 601 884 601 843.5 697.5 c 128,-1,22
 803 794 803 794 733 845 c 128,-1,23
 663 896 663 896 577 896 c 0,24,25
 516 896 516 896 467 873.5 c 128,-1,26
 418 851 418 851 383.5 820.5 c 128,-1,27
 349 790 349 790 308 744 c 1,28,-1
 297 744 l 1,29,-1
 311 849 l 1,30,-1
 311 1265 l 1,31,-1
 287 1288 l 1,32,-1
 4 1267 l 1,33,-1
 -9 1191 l 1,34,-1
 143 1137 l 1,35,-1
 145 -251 l 1,36,-1
 -8 -287 l 1,37,-1
 -15 -366 l 1,38,-1
 451 -366 l 1,39,-1
 463 -285 l 1,0,-1
EndSplineSet
Substitution2: "'smcp' Lowercase to Small Capitals lookup 7 subtable" thorn.sc
Substitution2: "'aalt' Access All Alternates lookup 0 subtable" thorn.sc
EndChar

StartChar: Ccaron
Encoding: 268 268 189
Width: 1111
GlyphClass: 1
Flags: W
LayerCount: 2
Fore
SplineSet
651 1361 m 1,0,-1
 706 1376 l 1,1,-1
 879 1555 l 1,2,-1
 835 1585 l 1,3,-1
 712 1445 l 1,4,-1
 701 1445 l 1,5,-1
 552 1589 l 1,6,-1
 472 1527 l 1,7,-1
 651 1361 l 1,0,-1
839.5 7 m 128,-1,9
 930 38 930 38 1000 85.5 c 128,-1,10
 1070 133 1070 133 1113 185 c 1,11,-1
 1078 261 l 1,12,13
 1007 196 1007 196 914.5 153.5 c 128,-1,14
 822 111 822 111 728 111 c 0,15,16
 606 111 606 111 503 174.5 c 128,-1,17
 400 238 400 238 337.5 361.5 c 128,-1,18
 275 485 275 485 275 658 c 0,19,20
 275 815 275 815 324 932 c 128,-1,21
 373 1049 373 1049 457.5 1111.5 c 128,-1,22
 542 1174 542 1174 647 1174 c 0,23,24
 739 1174 739 1174 803.5 1146 c 128,-1,25
 868 1118 868 1118 905 1070 c 1,26,-1
 947 850 l 1,27,-1
 1035 837 l 1,28,-1
 1066 1169 l 1,29,30
 998 1221 998 1221 904 1245 c 128,-1,31
 810 1269 810 1269 704 1269 c 0,32,33
 489 1269 489 1269 344 1165.5 c 128,-1,34
 199 1062 199 1062 130 905.5 c 128,-1,35
 61 749 61 749 61 589 c 0,36,37
 61 397 61 397 142.5 258 c 128,-1,38
 224 119 224 119 359 47.5 c 128,-1,39
 494 -24 494 -24 651 -24 c 0,40,8
 749 -24 749 -24 839.5 7 c 128,-1,9
EndSplineSet
EndChar

StartChar: ccaron
Encoding: 269 269 190
Width: 778
GlyphClass: 1
Flags: W
LayerCount: 2
Fore
SplineSet
402 1010 m 1,0,-1
 457 1024 l 1,1,-1
 628 1203 l 1,2,-1
 585 1234 l 1,3,-1
 461 1093 l 1,4,-1
 451 1093 l 1,5,-1
 302 1237 l 1,6,-1
 222 1174 l 1,7,-1
 402 1010 l 1,0,-1
625.5 6.5 m 128,-1,9
 713 43 713 43 755 93 c 1,10,-1
 730 151 l 1,11,12
 685 122 685 122 640 106 c 128,-1,13
 595 90 595 90 528 90 c 0,14,15
 431 90 431 90 364 156 c 128,-1,16
 297 222 297 222 264 319 c 128,-1,17
 231 416 231 416 231 507 c 0,18,19
 231 597 231 597 255.5 664.5 c 128,-1,20
 280 732 280 732 324.5 769 c 128,-1,21
 369 806 369 806 428 806 c 0,22,23
 486 806 486 806 522.5 759.5 c 128,-1,24
 559 713 559 713 589 642 c 1,25,26
 650 646 650 646 683 674 c 128,-1,27
 716 702 716 702 716 747 c 0,28,29
 716 788 716 788 689.5 823 c 128,-1,30
 663 858 663 858 609 879 c 128,-1,31
 555 900 555 900 475 900 c 0,32,33
 365 900 365 900 267.5 839.5 c 128,-1,34
 170 779 170 779 110 668.5 c 128,-1,35
 50 558 50 558 50 415 c 0,36,37
 50 295 50 295 99 193 c 128,-1,38
 148 91 148 91 238 30.5 c 128,-1,39
 328 -30 328 -30 445 -30 c 0,40,8
 538 -30 538 -30 625.5 6.5 c 128,-1,9
EndSplineSet
EndChar

StartChar: Ecaron
Encoding: 282 282 191
Width: 1075
GlyphClass: 1
Flags: W
LayerCount: 2
Fore
SplineSet
565 1361 m 1,0,-1
 620 1376 l 1,1,-1
 792 1555 l 1,2,-1
 748 1585 l 1,3,-1
 624 1445 l 1,4,-1
 615 1445 l 1,5,-1
 466 1589 l 1,6,-1
 386 1527 l 1,7,-1
 565 1361 l 1,0,-1
232 1126 m 1,8,-1
 232 121 l 1,9,-1
 65 74 l 1,10,-1
 57 0 l 1,11,-1
 1072 0 l 1,12,-1
 1102 313 l 1,13,-1
 1019 326 l 1,14,-1
 921 96 l 1,15,-1
 426 96 l 1,16,-1
 426 583 l 1,17,-1
 700 583 l 1,18,-1
 734 408 l 1,19,-1
 819 421 l 1,20,-1
 853 810 l 1,21,-1
 758 796 l 1,22,-1
 716 676 l 1,23,-1
 426 676 l 1,24,-1
 426 1152 l 1,25,-1
 897 1152 l 1,26,-1
 938 937 l 1,27,-1
 1025 924 l 1,28,-1
 1056 1244 l 1,29,-1
 61 1244 l 1,30,-1
 50 1168 l 1,31,-1
 232 1126 l 1,8,-1
EndSplineSet
EndChar

StartChar: ecaron
Encoding: 283 283 192
Width: 802
GlyphClass: 1
Flags: W
LayerCount: 2
Fore
SplineSet
397 993 m 1,0,-1
 452 1007 l 1,1,-1
 624 1186 l 1,2,-1
 581 1217 l 1,3,-1
 458 1077 l 1,4,-1
 448 1077 l 1,5,-1
 298 1220 l 1,6,-1
 218 1159 l 1,7,-1
 397 993 l 1,0,-1
612.5 5.5 m 128,-1,9
 698 41 698 41 758 104 c 1,10,-1
 737 157 l 1,11,12
 669 121 669 121 624 111.5 c 128,-1,13
 579 102 579 102 516 102 c 2,14,-1
 510 102 l 2,15,16
 422 102 422 102 360.5 152.5 c 128,-1,17
 299 203 299 203 267 282 c 128,-1,18
 235 361 235 361 231 445 c 1,19,-1
 715 451 l 1,20,21
 721 477 721 477 726 517.5 c 128,-1,22
 731 558 731 558 731 581 c 0,23,24
 731 683 731 683 695.5 754.5 c 128,-1,25
 660 826 660 826 599 862.5 c 128,-1,26
 538 899 538 899 464 899 c 0,27,28
 364 899 364 899 269 842 c 128,-1,29
 174 785 174 785 113.5 678 c 128,-1,30
 53 571 53 571 53 428 c 0,31,32
 53 283 53 283 106 179 c 128,-1,33
 159 75 159 75 245.5 22.5 c 128,-1,34
 332 -30 332 -30 429 -30 c 0,35,8
 527 -30 527 -30 612.5 5.5 c 128,-1,9
553 615 m 0,37,38
 553 600 553 600 551.5 578.5 c 128,-1,39
 550 557 550 557 547 546 c 1,40,-1
 233 523 l 1,41,42
 238 615 238 615 265.5 677.5 c 128,-1,43
 293 740 293 740 333 770.5 c 128,-1,44
 373 801 373 801 415 801 c 0,45,36
 553 801 553 801 553 615 c 0,37,38
EndSplineSet
EndChar

StartChar: OE
Encoding: 338 338 193
Width: 1708
GlyphClass: 1
Flags: W
LayerCount: 2
Fore
SplineSet
798 0 m 1,1,-1
 1639 0 l 1,2,-1
 1668 313 l 1,3,-1
 1585 326 l 1,4,-1
 1487 96 l 1,5,-1
 995 96 l 1,6,-1
 995 583 l 1,7,-1
 1267 583 l 1,8,-1
 1300 408 l 1,9,-1
 1387 421 l 1,10,-1
 1419 810 l 1,11,-1
 1325 796 l 1,12,-1
 1283 676 l 1,13,-1
 995 676 l 1,14,-1
 995 1152 l 1,15,-1
 1464 1152 l 1,16,-1
 1504 937 l 1,17,-1
 1590 924 l 1,18,-1
 1622 1244 l 1,19,-1
 845 1244 l 1,20,21
 767 1272 767 1272 660 1272 c 0,22,23
 467 1272 467 1272 333 1191 c 128,-1,24
 199 1110 199 1110 131.5 963 c 128,-1,25
 64 816 64 816 64 619 c 0,26,27
 64 431 64 431 125.5 285 c 128,-1,28
 187 139 187 139 306 56 c 128,-1,29
 425 -27 425 -27 590 -27 c 0,30,0
 687 -27 687 -27 798 0 c 1,1,-1
802 1126 m 1,32,-1
 802 122 l 1,33,34
 726 79 726 79 633 79 c 0,35,36
 511 79 511 79 433 169 c 128,-1,37
 355 259 355 259 320.5 395.5 c 128,-1,38
 286 532 286 532 286 676 c 0,39,40
 286 927 286 927 367 1051.5 c 128,-1,41
 448 1176 448 1176 611 1176 c 0,42,31
 717 1176 717 1176 802 1126 c 1,32,-1
EndSplineSet
EndChar

StartChar: oe
Encoding: 339 339 194
Width: 1407
GlyphClass: 1
Flags: W
LayerCount: 2
Fore
SplineSet
601.5 9 m 128,-1,1
 671 46 671 46 738 131 c 1,2,3
 861 -30 861 -30 1032 -30 c 0,4,5
 1130 -30 1130 -30 1216.5 5.5 c 128,-1,6
 1303 41 1303 41 1363 104 c 1,7,-1
 1338 157 l 1,8,9
 1265 118 1265 118 1218 105.5 c 128,-1,10
 1171 93 1171 93 1114 93 c 0,11,12
 1028 93 1028 93 965 145 c 128,-1,13
 902 197 902 197 869 278.5 c 128,-1,14
 836 360 836 360 836 445 c 1,15,-1
 1318 451 l 1,16,17
 1324 477 1324 477 1329.5 517.5 c 128,-1,18
 1335 558 1335 558 1335 581 c 0,19,20
 1335 683 1335 683 1299.5 754.5 c 128,-1,21
 1264 826 1264 826 1203 862.5 c 128,-1,22
 1142 899 1142 899 1068 899 c 0,23,24
 971 899 971 899 889 852 c 128,-1,25
 807 805 807 805 755 736 c 1,26,27
 738 777 738 777 692.5 815 c 128,-1,28
 647 853 647 853 586 876.5 c 128,-1,29
 525 900 525 900 465 900 c 0,30,31
 352 900 352 900 258 844 c 128,-1,32
 164 788 164 788 109 680.5 c 128,-1,33
 54 573 54 573 54 426 c 0,34,35
 54 294 54 294 96.5 191.5 c 128,-1,36
 139 89 139 89 226 30.5 c 128,-1,37
 313 -28 313 -28 441 -28 c 0,38,0
 532 -28 532 -28 601.5 9 c 128,-1,1
556.5 735 m 128,-1,40
 609 669 609 669 633 568 c 128,-1,41
 657 467 657 467 657 359 c 0,42,43
 657 288 657 288 633.5 222.5 c 128,-1,44
 610 157 610 157 568.5 116.5 c 128,-1,45
 527 76 527 76 475 76 c 0,46,47
 397 76 397 76 342.5 136 c 128,-1,48
 288 196 288 196 260.5 292.5 c 128,-1,49
 233 389 233 389 233 497 c 0,50,51
 233 632 233 632 276.5 716.5 c 128,-1,52
 320 801 320 801 424 801 c 0,53,39
 504 801 504 801 556.5 735 c 128,-1,40
1158 615 m 0,55,56
 1158 600 1158 600 1156 580 c 128,-1,57
 1154 560 1154 560 1151 549 c 1,58,-1
 837 527 l 1,59,60
 842 619 842 619 869.5 680.5 c 128,-1,61
 897 742 897 742 936.5 771.5 c 128,-1,62
 976 801 976 801 1019 801 c 0,63,54
 1158 801 1158 801 1158 615 c 0,55,56
EndSplineSet
EndChar

StartChar: Rcaron
Encoding: 344 344 195
Width: 1213
GlyphClass: 1
Flags: W
LayerCount: 2
Fore
SplineSet
553 1361 m 1,0,-1
 608 1376 l 1,1,-1
 781 1555 l 1,2,-1
 737 1585 l 1,3,-1
 614 1445 l 1,4,-1
 604 1445 l 1,5,-1
 454 1589 l 1,6,-1
 374 1527 l 1,7,-1
 553 1361 l 1,0,-1
608 83 m 1,8,-1
 420 126 l 1,9,-1
 420 537 l 1,10,-1
 594 537 l 1,11,-1
 753 253 l 2,12,13
 825 124 825 124 911.5 51.5 c 128,-1,14
 998 -21 998 -21 1109 -21 c 0,15,16
 1172 -21 1172 -21 1229 -1 c 1,17,-1
 1244 67 l 1,18,-1
 1211 77 l 2,19,20
 1151 95 1151 95 1108 126.5 c 128,-1,21
 1065 158 1065 158 1027 204 c 128,-1,22
 989 250 989 250 918 349 c 2,23,-1
 738 598 l 1,24,-1
 738 599 l 1,25,26
 829 631 829 631 893.5 687 c 128,-1,27
 958 743 958 743 991.5 810 c 128,-1,28
 1025 877 1025 877 1025 943 c 0,29,30
 1025 1109 1025 1109 893.5 1181 c 128,-1,31
 762 1253 762 1253 523 1253 c 0,32,33
 423 1253 423 1253 314 1241 c 128,-1,34
 205 1229 205 1229 67 1207 c 1,35,-1
 57 1130 l 1,36,-1
 228 1100 l 1,37,-1
 228 121 l 1,38,-1
 61 74 l 1,39,-1
 50 0 l 1,40,-1
 598 0 l 1,41,-1
 608 83 l 1,8,-1
462.5 1167 m 128,-1,43
 496 1169 496 1169 540 1169 c 0,44,45
 627 1169 627 1169 689.5 1133 c 128,-1,46
 752 1097 752 1097 785 1033 c 128,-1,47
 818 969 818 969 818 887 c 0,48,49
 818 788 818 788 760 722 c 128,-1,50
 702 656 702 656 618 628 c 1,51,-1
 420 628 l 1,52,-1
 420 1164 l 1,53,42
 429 1165 429 1165 462.5 1167 c 128,-1,43
EndSplineSet
EndChar

StartChar: rcaron
Encoding: 345 345 196
Width: 734
GlyphClass: 1
Flags: W
LayerCount: 2
Fore
SplineSet
386 993 m 1,0,-1
 441 1007 l 1,1,-1
 612 1186 l 1,2,-1
 568 1217 l 1,3,-1
 445 1077 l 1,4,-1
 436 1077 l 1,5,-1
 287 1220 l 1,6,-1
 206 1159 l 1,7,-1
 386 993 l 1,0,-1
602 87 m 1,8,-1
 369 121 l 1,9,-1
 369 504 l 1,10,11
 379 575 379 575 406.5 624 c 128,-1,12
 434 673 434 673 467.5 697.5 c 128,-1,13
 501 722 501 722 530 722 c 0,14,15
 557 722 557 722 585.5 709 c 128,-1,16
 614 696 614 696 640 673 c 1,17,18
 718 726 718 726 718 793 c 0,19,20
 718 839 718 839 685 872.5 c 128,-1,21
 652 906 652 906 598 906 c 0,22,23
 555 906 555 906 510.5 875.5 c 128,-1,24
 466 845 466 845 427.5 784 c 128,-1,25
 389 723 389 723 363 636 c 1,26,-1
 344 636 l 1,27,-1
 360 866 l 1,28,-1
 341 890 l 1,29,-1
 54 853 l 1,30,-1
 40 777 l 1,31,-1
 203 728 l 1,32,-1
 203 114 l 1,33,-1
 50 74 l 1,34,-1
 40 0 l 1,35,-1
 592 0 l 1,36,-1
 602 87 l 1,8,-1
EndSplineSet
EndChar

StartChar: Scaron
Encoding: 352 352 197
Width: 863
GlyphClass: 1
Flags: W
LayerCount: 2
Fore
SplineSet
434 1360 m 1,0,-1
 489 1373 l 1,1,-1
 661 1553 l 1,2,-1
 618 1584 l 1,3,-1
 494 1443 l 1,4,-1
 484 1443 l 1,5,-1
 335 1587 l 1,6,-1
 255 1526 l 1,7,-1
 434 1360 l 1,0,-1
619.5 23.5 m 128,-1,9
 722 71 722 71 784.5 157 c 128,-1,10
 847 243 847 243 847 354 c 0,11,12
 847 448 847 448 802.5 515 c 128,-1,13
 758 582 758 582 694 625 c 128,-1,14
 630 668 630 668 526 723 c 0,15,16
 435 771 435 771 384 804.5 c 128,-1,17
 333 838 333 838 298 885 c 128,-1,18
 263 932 263 932 263 995 c 0,19,20
 263 1089 263 1089 314 1137 c 128,-1,21
 365 1185 365 1185 445 1185 c 0,22,23
 482 1185 482 1185 518 1169.5 c 128,-1,24
 554 1154 554 1154 579.5 1131.5 c 128,-1,25
 605 1109 605 1109 615 1090 c 1,26,-1
 640 899 l 1,27,-1
 739 887 l 1,28,29
 742 930 742 930 750 1026 c 128,-1,30
 758 1122 758 1122 761 1169 c 1,31,32
 641 1269 641 1269 479 1269 c 0,33,34
 378 1269 378 1269 289 1227 c 128,-1,35
 200 1185 200 1185 145 1105 c 128,-1,36
 90 1025 90 1025 90 916 c 0,37,38
 90 822 90 822 135.5 753 c 128,-1,39
 181 684 181 684 245.5 639.5 c 128,-1,40
 310 595 310 595 415 539 c 0,41,42
 500 493 500 493 548.5 461 c 128,-1,43
 597 429 597 429 630 385.5 c 128,-1,44
 663 342 663 342 663 287 c 0,45,46
 663 217 663 217 627.5 170 c 128,-1,47
 592 123 592 123 537.5 100 c 128,-1,48
 483 77 483 77 426 77 c 0,49,50
 360 77 360 77 304.5 109 c 128,-1,51
 249 141 249 141 220 187 c 1,52,-1
 181 375 l 1,53,-1
 79 389 l 1,54,-1
 66 122 l 1,55,56
 117 59 117 59 207.5 17.5 c 128,-1,57
 298 -24 298 -24 402 -24 c 0,58,8
 517 -24 517 -24 619.5 23.5 c 128,-1,9
EndSplineSet
EndChar

StartChar: scaron
Encoding: 353 353 198
Width: 697
GlyphClass: 1
Flags: W
LayerCount: 2
Fore
SplineSet
317 993 m 1,0,-1
 372 1007 l 1,1,-1
 544 1186 l 1,2,-1
 500 1217 l 1,3,-1
 377 1077 l 1,4,-1
 368 1077 l 1,5,-1
 219 1220 l 1,6,-1
 138 1159 l 1,7,-1
 317 993 l 1,0,-1
488.5 -1 m 128,-1,9
 560 32 560 32 604 90.5 c 128,-1,10
 648 149 648 149 648 220 c 0,11,12
 648 287 648 287 613 338.5 c 128,-1,13
 578 390 578 390 528.5 425 c 128,-1,14
 479 460 479 460 399 504 c 0,15,16
 333 541 333 541 296 566 c 128,-1,17
 259 591 259 591 234 623.5 c 128,-1,18
 209 656 209 656 209 696 c 0,19,20
 209 746 209 746 239.5 781 c 128,-1,21
 270 816 270 816 321 816 c 0,22,23
 435 816 435 816 470 632 c 1,24,-1
 477 589 l 1,25,26
 542 593 542 593 579.5 632.5 c 128,-1,27
 617 672 617 672 617 734 c 0,28,29
 617 813 617 813 546.5 856.5 c 128,-1,30
 476 900 476 900 372 900 c 0,31,32
 277 900 277 900 209.5 857 c 128,-1,33
 142 814 142 814 108 750 c 128,-1,34
 74 686 74 686 74 624 c 0,35,36
 74 553 74 553 110.5 499.5 c 128,-1,37
 147 446 147 446 198.5 410 c 128,-1,38
 250 374 250 374 331 329 c 0,39,40
 390 297 390 297 424 274.5 c 128,-1,41
 458 252 458 252 480.5 224.5 c 128,-1,42
 503 197 503 197 503 165 c 0,43,44
 503 113 503 113 466 88.5 c 128,-1,45
 429 64 429 64 371 64 c 0,46,47
 312 64 312 64 262.5 116 c 128,-1,48
 213 168 213 168 182 271 c 1,49,50
 121 267 121 267 85.5 230 c 128,-1,51
 50 193 50 193 50 141 c 0,52,53
 50 95 50 95 86 55 c 128,-1,54
 122 15 122 15 188 -9.5 c 128,-1,55
 254 -34 254 -34 340 -34 c 0,56,8
 417 -34 417 -34 488.5 -1 c 128,-1,9
EndSplineSet
EndChar

StartChar: Zcaron
Encoding: 381 381 200
Width: 1009
GlyphClass: 1
Flags: W
LayerCount: 2
Fore
SplineSet
520 1361 m 1,0,-1
 575 1376 l 1,1,-1
 748 1555 l 1,2,-1
 704 1585 l 1,3,-1
 581 1445 l 1,4,-1
 571 1445 l 1,5,-1
 423 1589 l 1,6,-1
 341 1527 l 1,7,-1
 520 1361 l 1,0,-1
55 0 m 1,8,-1
 991 0 l 1,9,-1
 1048 335 l 1,10,-1
 955 351 l 1,11,-1
 832 100 l 1,12,-1
 262 100 l 1,13,-1
 1026 1168 l 1,14,-1
 1026 1244 l 1,15,-1
 98 1244 l 1,16,-1
 88 921 l 1,17,-1
 178 903 l 1,18,-1
 255 1149 l 1,19,-1
 792 1149 l 1,20,-1
 47 104 l 1,21,-1
 55 0 l 1,8,-1
EndSplineSet
EndChar

StartChar: zcaron
Encoding: 382 382 201
Width: 818
GlyphClass: 1
Flags: W
LayerCount: 2
Fore
SplineSet
380 993 m 1,0,-1
 436 1007 l 1,1,-1
 607 1186 l 1,2,-1
 563 1217 l 1,3,-1
 440 1077 l 1,4,-1
 430 1077 l 1,5,-1
 282 1220 l 1,6,-1
 200 1159 l 1,7,-1
 380 993 l 1,0,-1
57 0 m 1,8,-1
 728 0 l 1,9,-1
 770 267 l 1,10,-1
 703 275 l 1,11,-1
 608 99 l 1,12,-1
 248 99 l 1,13,-1
 750 799 l 1,14,-1
 750 873 l 1,15,-1
 78 873 l 1,16,-1
 70 608 l 1,17,-1
 147 595 l 1,18,-1
 206 780 l 1,19,-1
 543 780 l 1,20,-1
 53 87 l 1,21,-1
 57 0 l 1,8,-1
EndSplineSet
EndChar

StartChar: circumflex
Encoding: 710 710 202
Width: 584
GlyphClass: 1
Flags: W
LayerCount: 2
Fore
SplineSet
129 1357 m 1,0,-1
 268 1468 l 1,1,-1
 279 1468 l 1,2,-1
 442 1358 l 1,3,-1
 491 1395 l 1,4,-1
 313 1581 l 1,5,-1
 258 1566 l 1,6,-1
 90 1387 l 1,7,-1
 129 1357 l 1,0,-1
EndSplineSet
EndChar

StartChar: dotaccent
Encoding: 729 729 203
Width: 425
GlyphClass: 1
Flags: W
LayerCount: 2
Fore
SplineSet
271.5 1372 m 128,-1,1
 300 1389 300 1389 317 1417 c 128,-1,2
 334 1445 334 1445 334 1478 c 0,3,4
 334 1526 334 1526 297.5 1559.5 c 128,-1,5
 261 1593 261 1593 211 1593 c 0,6,7
 180 1593 180 1593 152.5 1578 c 128,-1,8
 125 1563 125 1563 108.5 1536.5 c 128,-1,9
 92 1510 92 1510 92 1479 c 0,10,11
 92 1446 92 1446 108 1417.5 c 128,-1,12
 124 1389 124 1389 151.5 1372 c 128,-1,13
 179 1355 179 1355 211 1355 c 256,14,0
 243 1355 243 1355 271.5 1372 c 128,-1,1
EndSplineSet
EndChar

StartChar: ring
Encoding: 730 730 204
Width: 491
GlyphClass: 1
Flags: W
LayerCount: 2
Fore
SplineSet
330.5 1385.5 m 128,-1,1
 369 1410 369 1410 390.5 1450.5 c 128,-1,2
 412 1491 412 1491 412 1536 c 0,3,4
 412 1607 412 1607 369.5 1653 c 128,-1,5
 327 1699 327 1699 256 1699 c 0,6,7
 211 1699 211 1699 172.5 1675.5 c 128,-1,8
 134 1652 134 1652 111.5 1612 c 128,-1,9
 89 1572 89 1572 89 1527 c 0,10,11
 89 1451 89 1451 131.5 1406 c 128,-1,12
 174 1361 174 1361 243 1361 c 0,13,0
 292 1361 292 1361 330.5 1385.5 c 128,-1,1
315 1612 m 128,-1,15
 341 1574 341 1574 341 1524 c 0,16,17
 341 1470 341 1470 318.5 1440 c 128,-1,18
 296 1410 296 1410 255 1410 c 0,19,20
 210 1410 210 1410 185 1448.5 c 128,-1,21
 160 1487 160 1487 160 1538 c 0,22,23
 160 1584 160 1584 182 1617 c 128,-1,24
 204 1650 204 1650 245 1650 c 0,25,14
 289 1650 289 1650 315 1612 c 128,-1,15
EndSplineSet
EndChar

StartChar: tilde
Encoding: 732 732 205
Width: 649
GlyphClass: 1
Flags: W
LayerCount: 2
Fore
SplineSet
142 1386.5 m 128,-1,1
 151 1399 151 1399 164.5 1410 c 128,-1,2
 178 1421 178 1421 190 1419 c 2,3,-1
 415 1387 l 2,4,5
 419 1386 419 1386 426 1386 c 0,6,7
 466 1386 466 1386 495.5 1418 c 128,-1,8
 525 1450 525 1450 542 1487.5 c 128,-1,9
 559 1525 559 1525 559 1530 c 1,10,-1
 510 1532 l 2,11,12
 508 1529 508 1529 499 1518.5 c 128,-1,13
 490 1508 490 1508 477.5 1499.5 c 128,-1,14
 465 1491 465 1491 454 1492 c 2,15,-1
 228 1521 l 1,16,-1
 217 1522 l 2,17,18
 178 1522 178 1522 150 1490 c 128,-1,19
 122 1458 122 1458 107 1421.5 c 128,-1,20
 92 1385 92 1385 92 1379 c 1,21,-1
 131 1370 l 1,22,0
 133 1374 133 1374 142 1386.5 c 128,-1,1
EndSplineSet
EndChar

StartChar: uni1E9E
Encoding: 7838 7838 206
Width: 1283
GlyphClass: 1
Flags: W
LayerCount: 2
Fore
SplineSet
387 774 m 2,0,1
 387 965 387 965 459 1063 c 128,-1,2
 531 1161 531 1161 676 1161 c 0,3,4
 734 1161 734 1161 763 1158 c 1,5,-1
 761 1155 l 1,6,7
 691 1139 691 1139 636.5 1092.5 c 128,-1,8
 582 1046 582 1046 551.5 977.5 c 128,-1,9
 521 909 521 909 521 829 c 0,10,11
 521 738 521 738 563 674 c 128,-1,12
 605 610 605 610 665 569.5 c 128,-1,13
 725 529 725 529 821 481 c 0,14,15
 899 442 899 442 944 413.5 c 128,-1,16
 989 385 989 385 1019.5 344.5 c 128,-1,17
 1050 304 1050 304 1050 250 c 0,18,19
 1050 76 1050 76 849 76 c 0,20,21
 783 76 783 76 724 107.5 c 128,-1,22
 665 139 665 139 637 184 c 1,23,-1
 602 361 l 1,24,-1
 507 376 l 1,25,-1
 494 121 l 1,26,27
 535 54 535 54 626 15 c 128,-1,28
 717 -24 717 -24 826 -24 c 0,29,30
 941 -24 941 -24 1033 14.5 c 128,-1,31
 1125 53 1125 53 1178.5 130 c 128,-1,32
 1232 207 1232 207 1232 316 c 0,33,34
 1232 405 1232 405 1191.5 468 c 128,-1,35
 1151 531 1151 531 1092.5 571 c 128,-1,36
 1034 611 1034 611 939 661 c 0,37,38
 854 706 854 706 805.5 738 c 128,-1,39
 757 770 757 770 724 817 c 128,-1,40
 691 864 691 864 691 928 c 0,41,42
 691 976 691 976 716 1018.5 c 128,-1,43
 741 1061 741 1061 780.5 1086.5 c 128,-1,44
 820 1112 820 1112 862 1112 c 0,45,46
 915 1112 915 1112 950 1082 c 128,-1,47
 985 1052 985 1052 1004.5 1010 c 128,-1,48
 1024 968 1024 968 1049 897 c 1,49,50
 1111 918 1111 918 1140 948 c 128,-1,51
 1169 978 1169 978 1169 1032 c 0,52,53
 1169 1114 1169 1114 1092.5 1162.5 c 128,-1,54
 1016 1211 1016 1211 907.5 1230.5 c 128,-1,55
 799 1250 799 1250 689 1250 c 0,56,57
 457 1250 457 1250 327.5 1127.5 c 128,-1,58
 198 1005 198 1005 198 751 c 2,59,-1
 198 119 l 1,60,-1
 34 73 l 1,61,-1
 26 0 l 1,62,-1
 389 0 l 1,63,-1
 387 774 l 2,0,1
EndSplineSet
Substitution2: "'c2sc' Capitals to Small Capitals lookup 6 subtable" germandbls.sc
Substitution2: "'aalt' Access All Alternates lookup 0 subtable" germandbls.sc
EndChar

StartChar: endash
Encoding: 8211 8211 218
Width: 795
GlyphClass: 1
Flags: W
LayerCount: 2
Fore
SplineSet
697 415 m 1,0,-1
 713 520 l 1,1,-1
 102 513 l 1,2,-1
 87 409 l 1,3,-1
 697 415 l 1,0,-1
EndSplineSet
EndChar

StartChar: emdash
Encoding: 8212 8212 219
Width: 1306
GlyphClass: 1
Flags: W
LayerCount: 2
Fore
SplineSet
1207 415 m 1,0,-1
 1223 520 l 1,1,-1
 102 513 l 1,2,-1
 87 409 l 1,3,-1
 1207 415 l 1,0,-1
EndSplineSet
EndChar

